<svg id="Layer_1" data-name="Layer 1" xmlns="http://www.w3.org/2000/svg" viewBox="0 0 780.74 578.25"><defs><style>.cls-1{fill:#746152;}.cls-2{fill:#f1bdd7;}.cls-3{fill:#e9dcd4;}.cls-4{fill:#a75b43;}.cls-5{fill:#fff;}.cls-6{fill:#22201d;}.cls-7{fill:#dacbb4;}.cls-8{opacity:0.55;}.cls-9{fill:#14110f;}.cls-10,.cls-12,.cls-13,.cls-14{fill:none;}.cls-10{stroke:#242220;stroke-width:0.74px;}.cls-10,.cls-13,.cls-14{stroke-miterlimit:10;}.cls-11{opacity:0.65;}.cls-13,.cls-14{stroke:#000;}.cls-13{stroke-width:1.49px;}.cls-14{stroke-width:0.52px;}</style></defs><g id="Layer_10" data-name="Layer 10"><path class="cls-1" d="M268.12,177.26c5.36,3.57,10.85,7.51,14.65,13s5.29,11.8,6,17.5c.26,2.22.39,4.35.46,6.46a77.52,77.52,0,0,1,14.74-10.77,89.89,89.89,0,0,1,10.44-5.21c2.63-1.59,5.46-3.2,8.45-4.81-.85-2.08-2-6.19-4-11.61-.61.59-1.34,1.24-2.2,1.95-1.52,1.24-3.31,2.72-5.48,4.19a24.77,24.77,0,0,1-8.21,3.83,13.78,13.78,0,0,1-9.8-1.18,9.11,9.11,0,0,1-3.43-3.32,7.17,7.17,0,0,1-.86-4.21,6.77,6.77,0,0,1,.52-2.07,12.88,12.88,0,0,1-2.24.08,11,11,0,0,1-4.77-1.39,10.46,10.46,0,0,1-3.71-3.65,12.13,12.13,0,0,1-1.18-9.58,15.52,15.52,0,0,1,4.78-7.06,33.28,33.28,0,0,1,11.56-6c3.35-1.13,6.07-1.82,7.91-2.39l.22-.05c-2-2.59-4.19-5.26-6.56-7.81-2.2,2-10.74,6.19-20.35,12-9.91,5.91-17.71,11.71-20.33,12.49A134.61,134.61,0,0,0,268.12,177.26Z" transform="translate(-40.48 -52.2)"/><path class="cls-2" d="M352.14,207.48c-.35,2.3-.75,4.53-1.09,6.76L349,227.06l-1,6a40.41,40.41,0,0,0-.6,5.15A12.81,12.81,0,0,0,350,244.6c1.67,2,4.6,3.22,8,3.43a16.3,16.3,0,0,0,2.42,0c.7-.09.9-.19,1-.32.45-.27.92-1.88,1.31-3.57.82-3.29,1.64-6.24,2.39-8.72a55.22,55.22,0,0,1,2.06-5.74c.61-6.09,1.21-13.44,1.26-21.29A6.19,6.19,0,0,0,367,204a10,10,0,0,0-4.47-2.67,28.75,28.75,0,0,0-6.15-1.28,6.09,6.09,0,0,0-2.33,0,1.6,1.6,0,0,0-.86,1A56.52,56.52,0,0,0,352.14,207.48Z" transform="translate(-40.48 -52.2)"/><path class="cls-2" d="M382.14,235c-2.2,3.26-4.48,5.95-5.43,8.61a2.07,2.07,0,0,0,0,.22c-.05,2.29,1.62,5,4.36,6.65a19.67,19.67,0,0,0,4.57,2,24.48,24.48,0,0,0,4.53,1,3.54,3.54,0,0,0,1.08-.08,9.16,9.16,0,0,0,1.73-.9c.66-.59,1.3-1.22,1.9-1.87a17.6,17.6,0,0,1,1.5-1.94c.25-.29.5-.56.77-.82a74.54,74.54,0,0,0,6.18-10.06,46.18,46.18,0,0,0,3.39-8.57,20.76,20.76,0,0,0,.54-9.84,14,14,0,0,0-5.45-8.53,6.27,6.27,0,0,0-4.16-1.23,2.12,2.12,0,0,0-1.31.76,10.47,10.47,0,0,0-1.31,2.27A148.75,148.75,0,0,1,382.14,235Z" transform="translate(-40.48 -52.2)"/><path class="cls-2" d="M435.89,285.46a42.45,42.45,0,0,0,3.05,5.27,7.23,7.23,0,0,0,2.34,2.66,4.58,4.58,0,0,0,.94.4c.86-.69,2-1.47,3.26-2.31,2.33-1.53,4.32-2.8,5.24-2.85q3.16-2.2,7.4-4.75l8.7-5.15a85,85,0,0,0,9.43-6.07,15.58,15.58,0,0,0,3.57-4,8.07,8.07,0,0,0,1.11-4.75,4.91,4.91,0,0,0-2.2-3.72,9.51,9.51,0,0,0-5.15-1.32c-3.91,0-8,1.94-12.22,3.53L449.41,267a45,45,0,0,0-9.9,4.77c-2.68,1.91-4.49,4.21-4.91,6.66A12,12,0,0,0,435.89,285.46Z" transform="translate(-40.48 -52.2)"/><path class="cls-1" d="M222.6,104.87c.16,1.22.26,2.9.61,5a90.1,90.1,0,0,0,9.95,31.32,97,97,0,0,0,8.43,12.88,95.61,95.61,0,0,0,11,11.68c2.83-3.44,9.38-9.36,18.19-14.69,10.09-6.14,19.58-9.28,23.15-9.55-2.21-2.29-4.55-4.54-7-6.71-14.79-12.91-31.36-20.43-43.63-24.57-9.82-3.33-16.92-4.82-19.4-5.9C223.45,104.5,223,104.69,222.6,104.87Z" transform="translate(-40.48 -52.2)"/><path class="cls-2" d="M471.37,306.28a8.44,8.44,0,0,0-.44,4.53,6.06,6.06,0,0,0,2.32,3.33c2.4,1.82,5.64,2.74,8.54,3.45a24.49,24.49,0,0,0,4,.75,3.06,3.06,0,0,0,2.48-.9,2.76,2.76,0,0,1,.3-.29,22.3,22.3,0,0,1,2.3-3.4l.26-.38c.85-3.3,2.3-8.74,3.7-15.82.56-3,1.07-6.31,1.48-9.87.2-1.77.36-3.61.5-5.51a17.14,17.14,0,0,0-.35-5.2,5,5,0,0,0-2.2-3.44,4.78,4.78,0,0,0-4.08.19,13.27,13.27,0,0,0-4.42,3.49,28.27,28.27,0,0,0-3.58,5.29A233.14,233.14,0,0,0,471.37,306.28Z" transform="translate(-40.48 -52.2)"/><path class="cls-1" d="M321.82,225.3c-2,1.28-4.19,2.61-6.5,3.87A97.37,97.37,0,0,1,294.2,238a23.83,23.83,0,0,1-4.46,1.25c.08,8.12.06,14.64-.08,19.07h0c0,1.33-.09,2.47-.15,3.41.16.29.31.39.92.62a12,12,0,0,0,2.81.29c2.37.07,4.91.21,7.6.44q8.67.73,17.25,2.33a163.7,163.7,0,0,1,27,7.46c4.45,1.27,9,2.71,13.8,4.44,3.23,1.23,6.57,2.35,9.89,3.81l5,2.13,5.06,2.37c3.44,1.55,6.76,3.48,10.21,5.26,3.32,2,6.8,3.92,10.08,6.21a152.09,152.09,0,0,1,18.46,14.32c5.56,5.11,10.49,10.32,15.33,15.05A130.69,130.69,0,0,0,461.19,348a153.18,153.18,0,0,0,22,10.13c3.71,1.38,6.27,2.28,7.5,2.83l.34-3.88c-.16-3.34-.15-7.26,0-11.48a86.16,86.16,0,0,1,1.57-15.27,22.53,22.53,0,0,1,.91-3,9.53,9.53,0,0,1-2.74-1,6.47,6.47,0,0,1-3.06-3.73,5.2,5.2,0,0,1-.21-1.35,7.53,7.53,0,0,1-1.69.32,24.62,24.62,0,0,1-4.77-.44c-3.13-.55-6.72-1.17-10.32-3.54A10.34,10.34,0,0,1,466.5,312a12.74,12.74,0,0,1,.29-7.21c.67-2.18,1.45-4.07,2.22-6.1s1.63-4.06,2.52-6.12c1.81-4.15,3.73-8.35,6-12.63a35.94,35.94,0,0,1,2.83-4.48l-1.12.92a81.79,81.79,0,0,1-10.28,6.1l-9,4.59c-3.39,1.67-6.33,3.22-8.8,4.57a18,18,0,0,1-3,2.35,15.11,15.11,0,0,1-3.69,1.88l-.36.24a5.76,5.76,0,0,1-3.65.52,7.37,7.37,0,0,1-3.87-2.25c-2.08-2.29-2.73-4.78-3.44-6.27s-1.2-2.46-.95-2.73c0-.06.16-.06.27-.05a13.15,13.15,0,0,1-1.56-7.35,11.6,11.6,0,0,1,.19-1.18,18.69,18.69,0,0,1-6.16,1,17.1,17.1,0,0,1-5.07-.89,9.93,9.93,0,0,1-5.08-3.52,9.25,9.25,0,0,1-1.15-6.68c.29-2,.73-3.74,1.11-5.67.79-3.76,1.61-7.72,2.49-11.82l.43-1.92a23.75,23.75,0,0,1-6.6-3.11,26.08,26.08,0,0,1-4.9-4,57.31,57.31,0,0,1-3.75,5.28,34.18,34.18,0,0,1-3.81,6.57,28.87,28.87,0,0,1-2.64,3.57,8.7,8.7,0,0,1-2.46,1.85,7.94,7.94,0,0,1-3.38.79,23.54,23.54,0,0,1-5.9-.9,21.79,21.79,0,0,1-5.93-2.45,14,14,0,0,1-3.11-2.53,8.78,8.78,0,0,1-2.61-3.64,8.07,8.07,0,0,1-.5-1.87,10.55,10.55,0,0,1-.26-3.41,12.63,12.63,0,0,1,2-5.42,32.9,32.9,0,0,1,2.64-3.57,8.09,8.09,0,0,1,.73-.81l.95-1.4c.87-1.29,1.7-2.67,2.54-4.06a28.21,28.21,0,0,1-5.42-2.69,35.52,35.52,0,0,1-3.26-2.31c-.35,2.56-.74,5-1.15,7.3a126.54,126.54,0,0,1-3.16,13.33c-.07.43-.15.85-.22,1.28-.15.83-.26,1.7-.55,2.76a7.78,7.78,0,0,1-1.87,3.48,6.76,6.76,0,0,1-4,1.83,18.17,18.17,0,0,1-3.38.05c-4.4-.23-8.92-2.18-11.43-5.68l-.26-.41a10.93,10.93,0,0,1-1.72-2.81,16.16,16.16,0,0,1-1.16-6,40.18,40.18,0,0,1,.44-6c.24-1.94.51-3.95.77-6,.57-4.11,1.16-8.41,1.76-12.86l1-6.8c0-.21.07-.44.09-.66-1.59,1.7-3.14,3.27-4.78,4.75A102.65,102.65,0,0,1,331,219.71Q326.29,222.78,321.82,225.3Z" transform="translate(-40.48 -52.2)"/><path class="cls-3" d="M244.73,104.92a106,106,0,0,1,20.32,6.83c3.09-3.25,9.62-8.73,17.8-14.27-2.36-2-6.71-7.84-11.12-15.07a93,93,0,0,1-7.86-15.31c-3.14,2.85-6.51,5.93-10,9.21C241,88.29,230.7,99,226.74,102.06c.28,0,.45.14.48.25s-.08.29-.32.46A80.44,80.44,0,0,1,244.73,104.92Z" transform="translate(-40.48 -52.2)"/><path class="cls-1" d="M250.31,72.52A182,182,0,0,1,276,52.2c-.25,0-.5.11-.75.17-1.39.76-3,1.58-4.78,2.57-3.4,1.89-7.33,4.35-11.57,7.26a142.34,142.34,0,0,0-13.14,10.32c-9,7.86-16.41,15.78-21.87,21.49-3.35,3.52-6,6.2-7.59,7.64-.5.73-1,1.36-1.46,1.93a71.29,71.29,0,0,1,10.36-1.52C226.44,98.57,236.13,85.7,250.31,72.52Z" transform="translate(-40.48 -52.2)"/><path class="cls-4" d="M805.64,479l0-.06a.35.35,0,0,0,.1-.28h0c0,.14-.07.25-.11.39S805.63,479,805.64,479Z" transform="translate(-40.48 -52.2)"/><path class="cls-1" d="M780.19,447.69a122.65,122.65,0,0,1-27.62,2.61c-11.76-.06-25.67-1.68-40.83-4.62s-31.52-7.21-48.76-10.84c-8.63-1.8-17.08-3.32-25.26-4.35-4.07-.46-8.13-.89-12.06-1.15s-8-.68-10.35.62-3.87,4.62-6.17,7.8a35.28,35.28,0,0,1-7.79,8.11,22.68,22.68,0,0,1-9.9,4.24,20.67,20.67,0,0,1-9.9-.87,26.73,26.73,0,0,1-13.1-9.94,39.86,39.86,0,0,1-5.22-11,69.75,69.75,0,0,1-1.75-7.12A224.59,224.59,0,0,0,549,441.91c-.6,1.26-1.21,2.48-1.81,3.68-1.58,4.12-3.39,8.89-5.32,14-3.32,8.78-6.25,16.65-8.4,21.86,14.82,3.09,29.34,6.17,43.35,8.91,22.12,4.35,43.24,7.84,63.17,10.18a503.55,503.55,0,0,0,55.44,3.75c4.25,0,8.39.09,12.43-.09l11.81-.46c7.65-.59,14.83-1,21.52-2,6.72-.71,12.87-1.87,18.58-2.83,2.86-.41,5.51-1.09,8.15-1.65s5-1.1,7.34-1.62c4.6-1.17,8.64-2.39,12.21-3.31l2.56-.68.14-.05c1-.68,3.66-1.62,6.38-3.33a45.28,45.28,0,0,0,5.17-3.88,28.81,28.81,0,0,0,1.41-3.87,28.15,28.15,0,0,0,.47-12.35A36.62,36.62,0,0,0,797.3,453a44.26,44.26,0,0,0-7.68-8.26,17,17,0,0,1-2,.81A63.43,63.43,0,0,1,780.19,447.69Z" transform="translate(-40.48 -52.2)"/><path class="cls-3" d="M580.05,398a206,206,0,0,0-16.43,20.15l-1.37,2c.61,1.62,1.58,4.14,2.93,7.51a41.68,41.68,0,0,0,5.63,10,24.27,24.27,0,0,0,11.86,8.16,17,17,0,0,0,8.1.42,18.56,18.56,0,0,0,8-3.72,30.66,30.66,0,0,0,6.61-7.26c1-1.43,1.78-2.9,2.88-4.65a13.14,13.14,0,0,1,4.84-4.81,15,15,0,0,1,6.71-1.49c2.15-.05,4.09.09,6.14.17,4.08.19,8.23.58,12.41,1,8.41,1,17,2.5,25.72,4.31,17.44,3.69,33.72,8.1,48.65,11.23a262.84,262.84,0,0,0,40,5.66c19.82,1,33-2,36.31-2.21a73.5,73.5,0,0,0-6.56-4.85,134.16,134.16,0,0,0-21-10.79l-50.69-21.06-50.62-21.4c-15.51-6.68-29.56-12.55-41.11-18.19-1.18-.57-2.3-1.14-3.43-1.7l-.81-.34c-3.17,3.55-11.63,10.88-21.28,19.62C588.46,390.3,583.86,394.53,580.05,398Z" transform="translate(-40.48 -52.2)"/><path class="cls-4" d="M808.15,480.2l-.09-.29a3.06,3.06,0,0,1-.13.43C808,480.28,808.08,480.25,808.15,480.2Z" transform="translate(-40.48 -52.2)"/><path class="cls-2" d="M564.44,340.69c-.34,1-.69,1.95-1,2.83q-2.06,5.64-3.9,10.84c-1.29,3.43-2.5,6.7-3.64,9.77a22.39,22.39,0,0,0-1.32,4.06,5.75,5.75,0,0,0,.45,3.22,11.44,11.44,0,0,0,4.28,4.76,29.56,29.56,0,0,0,4.8,2.42l1.85.75a5,5,0,0,0,1.67-1.45c1-1.48,1.64-3.47,2.57-4.75h0c.89-2.37,1.93-5.21,3-8.47q1.31-3.94,2.86-8.6a48.72,48.72,0,0,0,2.52-9.59,13.72,13.72,0,0,0-.18-4.78,10.14,10.14,0,0,0-2-4.21,8.53,8.53,0,0,0-1.68-1.55,6.73,6.73,0,0,0-2-.92,7.64,7.64,0,0,0-4.54.09,4.52,4.52,0,0,0-2.81,2.85C565.16,338.77,564.77,339.77,564.44,340.69Z" transform="translate(-40.48 -52.2)"/><path class="cls-1" d="M503.55,324.1a14.7,14.7,0,0,1-1.31,1,13.58,13.58,0,0,1-4.44,2.12,12,12,0,0,1-1.59.27c.05.9,0,2,.05,3.28,0,3.77.17,9.06-.05,15-.18,4.95-.54,9.48-1,13.08-.44,11.35-1.38,24.95-3,39.54C490,418,487,435.59,484.32,448.22c-.46,2.1-.87,4-1.28,5.78l-.2,1.4a52.62,52.62,0,0,1-1.18,5.82c-.06.27-.14.52-.21.78-.09.68-.2,1.35-.36,2.08a23,23,0,0,1-2.29,6.45q14.52,2.6,28.54,5.51c7.72,1.55,15.32,3.14,22.84,4.71a142.1,142.1,0,0,1,6.78-23c1.32-3.5,2.69-6.74,4-9.73,1.11-2.65,2.43-5.37,3.65-8.2a185.21,185.21,0,0,1,14.69-24.7,178.15,178.15,0,0,1,18.51-22q2.39-2.31,4.62-4.51c1.35-1.28,2.74-2.45,4.06-3.61l3.35-3.17c9.07-8.2,17.75-14.23,22.47-16.75-2.67-1.19-5.49-2.6-8.33-4.15-9.94-5.53-17.51-11.72-20.57-15.15a11.26,11.26,0,0,1-.16,1.3,49.51,49.51,0,0,1-3.12,10.52c-1.17,3-2.35,5.89-3.48,8.45a87.87,87.87,0,0,1-6,11.52,12.15,12.15,0,0,1-.93,1.79,6.59,6.59,0,0,1-1.14,1.16c-.63.78-1.11,1.19-1.28,1.09a.77.77,0,0,1-.07-.23,8.18,8.18,0,0,1-.82.32l-.35.09-.48.09a1,1,0,0,1-.25,0,5.48,5.48,0,0,1-.7,0h-.36a14,14,0,0,1-6.3-1.78,13.12,13.12,0,0,1-4.82-4.48,7.75,7.75,0,0,1-.62-1.3,13.12,13.12,0,0,1-.92-1.41,9.25,9.25,0,0,1-1.1-5.26,24.11,24.11,0,0,1,1.21-5l3.21-9.9c1.16-3.49,2.37-7.17,3.62-10.93l.5-1.53a26.28,26.28,0,0,1-12.69-8.3,3.11,3.11,0,0,1-.57-.46c-.26.82-.53,1.66-.82,2.44-4,10.59-8.29,16.12-8.83,15.76a.21.21,0,0,1-.09-.15,8.76,8.76,0,0,1-3.7,1.7,9.51,9.51,0,0,1-7.12-1.48,21.22,21.22,0,0,1-5.94-2.88,19,19,0,0,1-5.63-5.71,6,6,0,0,1-1.18-2,6.56,6.56,0,0,1,.05-3.49c.84-3.24,1.82-6.56,3-10.06s2.53-7.11,4.08-10.83c.64-1.55,1.35-3.13,2.08-4.72l-.79.67-2.86,2.45c.06.79-4.06,4.77-10,8.39C506.48,322.58,505,323.41,503.55,324.1Z" transform="translate(-40.48 -52.2)"/><path class="cls-2" d="M492.75,323.23a7.4,7.4,0,0,0,6.34.79c.59-.38,1.24-.78,1.94-1.2,1.73-1.25,3.88-2.64,6.19-4.2l.07-.1c1.49-1.63,3.36-3.59,5.55-5.82l5.15-5.13c1.68-1.75,4.56-4.08,4.54-5.08a2,2,0,0,0-.83-1.78,5.78,5.78,0,0,0-2.85-1.36,7.2,7.2,0,0,0-3.5.46,16.46,16.46,0,0,0-3.79,2c-2.55,1.79-5.24,4-7.67,5.88a80.18,80.18,0,0,0-6.76,5.86c-1,1-1.95,2-2.8,2.93a19,19,0,0,0-2.14,2.84C491.24,321.29,491.45,322.17,492.75,323.23Z" transform="translate(-40.48 -52.2)"/><path class="cls-2" d="M524.35,316.89c-1.55,3.58-3,7.05-4.23,10.42s-2.39,6.62-3.34,9.59a2.93,2.93,0,0,0-.21,1.2,2.16,2.16,0,0,0,.65,1,31.78,31.78,0,0,0,3,2.63,43.45,43.45,0,0,0,11,5.94l1.93.72a9,9,0,0,0,4.12-3.25,9.19,9.19,0,0,0,.59-1c1-2.82,2.35-6.57,3.64-11.21.71-2.59,1.4-5.46,2-8.57s1.31-6.62.57-9.16-3.23-4.69-6.52-6.29a51,51,0,0,0-5.29-2.22,6,6,0,0,0-2-.54c-.25,0-.44.09-.88.54-.8.86-1.69,3-2.57,4.79S525.14,315.1,524.35,316.89Z" transform="translate(-40.48 -52.2)"/><path class="cls-2" d="M422.16,250.32l-2.8,11.76c-.42,1.83-1,3.78-1.22,5.36a5.32,5.32,0,0,0,.22,3.56,6,6,0,0,0,2.89,2.13,14.14,14.14,0,0,0,3.84,1,16.6,16.6,0,0,0,7-.85l.45-.19c.16-.05.19-.27.28-.41a17.94,17.94,0,0,1,4.09-4.25c.26-.19.53-.36.8-.56a56.66,56.66,0,0,0,4.21-13.9c.52-2.79.92-5.9,1.26-9.24s.35-6.78-1.14-9.23a6.06,6.06,0,0,0-3.17-2.66,9,9,0,0,0-4.72-.33c-3.24.57-6.24,3-8.16,6.4S423.18,246.19,422.16,250.32Z" transform="translate(-40.48 -52.2)"/><path class="cls-3" d="M294.81,131.42a101.07,101.07,0,0,1,14.63,17.15c3.37-2,11.13-5.74,21.56-10.63a49.38,49.38,0,0,1-2.52-7.87c-.3-1.19-.56-2.34-.78-3.44-.81-2.13-1.7-4.46-2.65-6.91-.84-2.17-1.65-4.23-2.42-6.16-1.8,2.06-7.41,5.84-14.05,10A116.12,116.12,0,0,1,294.81,131.42Z" transform="translate(-40.48 -52.2)"/><path class="cls-2" d="M370.46,150.82c.45,1.12.9,2.49,1.32,3.4a2,2,0,0,0,1.33,1.34,7,7,0,0,0,2.87.27,9.17,9.17,0,0,0,3.11-.89,8.85,8.85,0,0,0,4.36-4.44,6.19,6.19,0,0,0,.41-2.73,12.74,12.74,0,0,0-.7-3.05c-.75-2.08-1.78-4.39-2.48-6.52s-1.34-4.14-1.76-6l-.19-.82a22.06,22.06,0,0,1-1-2.22,22.08,22.08,0,0,1-1.15-3.06,19.67,19.67,0,0,1-.78-4c-2.77,1.42-5.56,2.86-8.52,4.27l-6,2.9a85,85,0,0,1,4.41,9.36C367.07,142.08,368.7,146.22,370.46,150.82Z" transform="translate(-40.48 -52.2)"/><path class="cls-2" d="M389.67,126.41c5.77-3,13.7-6.08,22.52-9.31,0,0,.12-.06.17-.08l7-3a2.58,2.58,0,0,1-.54-1,7.32,7.32,0,0,0-.3-.75,11.47,11.47,0,0,0-3.17-2.92,13.17,13.17,0,0,0-6.77-2,20.84,20.84,0,0,0-6.17.94,33.83,33.83,0,0,0-3.51,1.48c-2.9,1.42-6.07,3.3-9.45,5.14s-7.09,3.82-10.89,5.79c.73,1.5,1.88,5.21,3.76,10.17A55,55,0,0,1,389.67,126.41Z" transform="translate(-40.48 -52.2)"/><path class="cls-4" d="M377.45,121.23a.1.1,0,0,1,0,0l.08,0Z" transform="translate(-40.48 -52.2)"/><path class="cls-2" d="M311.24,151.35a99.07,99.07,0,0,1,7.22,13.86c3.32-2.93,11.48-8.18,21.69-13,9.69-4.61,18.5-7.56,23.12-8.49l-.68-2.34a28.44,28.44,0,0,1-2.9-6.07l-.44-1.13a17.44,17.44,0,0,1-1.44-3.39c-22.25,10.37-40.89,17.24-47.59,18.92C310.57,150.31,310.94,150.8,311.24,151.35Z" transform="translate(-40.48 -52.2)"/><path class="cls-5" d="M278.64,79.45a66.82,66.82,0,0,1,8.24,15.38,139.69,139.69,0,0,1,12.63-7.24c.43-.31.87-.59,1.33-.86a14.18,14.18,0,0,1,1.85-1.42,13.51,13.51,0,0,1,3.05-1.56c-5.82-8.25-11.45-15.42-15.73-21l-1.5-2c-2.71-3.13-5.13-5.9-6.84-7.94a13.33,13.33,0,0,0-1.63-.5c-2.76,2.79-7.9,7.37-14.24,13.09C268.6,67.19,273.79,72.4,278.64,79.45Z" transform="translate(-40.48 -52.2)"/><path class="cls-3" d="M268.53,113.38a108.72,108.72,0,0,1,23.06,15.18,145.47,145.47,0,0,1,12.89-9.18c6.83-4.39,13.07-7.77,16.76-9.18-.65-1.65-1.19-3.08-1.62-4.34-2.43-4.48-5.19-9.17-8.31-14-1.06-1.6-2.1-3.18-3.16-4.72-2.93,3-10.86,8.9-20.46,15.13A191,191,0,0,1,268.53,113.38Z" transform="translate(-40.48 -52.2)"/><path class="cls-2" d="M303.19,152.52c-.17.12-.31.25-.51.38a61.18,61.18,0,0,1-7.4,4c-3.1,1.52-6.73,3.28-9.69,6.11a11.2,11.2,0,0,0-3.13,4.89,7.35,7.35,0,0,0,.72,5.47,5.54,5.54,0,0,0,4.37,2.63,14,14,0,0,0,5.91-1.15c2-.77,3.9-1.75,5.78-2.66l5.17-2.44c3.16-1.43,5.74-2.5,7.62-3.17a120,120,0,0,0-6.87-11.26C304.55,154.38,303.89,153.45,303.19,152.52Z" transform="translate(-40.48 -52.2)"/><path class="cls-4" d="M284.43,96.29l0,.11h0Z" transform="translate(-40.48 -52.2)"/><path class="cls-3" d="M323.21,180.07a58.15,58.15,0,0,1,1.32,8.92,31.78,31.78,0,0,1,0,3.52c.68-.35,1.32-.71,2-1.06,2-1,4.11-2,6.24-3a25.65,25.65,0,0,1,7.52-2.42,15.69,15.69,0,0,1,2.47-.08,25.12,25.12,0,0,1-2-5c-.93-3-1.3-5.86-.94-7.4C332.23,176.86,326.1,179.4,323.21,180.07Z" transform="translate(-40.48 -52.2)"/><path class="cls-2" d="M328.68,195.75c-3.36,1.58-6.49,3.17-9.46,4.74-3.35,2.07-7.8,4.63-12.66,7.46-3.33,1.93-6.46,3.75-9.23,5.32-4.41,2.79-7.16,4.56-8,4.69.06,2,.09,3.91.14,5.78l.22,13c3.82-2.39,12.92-6.59,23.08-12.23,5.86-3.2,11.13-6.36,15.34-8.84l.07-.09a108.33,108.33,0,0,0,10.55-8.56c1.73-1.59,3.42-3.37,5-5.07a15.63,15.63,0,0,0,3.27-5.54c.54-1.93.17-3.2-1-4.18a7.07,7.07,0,0,0-5.13-1.15,21.13,21.13,0,0,0-6.12,1.9C332.78,193.87,330.69,194.83,328.68,195.75Z" transform="translate(-40.48 -52.2)"/><path class="cls-6" d="M184,315.49c1.48-.2,2.82-.37,4.09-.59,2.14-1,7.69-2.7,15.2-5.7A237.94,237.94,0,0,0,240.3,290c6.95-4.3,13.45-8.64,19.4-12.59s11.24-7.52,15.43-10.75a70.92,70.92,0,0,0,11.08-10.62l0-.25h0c.12-1.2.22-2.27.36-3.18a23.44,23.44,0,0,1,.4-2.37c-.3-3.62-.62-7.82-.94-12.55l-.87-13.79c0-1.23-.11-2.42-.22-3.66-7.12,6.05-29.21,22.06-52.63,44.17C207.15,287.88,189.23,310.45,184,315.49Z" transform="translate(-40.48 -52.2)"/><path class="cls-2" d="M295.36,179.26c-.71.32-1.49.61-2.27.88a4.59,4.59,0,0,0-.51,3,4,4,0,0,0,2.8,3.2,10.52,10.52,0,0,0,6.42.37c4.77-1.15,9.41-4.5,12.86-6,1.23-.61,2.3-1.08,3.23-1.44-.52-1.33-1.09-2.71-1.71-4.15-.91-2.12-2-4.35-3.13-6.66-1.58,1.19-3.91,2.75-6.84,4.59l-4.88,3A64.09,64.09,0,0,1,295.36,179.26Z" transform="translate(-40.48 -52.2)"/><path class="cls-2" d="M422.1,132.32l-5.32,2c-12.58,4.76-23.4,8.83-28.63,10.16a14.69,14.69,0,0,1,.59,2.69,10.63,10.63,0,0,1-.13,3.33c2.71-1.32,6.53-2.92,11-4.61,5.93-2.5,13.71-5.49,22.33-8.51,4.76-1.68,9.35-3.21,13.52-4.54s7.69-2.43,9.65-4.34a6.08,6.08,0,0,0,2-5C438,126.85,429.6,129.74,422.1,132.32Z" transform="translate(-40.48 -52.2)"/><path class="cls-2" d="M490.89,101.48c1.42-.79,3.64-1.8,6.34-3s6-2.47,9.72-3.87L516.9,91h0a5.92,5.92,0,0,0-1.19,0c-1,.11-2.27.32-3.4.5-2.33.36-4.56.79-6.68,1.21-4.22.87-8.06,1.79-11.24,2.59-2.7.7-4.93,1.29-6.69,1.7a10.65,10.65,0,0,1,2.06,2.23A9.19,9.19,0,0,1,490.89,101.48Z" transform="translate(-40.48 -52.2)"/><path class="cls-2" d="M365.91,152.41l-2-6.3c-4.06,2.43-12.2,6.36-21.57,10.84-10.24,4.84-19.08,9-23.14,10.23.81,2.07,1.53,4.08,2.1,6s1,3.41,1.37,5c3.11-2.72,11.11-7.65,21.09-12.18,11.31-5.15,21.34-8,24.39-8a8.63,8.63,0,0,1-1.06-1.84C366.59,154.69,366.32,153.64,365.91,152.41Z" transform="translate(-40.48 -52.2)"/><path class="cls-2" d="M383.07,132.79c.49,1.22,1,2.45,1.61,3.81.78,1.84,1.76,3.61,2.72,5.87,4.57-3.05,14.92-8.24,27.52-13a199.54,199.54,0,0,1,22.32-7.09l14-5.29,19.85-7.4,10.53-3.88,2.67-1a6,6,0,0,0,1.69-.72c.1.07.31-.92-.47-2a7.06,7.06,0,0,0-3.32-2.45,11.54,11.54,0,0,0-4.62-.71c-3.28.1-6.67,1.22-10.15,2.36-5.05,1.67-9.91,3.31-14.68,5-5.56,3-18.81,8.49-34.49,14.19-10.54,3.9-20.26,6.91-27.09,9.43C387.73,131,385,132.13,383.07,132.79Z" transform="translate(-40.48 -52.2)"/><path class="cls-3" d="M169.58,348.18c34.54,9.12,65.57,18.28,87.85,25.44,5.59,1.81,10.63,3.49,15.05,5q2.38.67,4.93,1.33c7.23,1.94,13.8,3.31,18.07,4.43l1.38.16,2.14.24c1.31,0,2.66-.1,4.05-.24a57.79,57.79,0,0,0,17.47-4.08,41.36,41.36,0,0,0,16.29-11.69,33.64,33.64,0,0,0,8.44-21.83c-.1-7.22-3.22-13.51-6.1-18.89s-5.19-9.74-7.2-12.37c-.78-1.07-1.48-1.89-2-2.57a7.22,7.22,0,0,1-2-2.05c-.15-.1-.26-.17-.24-.28,0-.48,3.59-.85,10-.24a95.41,95.41,0,0,1,59.61,30.73,67.28,67.28,0,0,1,12.72,21.16,45.24,45.24,0,0,1,1.71,27A42.32,42.32,0,0,1,406,402.23a50.46,50.46,0,0,1-8.89,9.91,59.46,59.46,0,0,1-10.47,7.26,65.36,65.36,0,0,1-11.05,4.91,76.61,76.61,0,0,1-21.72,4.12,105.78,105.78,0,0,1-19-.87,134.06,134.06,0,0,1-22.21-5c-3.45-.51-7.14-1.12-11.14-1.89-23.49-4.28-54.94-13.54-89.59-23.53s-65.91-19.67-88.44-27c-6.71-2.13-12.58-4.14-17.58-5.87,4,1.84,8,3.89,12.13,6.09a145.18,145.18,0,0,1,17.75,11.82,113.78,113.78,0,0,1,15.33,14.92,109.64,109.64,0,0,1,11.29,16.39,146.32,146.32,0,0,1,12.83,30.84c2,6.84,3.38,12.83,4.3,17.51.44,1.58.88,3.35,1.27,5.26a53.8,53.8,0,0,1,1,9.12,517,517,0,0,0,102.76-6.65c22.24-3.5,45.76-8,70.69-9.27,24.84-1.45,50.61-.05,76.69,3,14.76,1.81,29.21,4.09,43.38,6.58.17-1.53.42-3.46.76-5.7.9-5.88,2.41-13.91,4.05-22.81,1.59-8.48,3.06-16.17,4.31-21.9.87-6.83,1.75-14.1,2.59-21.66,1.5-13.22,2.66-25.62,3.6-36.22a48.14,48.14,0,0,1-8.06-1.53,114.41,114.41,0,0,1-23-8.79,123.27,123.27,0,0,1-29.86-21.34c-5-4.71-10-9.85-15.46-14.76a154.43,154.43,0,0,0-17.9-13.73c-3.17-2.22-6.55-4.07-9.76-6-3.35-1.75-6.55-3.66-9.89-5.19l-4.9-2.37-4.92-2.12c-3.2-1.47-6.46-2.63-9.6-3.88-8.65-3.28-16.89-5.82-24.43-7.91-4.83-1.17-10.09-2.33-15.65-3.36-5.93-1.11-11.61-2-16.8-2.67-2.6-.35-5.07-.64-7.38-.91a14.51,14.51,0,0,1-3.9-.82,5.79,5.79,0,0,1-2-1.37,4.77,4.77,0,0,1-1.15-2.27,11.77,11.77,0,0,1-.07-3.08,45.25,45.25,0,0,1-8.37,10,164.24,164.24,0,0,1-15.08,11.87c-5.78,4.2-12.3,8.73-19.4,13.09-14.13,8.86-28.06,15.09-38.57,18.2-2.8.84-5.33,1.48-7.54,2l-1.19.59a55.48,55.48,0,0,1-15.9,4.32,108.17,108.17,0,0,1-24.33.08A255.57,255.57,0,0,1,126.27,315a244.32,244.32,0,0,1-50.86-16.9c-2.75-1.28-5.17-2.48-7.36-3.62-1.45-.44-3-1-4.68-1.68A49.35,49.35,0,0,1,56,289.14c-1.58,6-5.22,16.77-8.19,31.16l-.14.65c6,.69,17.46,2.76,32.88,6C103.53,331.69,135.05,339.05,169.58,348.18Z" transform="translate(-40.48 -52.2)"/><path class="cls-1" d="M127.41,310c20.16,4.23,38.83,6.87,52.09,5.92,1.09-.06,2.13-.15,3.17-.27,1-2.25,5-8.47,11.48-16.95,4-5.25,9-11.27,14.79-17.76s12.54-13.33,19.86-20.23a333.8,333.8,0,0,1,40.05-32.27,155.66,155.66,0,0,1,16-9.8c-.17-3.32-.41-6.74-.89-10.19-.73-5.32-2.22-10.68-5.4-15.19s-8.07-8.1-13.36-11.61-10.78-7.12-15.35-11.34c-.35-.31-.66-.64-1-.94a52.32,52.32,0,0,1-5.41,4.79A106,106,0,0,1,223,186.65q-5,2.49-9.61,4.52-2.81,1.46-5.68,3c-4.76,2.58-10,5-15.48,7.63-11.07,5-23.48,10-36.73,14.54a391.28,391.28,0,0,1-38,10.62c-5.93,1.25-11.58,2.48-16.91,3.34S90.28,232,85.75,232.59c-14.82,1.88-25.1,2.26-28.44,2-.38.79-.76,1.63-1.12,2.57a47.1,47.1,0,0,0-2.67,10.11,74.74,74.74,0,0,0-.62,12.95c0,1.32.11,2.58.18,3.87.52,6.07,1.47,11.54,2.11,15.86.43,2.92.76,5.34.89,7.05l.18.12h0C56.88,285.55,86.94,301.36,127.41,310Z" transform="translate(-40.48 -52.2)"/><path class="cls-4" d="M816.53,543.18l.27,0,.05-.07Z" transform="translate(-40.48 -52.2)"/><path class="cls-1" d="M59.35,461.86c3.3.47,8.94,1.47,16.79,2.81l5.75.65c6,.65,12.49,1.43,19.33,2.34,14.49,1.93,27.51,4,36.52,5.7q13,1.31,27.81,2.23,7,.36,14.46.66c-.52-2.18-1.11-5.2-1.74-8.55-.27-1.38-.49-2.74-.72-4-1.4-4.76-3.21-10.94-5.75-18.13A162.17,162.17,0,0,0,158.32,416a110.21,110.21,0,0,0-11-15.52,116.77,116.77,0,0,0-14.69-14.13,148.32,148.32,0,0,0-17-11.43,191.17,191.17,0,0,0-17.18-8.6c-8-3.54-15.56-6.4-22.47-8.83q-3.44-.87-7.13-1.95a175.12,175.12,0,0,1-19-6.68c-2.46-.78-4.51-1.49-6.16-2.07-.92,8.48-1.6,17.45-1.77,26.8A294.41,294.41,0,0,0,43.52,409c.24,1.65.45,3.28.66,4.89,1.32,5.37,2.8,11.91,4.34,19,2.42,11.3,4.47,21.28,5.34,27.4l.06.24a3.33,3.33,0,0,1,.54.07l1.64.45C57,461.25,58.12,461.55,59.35,461.86Z" transform="translate(-40.48 -52.2)"/><path class="cls-6" d="M91.24,357c5.65.91,17.56,3.71,33.83,7.93,22.92,5.93,54.41,14.66,89.07,24.76s65.77,20.07,88.58,25.66c12.22,3.07,22,5.07,28.48,6.42,1.38.15,2.79.27,4.23.38,11,.74,24.39.52,37.7-4.52a62.15,62.15,0,0,0,9.79-4.64,52.82,52.82,0,0,0,9.1-6.53,38.29,38.29,0,0,0,12.19-18.94,38.74,38.74,0,0,0-1.36-22.5,62.2,62.2,0,0,0-11-19,86.28,86.28,0,0,0-14.82-14,102.39,102.39,0,0,0-15.22-9.44,121.29,121.29,0,0,0-24.62-9c-1.49-.39-2.79-.68-3.94-1a2.51,2.51,0,0,1,.61.51,11.46,11.46,0,0,1,1,1c2.79,2.38,5.8,6.35,9.06,11a66.94,66.94,0,0,1,5.41,9.12,33.53,33.53,0,0,1,3.18,12.43c.58,9.18-2.94,19.26-9.66,27.12a45.82,45.82,0,0,1-9.21,8.26,48.48,48.48,0,0,1-10.35,5.26,56.55,56.55,0,0,1-19.91,3.42,59.26,59.26,0,0,1-15.22-2c-.91-.13-1.84-.28-2.8-.48-.67-.13-1.31-.28-1.95-.44-2.59-.38-5.33-.9-8.17-1.57a92.6,92.6,0,0,1-17.17-5.74,56.34,56.34,0,0,1-6.19-1.78A73.87,73.87,0,0,1,244.7,376c-21.26-5.53-48-12.63-77.07-20.32-34.47-9.1-65.69-17.3-88.25-23.44-15.14-4.1-26.34-7.31-32-9.34-1.3,6.28-2.45,13.18-3.38,20.53,5,.88,14.91,3.7,26.34,7C78.51,353,86,355.19,91.24,357Z" transform="translate(-40.48 -52.2)"/><path class="cls-7" d="M81.42,511.42A350.77,350.77,0,0,1,117,516.17c13.71,2.41,29.27,5.42,46.51,6.94s36.24.4,56.67-1.63,42.45-4.29,65.56-5.84a1429.76,1429.76,0,0,1,151-2.14c26.77,1,52.89,2.78,78.05,5.12s49.32,5.26,72.32,7.74,44.84,4.53,65.33,5.62a567.2,567.2,0,0,0,57,.4,411,411,0,0,0,46.69-4.93,317.32,317.32,0,0,0,34.6-7.78c13.59-3.88,22.51-7.3,26.5-8.62l-1-3.45c-2.93-9.94-5.62-18.91-7.6-25.79a12.71,12.71,0,0,1-3.37,5c-.17.17-.33.3-.5.45a21.23,21.23,0,0,1-4.76,3.44c-3.74,2.2-9.44,4.14-15.68,5.73-2,.53-3.94,1-5.82,1.47-.87.29-1.73.58-2.63.85l-7.37,2c-2.59.66-5.27,1.49-8.16,2-5.73,1.19-11.95,2.6-18.74,3.5-6.75,1.17-14,1.8-21.76,2.61L708,509.5c-4.08.29-8.28.23-12.59.37a479.1,479.1,0,0,1-56.18-2.79c-20.12-2.09-41.46-5.37-63.76-9.55-44.61-8.27-93-20-144.47-26.32-25.78-3-51.06-4.4-75.36-3.1-24.3,1.09-47.56,5.42-70,8.77-45,7.21-86.33,7-120.54,4.29-22-1.75-41.17-4.49-57.05-7.25q-3.72-.46-7.59-1c-6.85-.91-13.37-1.82-19.27-2.76A130.59,130.59,0,0,1,65.43,467a47.26,47.26,0,0,1-10.2-4l-.44-.3c.36,4.38-1.21,18.51-1.29,35.37-.06,5,0,9.74.12,14.07,1.27-.19,2.93-.43,5-.65A153.56,153.56,0,0,1,81.42,511.42Z" transform="translate(-40.48 -52.2)"/><path class="cls-4" d="M817.69,543" transform="translate(-40.48 -52.2)"/><path class="cls-6" d="M820.27,539.23a30.91,30.91,0,0,0,.8-4.58,40.93,40.93,0,0,0-.88-12.14c-.66-3.34-1.66-6.92-2.76-10.7-1.15.61-2.71,1.41-4.77,2.38a207.19,207.19,0,0,1-21.08,8.3,275.51,275.51,0,0,1-34.72,9.18,383.93,383.93,0,0,1-47.18,6.14,536.54,536.54,0,0,1-57.56.64c-20.67-.84-42.7-2.61-65.77-4.94s-47.22-5.09-72.27-7.28-51-3.92-77.65-4.94c-53.28-2.09-104.13-1.17-150.25,1.53-23.07,1.29-44.91,3.2-65.47,5.09s-40.08,2.69-57.77.71-33.19-5.43-46.8-8.16-25.35-4.89-35-6a214.41,214.41,0,0,0-22.37-1.41c-2.09,0-3.75,0-5,0,.3,10,.84,17.6.49,20.52a14.78,14.78,0,0,0,2.61,3.28c2.67,2.47,6.5,4.4,11.08,6A289.82,289.82,0,0,0,103,551a360,360,0,0,0,47.52,4c17.69.2,37.07-.71,57.88-2.52s42.94-4.54,66.38-7.19,48.12-5.27,73.87-6.12,52.4-.55,79.61.65c54.43,2.44,106,7.36,152.93,9.41,46.91,2.33,89.23,1.27,124.74-.36S770.12,545,790,543.63c9.94-.68,17.7-1.17,22.9-1.4q4.26-.21,6.26-.19a3,3,0,0,0,.64-.94A10.67,10.67,0,0,1,820.27,539.23Z" transform="translate(-40.48 -52.2)"/><path class="cls-6" d="M85.11,228.87c4.47-.84,9.37-1.71,14.58-2.88s10.77-2.36,16.61-3.77c11.67-3,24.34-6.46,37.45-10.86s25.4-9.27,36.42-14q3.5-1.59,6.91-3.06c.76-.46,1.57-.93,2.47-1.44,5.3-3,12.83-6.81,21.07-10.89,8.39-3.86,15.5-8,20.79-10.94l1.29-.72a38.28,38.28,0,0,1,4.51-2.53A95.13,95.13,0,0,1,237.74,157c-.83-1.12-1.63-2.24-2.38-3.37-3.71,2.62-11.06,6.66-19.77,10.76-5.14,2.4-9.89,4.46-13.9,6-5.35,2.42-11.12,4.88-17.44,7.36-10.42,4.06-22,8.19-34.42,11.92s-24.28,6.79-35.18,9.27-20.81,4.33-29.17,5.61c-11.38,1.82-19.85,2.74-24.13,3-.15,2-1.51,6.12-1.8,11.11,0,.29,0,.55,0,.85.21,3.37.91,6.58,1.24,9s.28,4.14-.41,4.39a.8.8,0,0,1-.37-.06.5.5,0,0,1-.13.19c-.32.18-.9-.08-1.58-.74-.21.4-.43.81-.65,1.27C61.35,232.74,71.19,231.38,85.11,228.87Z" transform="translate(-40.48 -52.2)"/><path class="cls-6" d="M113.55,194.3c10.77-2.71,22.55-5.89,34.79-9.58s23.78-7.67,34.21-11.44c6.19-2.26,11.9-4.49,17.19-6.61,3.74-2.1,8.45-4.54,13.63-7a160.21,160.21,0,0,1,20.55-8.3c-1.75-2.77-3.29-5.52-4.64-8.19a99,99,0,0,1-3.88-9.35c-2.88,2.33-14.05,7.55-27.75,12.86-1.21.47-2.39.94-3.56,1.38-13,5.67-28.81,12-46.28,17.79-11.78,3.87-23.2,7-33.68,9.41-5.27,1.06-10.26,2.21-15,2.91l-6.8,1.12-6.34.75c-13.5,1.48-22.74,1.34-25.43.89-.15.78-1.12,2.05-2,4a19.52,19.52,0,0,0-1.69,9.94c.38,4,1.71,7.85,2.49,10.72.11.39.21.76.32,1.1l0-.05c.62-.46,1.08-.57,1.36-.4,4.07-1.09,12.45-2.83,23.78-5.3C93,199.23,102.78,197,113.55,194.3Z" transform="translate(-40.48 -52.2)"/><path class="cls-6" d="M85.49,176.39l6.2-1.07L98.38,174c4.63-.86,9.51-2.15,14.69-3.34,10.28-2.61,21.48-5.87,33.14-9.68,10.3-3.4,20.1-6.92,29.11-10.31,5.17-2.53,12.39-5.63,20.44-8.77,9.19-3.56,17.5-6.4,23.13-7.95l4.24-1.52c.57-.2,1.13-.36,1.59-.55-.19-.6-.42-1.17-.57-1.77a69.47,69.47,0,0,1-3-20,30.51,30.51,0,0,1,.22-4.68c-4.11,1.6-10.17,3.72-17.7,6.51-7.3,2.66-16,6-25.55,9.66s-20.15,7.76-31.41,11.88-22.16,7.54-32.22,10.3c-5.06,1.29-9.84,2.55-14.39,3.41-2.27.45-4.46,1-6.6,1.31l-6.13.92c-13.22,1.85-22.25,1.61-24.8.95-1.08,3.05-3.18,8.12-3.72,14.31-.74,6.82.69,12.62,1.09,15.66a1.05,1.05,0,0,1,.4.07C62.65,179.58,71.89,178.7,85.49,176.39Z" transform="translate(-40.48 -52.2)"/></g><g id="Layer_20" data-name="Layer 20" class="cls-8"><path class="cls-9" d="M42.34,380c1.07,0,1.88,5.11,3.26,13.16l.54,3.15c.19,1.1.43,2.23.65,3.41.41,2.36,1,4.84,1.51,7.47,1.17,5.24,2.59,10.95,4.37,16.87s3.75,11.47,5.65,16.48c1,2.48,1.88,4.9,2.85,7.07.46,1.1.88,2.18,1.33,3.2l1.29,2.94c3.28,7.49,5.41,12.19,4.53,12.74-.41.27-1.51-.54-3.13-2.3-.4-.43-.84-.92-1.3-1.48s-1-1.2-1.4-1.83c-1-1.35-2.14-2.88-3.27-4.63l-1.73-2.8c-.56-.95-1.18-2-1.76-3.12-1.24-2.17-2.39-4.55-3.6-7.08A127.33,127.33,0,0,1,41.7,408.52c-.37-2.77-.73-5.4-.91-7.87-.07-1.26-.2-2.42-.21-3.56l-.08-3.31c-.07-2.11.08-4,.14-5.7,0-.83.09-1.6.15-2.31s.18-1.37.28-2C41.37,381.33,41.83,380.06,42.34,380Z" transform="translate(-40.48 -52.2)"/><path class="cls-9" d="M48.93,440.51c-.08.11-.22.14-.32.23h0a.07.07,0,0,0,0-.06l.06-.09a.78.78,0,0,0,.37.41,1.65,1.65,0,0,0,.42.21l.21.08a2.56,2.56,0,0,0-.47,0l-.21.06h0c.46-.19-1.06.49,1-.45l.1.07.26.25c.37.33.72.73,1.14,1.18a62.6,62.6,0,0,1,9,15.46c.8,2.24,1,3.93.18,4.57s-2.45,0-4.41-1.52a29.83,29.83,0,0,1-9.48-16.31,10.75,10.75,0,0,1-.16-1.7v-.38a1.8,1.8,0,0,0,0-.22,1.84,1.84,0,0,1-.06-.47,2.28,2.28,0,0,1,.32-1.22,2.56,2.56,0,0,1,.69-.74,1.64,1.64,0,0,1,.49-.26,1.09,1.09,0,0,1,.31-.08,1.3,1.3,0,0,1,.34,0,.67.67,0,0,1,.41.28.33.33,0,0,1,.05.27A.45.45,0,0,1,48.93,440.51Z" transform="translate(-40.48 -52.2)"/><path class="cls-9" d="M58.54,456.91c-.83.57-2.29.1-3.94-1.31a20.37,20.37,0,0,1-6.33-14.34c.07-2.13.7-3.53,1.68-3.77s2.16.69,3.31,2.24a33.88,33.88,0,0,1,3.48,6.33,34.25,34.25,0,0,1,2.32,6.84C59.48,454.86,59.42,456.31,58.54,456.91Z" transform="translate(-40.48 -52.2)"/><path class="cls-9" d="M52.71,450.7A3.17,3.17,0,0,1,55.55,452a6.68,6.68,0,0,1,1.07,1.7,10.87,10.87,0,0,1,.62,2c.1.56.11.78,0,.89h0c.51-.37-.68.51-.56.41h0l.06-.08a.37.37,0,0,0-.1.23,2.28,2.28,0,0,0-.1.52,1.41,1.41,0,0,0,.11.61,8.29,8.29,0,0,0,.77,1.24,1.36,1.36,0,0,1-.08,1.55,2.9,2.9,0,0,1-2.42,1,4.67,4.67,0,0,1-1.72-.42,4.1,4.1,0,0,1-.82-.56,5,5,0,0,1-.8-.73,6.88,6.88,0,0,1-1.6-3.28,7.59,7.59,0,0,1-.08-2.47,6.85,6.85,0,0,1,.5-1.94A3.17,3.17,0,0,1,52.71,450.7Z" transform="translate(-40.48 -52.2)"/><path class="cls-9" d="M67.27,233c.79.62.37,2.66-.72,5.41s-2.88,6.39-4.89,10.31a103.23,103.23,0,0,1-5.55,10c-1.68,2.48-3,4-4,3.74s-1.34-2.35-1-5.48a40.08,40.08,0,0,1,11.06-21.49C64.57,233.24,66.48,232.34,67.27,233Z" transform="translate(-40.48 -52.2)"/><path class="cls-9" d="M59.67,235.79c1.75,1,1.43,5-1,8.84s-5.75,6-7.44,4.83-1.13-5,1.15-8.7S57.91,234.81,59.67,235.79Z" transform="translate(-40.48 -52.2)"/><path class="cls-9" d="M61.6,233.1a4,4,0,0,1-.28,1.5,12.23,12.23,0,0,0-.31,1.46,18.47,18.47,0,0,1-1.45,4.28c-1.87,4.07-4.88,6.72-6.74,5.91s-1.84-4.87.07-9c.9-2.09,2.69-4.45,4.93-5.29a3.7,3.7,0,0,1,2.81-.1A1.48,1.48,0,0,1,61.6,233.1Z" transform="translate(-40.48 -52.2)"/><path class="cls-9" d="M64.22,234c1.26,1.59.68,4.18-1.42,5.65s-4.74,1.18-5.78-.55a4.23,4.23,0,0,1,1.55-5.47C60.46,232.24,63,232.35,64.22,234Z" transform="translate(-40.48 -52.2)"/><path class="cls-9" d="M562.14,420.07c.43.29.27,1.39-.2,3.14-.32,1-.69,2.07-1.11,3.07-.22.59-.49,1.21-.79,1.89s-.55,1.37-.82,2.07c-2.42,5.84-5.65,13.87-9.25,22.87s-7.16,17.1-10.13,22.82a58.29,58.29,0,0,1-3.86,6.62,11,11,0,0,1-.87,1.16,2,2,0,0,1-.89.61,1.3,1.3,0,0,1-.62,0,1,1,0,0,1-.69-.47.82.82,0,0,1,0-.89.86.86,0,0,1,.45-.39.42.42,0,0,1,.33,0,.21.21,0,0,1,.1.14.18.18,0,0,1-.1.16l-.11.16,0-.06a.61.61,0,0,0,.28.19c.05,0-.17,0-.25.06h0c0-.43,0-.12,0-.21h0a1.13,1.13,0,0,0-.22-.27.41.41,0,0,0-.11-.07l-.1-.07a3.36,3.36,0,0,1,0-1,60,60,0,0,1,1.67-7.49,241.19,241.19,0,0,1,8.14-23.67,123.86,123.86,0,0,1,11.49-22.57l1.31-1.93a20,20,0,0,1,1.31-1.64,33.32,33.32,0,0,1,2.23-2.51C560.8,420.37,561.72,419.78,562.14,420.07Z" transform="translate(-40.48 -52.2)"/><path class="cls-9" d="M551,334.42c.82.56,1,1.9.53,3.6a15.41,15.41,0,0,1-8.34,9.2c-1.62.62-3,.58-3.63-.18s-.6-2.06,0-3.6a19.93,19.93,0,0,1,7.85-8.66C548.92,334,550.2,333.81,551,334.42Z" transform="translate(-40.48 -52.2)"/><path class="cls-9" d="M546.88,332.27a4.24,4.24,0,1,1-5.34,2.74,5.38,5.38,0,0,1,.2-.51A4,4,0,0,1,546.88,332.27Z" transform="translate(-40.48 -52.2)"/><path class="cls-9" d="M523.5,315.2c.75,1.89-2.76,5-7.82,7s-9.77,2.07-10.5.13,2.76-5.05,7.8-7S522.75,313.29,523.5,315.2Z" transform="translate(-40.48 -52.2)"/><path class="cls-9" d="M521.86,312a3.54,3.54,0,0,1,0,3,6.42,6.42,0,0,1-5.42,3.78,3.56,3.56,0,0,1-2.82-1,3.08,3.08,0,0,1-.61-3,6.38,6.38,0,0,1,6.28-4.38A3.06,3.06,0,0,1,521.86,312Z" transform="translate(-40.48 -52.2)"/><path class="cls-9" d="M523.1,310.85c1.53,1.31,1.31,4.11-.73,6s-4.85,2-6.06.36-.72-4.11,1-5.73S521.56,309.5,523.1,310.85Z" transform="translate(-40.48 -52.2)"/><path class="cls-9" d="M482.81,276.27c.9,1.82-6.41,7.18-16.28,11.92s-18.6,7.12-19.5,5.28,6.41-7.18,16.29-11.91S481.92,274.44,482.81,276.27Z" transform="translate(-40.48 -52.2)"/><path class="cls-9" d="M321.13,108.47c1.07,1.73-5.09,7.51-13.7,12.94s-16.56,8.4-17.62,6.7,5-7.48,13.7-13S320.07,106.73,321.13,108.47Z" transform="translate(-40.48 -52.2)"/><path class="cls-9" d="M282.68,96.51c1.17,1.67-2.55,6.23-7.87,10.71s-10.44,7.32-11.9,5.9,1.56-6.84,7.17-11.53S281.53,94.84,282.68,96.51Z" transform="translate(-40.48 -52.2)"/><path class="cls-9" d="M420.28,465.58c-.29,2.22-32.64-1.94-72.53-.34-39.89,1.34-71.85,7.8-72.31,5.67-.11-.49,1.79-1.41,5.28-2.61.88-.29,1.86-.63,2.95-1s2.27-.64,3.55-1c2.56-.68,5.46-1.45,8.69-2.14l5.11-1.07c1.78-.37,3.65-.67,5.56-1.07,3.86-.72,8-1.28,12.35-1.9,8.72-1.11,18.36-2,28.54-2.4s19.84-.18,28.62.27c4.4.29,8.58.54,12.46,1,1.94.2,3.82.38,5.62.61l5.17.7c3.32.45,6.25,1,8.84,1.47l3.63.71c1.13.22,2.09.48,3,.73C418.38,464.32,420.37,465.1,420.28,465.58Z" transform="translate(-40.48 -52.2)"/><path class="cls-10" d="M369,455.77" transform="translate(-40.48 -52.2)"/><path class="cls-9" d="M450.51,471.8c-.7,1.95-18.27-2.71-40.09-6.9s-39.84-6.47-39.76-8.58c0-1,4.68-1.74,12.15-1.73,3.74,0,8.17.28,13.11.72s10.3,1.27,15.9,2.33,10.89,2.4,15.64,3.77c4.21,1.2,8.35,2.62,12.42,4.23C446.82,468.44,450.83,470.86,450.51,471.8Z" transform="translate(-40.48 -52.2)"/><path class="cls-9" d="M330.67,466.07c-.26-1,2.51-2.68,7.29-4.48A109.3,109.3,0,0,1,377,455.45c5.1.24,8.27,1,8.31,2,.08,2.07-12.11,4.19-27,6.55S331.23,468.07,330.67,466.07Z" transform="translate(-40.48 -52.2)"/><path class="cls-9" d="M321,465.15c-.29-.4.23-1.42,1.7-2.71a22.94,22.94,0,0,1,7.08-4,60,60,0,0,1,11.37-2.74c4.22-.69,8.91-1.27,13.84-1.63a141.33,141.33,0,0,1,25.36.27c1.61.2,3.07.38,4.34.61l.93.18c.33.05.65.13,1,.2a9.55,9.55,0,0,1,1.71.65,4.91,4.91,0,0,1,1.29,1,2.54,2.54,0,0,1,.53,1c.15.62,0,1-.25,1.15s-.47,0-.85-.16a2.42,2.42,0,0,0-.7-.19c-.28,0-.57,0-.86,0s-.76.06-1.26.08l-1.65.25c-1.31.14-2.72.32-4.3.46-6.37.61-15.12,1.18-24.74,1.87l-13.59,1c-4.2.3-7.83.58-10.84,1a69.39,69.39,0,0,0-7,1.46C322.39,465.35,321.32,465.57,321,465.15Z" transform="translate(-40.48 -52.2)"/><path class="cls-9" d="M294.21,473.65c-.33-.38,0-1.32,1-2.69a18.83,18.83,0,0,1,2-2.24,17.17,17.17,0,0,1,1.43-1.26c.5-.4,1.06-.89,1.66-1.3a45.23,45.23,0,0,1,9.2-5,70,70,0,0,1,12.11-3.62A107.72,107.72,0,0,1,334,455.79a95.33,95.33,0,0,1,10-.48,29.94,29.94,0,0,1,6.94.69c1.64.39,2.5.92,2.49,1.43-.06,1-3.45,1.77-8.85,3.06-2.68.6-6,1.35-9.68,2.05s-7.61,1.41-11.72,2.26-7.93,1.76-11.34,2.78a94.15,94.15,0,0,0-8.91,3.14C298,472.73,295,474.46,294.21,473.65Z" transform="translate(-40.48 -52.2)"/><path class="cls-9" d="M278.7,474.67c-.24,0-.47-.32-.51-.83a3.09,3.09,0,0,1,.81-2.08,8.4,8.4,0,0,1,2.47-2c.51-.27,1-.53,1.47-.75l1.61-.77a150.88,150.88,0,0,1,18.07-6.63c3.59-1.07,7-2.06,10.33-2.76a37.7,37.7,0,0,1,9.16-1,17.27,17.27,0,0,1,6.23,1.18,5.11,5.11,0,0,1,1.53.93c.32.31.47.6.4.84-.26,1-3.24,1.11-7.65,2.23q-3.36.84-7.82,2.39c-3,1-6.34,2.22-10,3.29A152.74,152.74,0,0,1,286,473.34l-1.75.26-1.52.18a19.84,19.84,0,0,0-2,.29,5.83,5.83,0,0,0-1.2.4A1.58,1.58,0,0,1,278.7,474.67Z" transform="translate(-40.48 -52.2)"/><path class="cls-9" d="M348.72,213.17c.37.37,0,1.36-1,2.92l-.86,1.26a12.32,12.32,0,0,1-1.14,1.35,34,34,0,0,1-3,3.13c-.6.54-1.21,1.12-1.87,1.7s-1.36,1.13-2.1,1.72c-1.46,1.21-3.12,2.34-4.84,3.57A102.66,102.66,0,0,1,322,235.53a126.58,126.58,0,0,1-23.15,8.25c-6.09,1.48-10,1.85-10.34.89s3-3.1,8.58-5.81,13.38-6.07,21.71-10c4.18-2,8.08-4,11.59-5.87,1.73-1,3.41-1.86,4.94-2.8l2.22-1.28c.69-.41,1.38-.82,2.05-1.25C344.67,214.47,348,212.41,348.72,213.17Z" transform="translate(-40.48 -52.2)"/><path class="cls-9" d="M305.55,233c1,1.76-1.69,5.21-6,7.69s-8.7,3.07-9.72,1.31,1.69-5.21,6-7.69S304.54,231.23,305.55,233Z" transform="translate(-40.48 -52.2)"/><path class="cls-9" d="M345.23,209.41c1.16,1.66-7,9.27-18.58,16.48s-22,11.28-23,9.51,7.65-8.63,19-15.76S344.08,207.72,345.23,209.41Z" transform="translate(-40.48 -52.2)"/><path class="cls-9" d="M343.4,210.89a.74.74,0,0,1-.06-.36.57.57,0,0,1,.28-.42,1.07,1.07,0,0,1,1,.08,2.24,2.24,0,0,1,.76.8,3.19,3.19,0,0,1,.42,2,3,3,0,0,1-.52,1.4c-.08.22-.18.46-.28.69a20.33,20.33,0,0,1-11.86,10.08c-2,.54-3.56.35-4.05-.52s0-2.26,1.19-3.82a32.54,32.54,0,0,1,5-5.13,33.05,33.05,0,0,1,5.89-4.14l.63-.31h0l.89.82-.4-.27a2.37,2.37,0,0,0-.36-.17l.09.06h.37a4.1,4.1,0,0,0,.49-.06,1.24,1.24,0,0,0,.62-.24l0-.05h0a0,0,0,0,0,0,.05s0,0,0,.12l-.06-.14A.85.85,0,0,0,343.4,210.89Z" transform="translate(-40.48 -52.2)"/><path class="cls-9" d="M346.93,206.49c1.73,1,1.72,4.34-.13,7.33s-4.68,4.6-6.42,3.54-1.7-4.34.13-7.33S345.2,205.43,346.93,206.49Z" transform="translate(-40.48 -52.2)"/><path class="cls-9" d="M322.77,227.45c.69,1.93-6,6.13-14.6,10.31s-16,6.72-17.11,5c-.53-.88.7-2.69,3.2-4.86A55.1,55.1,0,0,1,317,226.94C320.23,226.33,322.4,226.5,322.77,227.45Z" transform="translate(-40.48 -52.2)"/><path class="cls-9" d="M381.29,231.68c-.05,2-2.45,3.61-5.31,3.55s-5.19-1.75-5.12-3.82,2.45-3.61,5.31-3.55S381.36,229.65,381.29,231.68Z" transform="translate(-40.48 -52.2)"/><path class="cls-9" d="M370,226.84a4.18,4.18,0,1,1,2.24,5.47,4.39,4.39,0,0,1-.44-.21A4,4,0,0,1,370,226.84Z" transform="translate(-40.48 -52.2)"/><path class="cls-9" d="M372.77,224.65a3.63,3.63,0,0,1,2.54-1.37,4.93,4.93,0,0,1,5,2.93,3.67,3.67,0,0,1,.06,2.89,3.16,3.16,0,0,1-2.31,1.82,5.2,5.2,0,0,1-5.78-3.38A3.17,3.17,0,0,1,372.77,224.65Z" transform="translate(-40.48 -52.2)"/><path class="cls-9" d="M370.11,223.73c1.13-1.66,4.35-1.45,7.13.43s4,4.82,2.84,6.5-4.39,1.47-7.14-.4S368.89,225.35,370.11,223.73Z" transform="translate(-40.48 -52.2)"/><path class="cls-9" d="M419.71,252.77c-.67,2-5.41,2.1-10.64.37s-8.95-4.7-8.31-6.64,5.4-2.1,10.63-.37S420.34,250.84,419.71,252.77Z" transform="translate(-40.48 -52.2)"/><path class="cls-9" d="M416.44,248.86a3.52,3.52,0,0,1-3,1.1,12.39,12.39,0,0,1-7.62-3.41,3.54,3.54,0,0,1-1.19-2.94,3,3,0,0,1,2.51-2.11,9.13,9.13,0,0,1,9.14,4.06A3,3,0,0,1,416.44,248.86Z" transform="translate(-40.48 -52.2)"/><path class="cls-9" d="M416.17,247.27c-.77,1.89-4.08,2.33-7.42,1s-5.43-4-4.66-5.86,4.08-2.34,7.42-1S416.93,245.38,416.17,247.27Z" transform="translate(-40.48 -52.2)"/><path class="cls-9" d="M417.36,251.39c-.27,1-1.44,1.65-3.25,1.8a14.23,14.23,0,0,1-6.58-1.3,16.26,16.26,0,0,1-3.17-1.86,15.74,15.74,0,0,1-1.24-1.06,4.25,4.25,0,0,1-.39-.35l-.39-.4a6.68,6.68,0,0,1-.63-.85c-.16-.28-.3-.57-.43-.86a3.32,3.32,0,0,1-.21-.88,2.18,2.18,0,0,1,.24-1.37,2.21,2.21,0,0,1,1.68-1,1.91,1.91,0,0,1,1.05.24,2.48,2.48,0,0,0,.66.18.58.58,0,0,0,.32,0l.33,0h.36l.16,0s0-.06.21,0c.44.1.91.23,1.4.37a24.64,24.64,0,0,1,3,1.16,20.75,20.75,0,0,1,5.16,3.08C416.9,249.27,417.61,250.4,417.36,251.39Z" transform="translate(-40.48 -52.2)"/><path class="cls-9" d="M419.54,249.26c-1,1.76-3.44,2.33-5.59,1.38s-3.4-3.12-2.72-5,3.26-2.78,5.72-1.69S420.52,247.48,419.54,249.26Z" transform="translate(-40.48 -52.2)"/><path class="cls-9" d="M419,250.07c-.46.89-1.81,1.26-3.64,1a16.8,16.8,0,0,1-11-7.65c-.88-1.62-1-3-.34-3.74s2.05-.74,3.67-.25a21.6,21.6,0,0,1,5.55,2.9,22.38,22.38,0,0,1,4.66,4.19C419,247.89,419.47,249.17,419,250.07Z" transform="translate(-40.48 -52.2)"/><path class="cls-9" d="M489.25,360.27c1,0,1.8,6.42,1.88,16.83,0,5.17-.17,11.36-.63,18.21s-1.26,14.34-2.33,22.18-2.44,15.26-3.88,21.95-3,12.69-4.43,17.67c-2.92,10-5.49,15.88-6.44,15.64-2-.55,3.18-25.4,7.44-56.32S487.14,360.23,489.25,360.27Z" transform="translate(-40.48 -52.2)"/></g><g id="Layer_19" data-name="Layer 19" class="cls-11"><path d="M208.2,100.8c.17,0,.36,0,.51,0a.44.44,0,0,0,.17-.16.16.16,0,0,1,.32,0,.15.15,0,0,1-.12.17h0a.85.85,0,0,0-.22.09l-.06.09a.55.55,0,0,0,.07-.25c0-.1,0-.16,0-.09l.76,1-.41.3c-3.77,2.71-11.28,6.62-20.15,10.31-13.39,5.49-24.82,8.45-25.6,6.57s9.43-7.88,22.78-13.4c8.89-3.64,16.93-6.2,21.59-6.91l-.49.31a2.39,2.39,0,0,1,3.8,1.8,1.83,1.83,0,0,1-1,1.72,1.71,1.71,0,0,1-1.24,0,1.26,1.26,0,0,1-.93-1C207.83,100.92,208,100.8,208.2,100.8Z" transform="translate(-40.48 -52.2)"/><path d="M218.58,93.05c.71.74.48,2.23-.54,4a21.24,21.24,0,0,1-12.36,9.06c-2.05.43-3.53.19-4-.69s.09-2.26,1.34-3.77a35.37,35.37,0,0,1,11.57-8.52C216.39,92.49,217.86,92.34,218.58,93.05Z" transform="translate(-40.48 -52.2)"/><path d="M213.91,101.42c.91,1.83-.71,4.5-3.64,6s-6.06,1.16-7-.63.71-4.49,3.65-6S213,99.6,213.91,101.42Z" transform="translate(-40.48 -52.2)"/><path d="M209.53,100.62a3.6,3.6,0,0,1,0,3,7.22,7.22,0,0,1-5.47,4.18,3.55,3.55,0,0,1-2.92-.77,3,3,0,0,1-.72-3,6.82,6.82,0,0,1,6.42-4.88A3,3,0,0,1,209.53,100.62Z" transform="translate(-40.48 -52.2)"/><path d="M232.35,77c.67.79.23,2.34-.9,4.23A44.11,44.11,0,0,1,220,93.13c-1.84,1.17-3.4,1.69-4.22,1.05s-.72-2.24.21-4.39A27.4,27.4,0,0,1,228,77.4C230.06,76.39,231.71,76.23,232.35,77Z" transform="translate(-40.48 -52.2)"/><path d="M224.54,82.36c1.58,1.24,0,6-3.63,10.71s-7.87,7.45-9.47,6.21,0-6,3.63-10.71S222.94,81.12,224.54,82.36Z" transform="translate(-40.48 -52.2)"/></g><g id="Layer_10_copy" data-name="Layer 10 copy"><path class="cls-12" d="M287.67,102.28a190.83,190.83,0,0,1-19.14,11.1,108.72,108.72,0,0,1,23.06,15.18,145.47,145.47,0,0,1,12.89-9.18c6.83-4.39,13.07-7.77,16.76-9.18-.65-1.65-1.19-3.08-1.62-4.34-2.43-4.48-5.19-9.17-8.31-14-1.06-1.6-2.1-3.18-3.16-4.72C305.21,90.15,297.31,96.05,287.67,102.28Z" transform="translate(-40.48 -52.2)"/><path class="cls-12" d="M365.61,138.64c1.48,3.41,3.1,7.57,4.85,12.18.45,1.12.9,2.49,1.32,3.4a2,2,0,0,0,1.33,1.34,7,7,0,0,0,2.87.27,9.17,9.17,0,0,0,3.11-.89,8.85,8.85,0,0,0,4.36-4.44,6.19,6.19,0,0,0,.41-2.73,12.74,12.74,0,0,0-.7-3.05c-.75-2.08-1.78-4.39-2.48-6.52s-1.33-4.15-1.76-6l-.18-.83a20.08,20.08,0,0,1-1-2.22,20.71,20.71,0,0,1-1.14-3,19.9,19.9,0,0,1-.78-4c-2.78,1.42-5.57,2.87-8.52,4.27l-6,2.9A81.91,81.91,0,0,1,365.61,138.64Z" transform="translate(-40.48 -52.2)"/><path class="cls-12" d="M377.39,121.26l.07,0v-.12A.08.08,0,0,1,377.39,121.26Z" transform="translate(-40.48 -52.2)"/><path class="cls-12" d="M352.14,207.48c-.35,2.3-.75,4.53-1.09,6.76L349,227.06l-1,6a40.41,40.41,0,0,0-.6,5.15A12.81,12.81,0,0,0,350,244.6c1.67,2,4.6,3.22,8,3.43a16.3,16.3,0,0,0,2.42,0c.7-.09.9-.19,1-.32.45-.27.92-1.88,1.31-3.57.82-3.29,1.64-6.24,2.39-8.72a55.22,55.22,0,0,1,2.06-5.74c.61-6.09,1.21-13.44,1.26-21.29A6.19,6.19,0,0,0,367,204a10,10,0,0,0-4.47-2.67,28.75,28.75,0,0,0-6.15-1.28,6.09,6.09,0,0,0-2.33,0,1.6,1.6,0,0,0-.86,1A56.52,56.52,0,0,0,352.14,207.48Z" transform="translate(-40.48 -52.2)"/><path class="cls-12" d="M524.35,316.89c-1.55,3.58-3,7.05-4.23,10.42s-2.39,6.62-3.34,9.59a2.93,2.93,0,0,0-.21,1.2,2.16,2.16,0,0,0,.65,1,31.78,31.78,0,0,0,3,2.63,43.45,43.45,0,0,0,11,5.94l1.93.72a9,9,0,0,0,4.12-3.25,9.19,9.19,0,0,0,.59-1c1-2.82,2.35-6.57,3.64-11.21.71-2.59,1.4-5.46,2-8.57s1.31-6.62.57-9.16-3.23-4.69-6.52-6.29a51,51,0,0,0-5.29-2.22,6,6,0,0,0-2-.54c-.25,0-.44.09-.88.54-.8.86-1.69,3-2.57,4.79S525.14,315.1,524.35,316.89Z" transform="translate(-40.48 -52.2)"/><path class="cls-12" d="M492.75,323.23a7.4,7.4,0,0,0,6.34.79c.59-.38,1.24-.78,1.94-1.2,1.73-1.25,3.88-2.64,6.19-4.2l.07-.1c1.49-1.63,3.36-3.59,5.55-5.82l5.15-5.13c1.68-1.75,4.56-4.08,4.54-5.08a2,2,0,0,0-.83-1.78,5.78,5.78,0,0,0-2.85-1.36,7.2,7.2,0,0,0-3.5.46,16.46,16.46,0,0,0-3.79,2c-2.55,1.79-5.24,4-7.67,5.88a80.18,80.18,0,0,0-6.76,5.86c-1,1-1.95,2-2.8,2.93a19,19,0,0,0-2.14,2.84C491.24,321.29,491.45,322.17,492.75,323.23Z" transform="translate(-40.48 -52.2)"/><path class="cls-12" d="M521.73,310.16l-.77.68-2.87,2.45c.06.8-4.06,4.78-10,8.4-1.45.9-2.95,1.73-4.48,2.48-.37.31-.8.66-1.3,1a13.72,13.72,0,0,1-4.45,2.12,10.65,10.65,0,0,1-1.58.27c0,.91,0,2,0,3.28,0,3.76.18,9.06,0,15-.18,4.95-.54,9.48-1,13.09-.44,11.34-1.38,24.94-3,39.53-2.19,19.58-5.19,37.18-7.86,49.81q-.66,3.09-1.29,5.77l-.19,1.41a54.38,54.38,0,0,1-1.19,5.81c-.06.27-.14.53-.21.79-.09.68-.2,1.35-.35,2.08a23.11,23.11,0,0,1-2.3,6.45q14.52,2.6,28.54,5.51c7.7,1.59,15.32,3.14,22.85,4.71a142.07,142.07,0,0,1,6.77-23c1.32-3.5,2.69-6.74,4.06-9.73,1.11-2.65,2.43-5.37,3.64-8.19a185.43,185.43,0,0,1,14.69-24.72,179.55,179.55,0,0,1,18.51-22q2.39-2.31,4.62-4.51c1.36-1.28,2.74-2.45,4.06-3.61l3.35-3.17c9.08-8.2,17.75-14.23,22.47-16.75-2.66-1.19-5.5-2.59-8.32-4.15-9.94-5.53-17.53-11.71-20.58-15.15,0,.44-.08.88-.16,1.3a49.09,49.09,0,0,1-3.16,10.48c-1.17,3-2.36,5.88-3.48,8.45a85.43,85.43,0,0,1-6,11.57,10.42,10.42,0,0,1-.92,1.79,6.89,6.89,0,0,1-1.13,1.16c-.64.78-1.11,1.19-1.28,1.09a.67.67,0,0,1-.08-.23,7.34,7.34,0,0,1-.82.32l-.36.1-.46.08a.77.77,0,0,1-.26,0,5.37,5.37,0,0,1-.7,0l-.36,0a13.85,13.85,0,0,1-6.3-1.8,13,13,0,0,1-4.82-4.47,8.51,8.51,0,0,1-.62-1.29,13.16,13.16,0,0,1-.91-1.42,9.24,9.24,0,0,1-1.11-5.26,23.67,23.67,0,0,1,1.22-5l3.21-9.9c1.15-3.48,2.36-7.17,3.61-10.94l.51-1.53a26,26,0,0,1-12.69-8.29,3.19,3.19,0,0,1-.57-.46c-.28.83-.55,1.67-.82,2.44-4,10.59-8.3,16.12-8.83,15.76a.26.26,0,0,1-.09-.16,8.64,8.64,0,0,1-3.7,1.7,9.5,9.5,0,0,1-7.12-1.48,20.82,20.82,0,0,1-5.94-2.88,18.92,18.92,0,0,1-5.63-5.71,5.63,5.63,0,0,1-1.18-2,6.52,6.52,0,0,1,0-3.48c.83-3.25,1.81-6.56,3-10.07s2.53-7.11,4.07-10.82C520.29,313.32,521,311.76,521.73,310.16Z" transform="translate(-40.48 -52.2)"/><path class="cls-12" d="M434.53,278.41a11.86,11.86,0,0,0,1.33,7,42.45,42.45,0,0,0,3.05,5.27,7.31,7.31,0,0,0,2.34,2.66,4.06,4.06,0,0,0,.94.39c.84-.64,2-1.46,3.26-2.3,2.33-1.52,4.32-2.81,5.25-2.86,2.1-1.45,4.57-3,7.4-4.74l8.69-5.15a86.45,86.45,0,0,0,9.43-6.07,15.58,15.58,0,0,0,3.57-4,8.07,8.07,0,0,0,1.11-4.75,4.91,4.91,0,0,0-2.2-3.72,9.3,9.3,0,0,0-5.15-1.31c-3.91,0-8,1.93-12.22,3.52L449.38,267a44.26,44.26,0,0,0-9.9,4.76C436.78,273.68,435,275.93,434.53,278.41Z" transform="translate(-40.48 -52.2)"/><path class="cls-12" d="M471.37,306.28a8.44,8.44,0,0,0-.44,4.53,6.06,6.06,0,0,0,2.32,3.33c2.4,1.82,5.64,2.74,8.54,3.45a24.49,24.49,0,0,0,4,.75,3.06,3.06,0,0,0,2.48-.9,2.76,2.76,0,0,1,.3-.29,22.3,22.3,0,0,1,2.3-3.4l.26-.38c.85-3.3,2.3-8.74,3.7-15.82.56-3,1.07-6.31,1.48-9.87.2-1.77.36-3.61.5-5.51a17.14,17.14,0,0,0-.35-5.2,5,5,0,0,0-2.2-3.44,4.78,4.78,0,0,0-4.08.19,13.27,13.27,0,0,0-4.42,3.49,28.27,28.27,0,0,0-3.58,5.29A233.14,233.14,0,0,0,471.37,306.28Z" transform="translate(-40.48 -52.2)"/><path class="cls-12" d="M389.43,114.88c-3.44,1.89-7.1,3.82-10.9,5.79.74,1.5,1.88,5.21,3.77,10.17a55.09,55.09,0,0,1,7.39-4.42c5.78-3,13.69-6.08,22.52-9.32,0,0,.12-.06.16-.09,2.2-.92,4.55-2,7-3a2.62,2.62,0,0,1-.54-1l-.29-.74a11.43,11.43,0,0,0-3.19-2.93,13.13,13.13,0,0,0-6.75-2,21.19,21.19,0,0,0-6.18.94,33.89,33.89,0,0,0-3.51,1.49C396,111.17,392.81,113.05,389.43,114.88Z" transform="translate(-40.48 -52.2)"/><path class="cls-12" d="M321.82,225.3c-2,1.28-4.19,2.61-6.5,3.87A97.37,97.37,0,0,1,294.2,238a23.83,23.83,0,0,1-4.46,1.25c.08,8.12.06,14.64-.08,19.07h0c0,1.33-.09,2.47-.15,3.41.16.29.31.39.92.62a12,12,0,0,0,2.81.29c2.37.07,4.91.21,7.6.44q8.67.73,17.25,2.33a163.7,163.7,0,0,1,27,7.46c4.45,1.27,9,2.71,13.8,4.44,3.23,1.23,6.57,2.35,9.89,3.81l5,2.13,5.06,2.37c3.44,1.55,6.76,3.48,10.21,5.26,3.32,2,6.8,3.92,10.08,6.21a152.09,152.09,0,0,1,18.46,14.32c5.56,5.11,10.49,10.32,15.33,15.05A130.69,130.69,0,0,0,461.19,348a153.18,153.18,0,0,0,22,10.13c3.71,1.38,6.27,2.28,7.5,2.83l.34-3.88c-.16-3.34-.15-7.26,0-11.48a86.16,86.16,0,0,1,1.57-15.27,22.53,22.53,0,0,1,.91-3,9.53,9.53,0,0,1-2.74-1,6.47,6.47,0,0,1-3.06-3.73,5.2,5.2,0,0,1-.21-1.35,7.53,7.53,0,0,1-1.69.32,24.62,24.62,0,0,1-4.77-.44c-3.13-.55-6.72-1.17-10.32-3.54A10.34,10.34,0,0,1,466.5,312a12.74,12.74,0,0,1,.29-7.21c.67-2.18,1.45-4.07,2.22-6.1s1.63-4.06,2.52-6.12c1.81-4.15,3.73-8.35,6-12.63a35.94,35.94,0,0,1,2.83-4.48l-1.12.92a81.79,81.79,0,0,1-10.28,6.1l-9,4.59c-3.39,1.67-6.33,3.22-8.8,4.57a18,18,0,0,1-3,2.35,15.11,15.11,0,0,1-3.69,1.88l-.36.24a5.76,5.76,0,0,1-3.65.52,7.37,7.37,0,0,1-3.87-2.25c-2.08-2.29-2.73-4.78-3.44-6.27s-1.2-2.46-.95-2.73c0-.06.16-.06.27-.05a13.15,13.15,0,0,1-1.56-7.35,11.6,11.6,0,0,1,.19-1.18,18.69,18.69,0,0,1-6.16,1,17.1,17.1,0,0,1-5.07-.89,9.93,9.93,0,0,1-5.08-3.52,9.25,9.25,0,0,1-1.15-6.68c.29-2,.73-3.74,1.11-5.67.79-3.76,1.61-7.72,2.49-11.82l.43-1.92a23.75,23.75,0,0,1-6.6-3.11,26.08,26.08,0,0,1-4.9-4,57.31,57.31,0,0,1-3.75,5.28,34.18,34.18,0,0,1-3.81,6.57,28.87,28.87,0,0,1-2.64,3.57,8.7,8.7,0,0,1-2.46,1.85,7.94,7.94,0,0,1-3.38.79,23.54,23.54,0,0,1-5.9-.9,21.79,21.79,0,0,1-5.93-2.45,14,14,0,0,1-3.11-2.53,8.78,8.78,0,0,1-2.61-3.64,8.07,8.07,0,0,1-.5-1.87,10.55,10.55,0,0,1-.26-3.41,12.63,12.63,0,0,1,2-5.42,32.9,32.9,0,0,1,2.64-3.57,8.09,8.09,0,0,1,.73-.81l.95-1.4c.87-1.29,1.7-2.67,2.54-4.06a28.21,28.21,0,0,1-5.42-2.69,35.52,35.52,0,0,1-3.26-2.31c-.35,2.56-.74,5-1.15,7.3a126.54,126.54,0,0,1-3.16,13.33c-.07.43-.15.85-.22,1.28-.15.83-.26,1.7-.55,2.76a7.78,7.78,0,0,1-1.87,3.48,6.76,6.76,0,0,1-4,1.83,18.17,18.17,0,0,1-3.38.05c-4.4-.23-8.92-2.18-11.43-5.68l-.26-.41a10.93,10.93,0,0,1-1.72-2.81,16.16,16.16,0,0,1-1.16-6,40.18,40.18,0,0,1,.44-6c.24-1.94.51-3.95.77-6,.57-4.11,1.16-8.41,1.76-12.86l1-6.8c0-.21.07-.44.09-.66-1.59,1.7-3.14,3.27-4.78,4.75A102.65,102.65,0,0,1,331,219.71Q326.29,222.78,321.82,225.3Z" transform="translate(-40.48 -52.2)"/><path class="cls-12" d="M382.14,235c-2.2,3.26-4.48,5.95-5.43,8.61a2.07,2.07,0,0,0,0,.22c-.05,2.29,1.62,5,4.36,6.65a19.67,19.67,0,0,0,4.57,2,24.48,24.48,0,0,0,4.53,1,3.54,3.54,0,0,0,1.08-.08,9.16,9.16,0,0,0,1.73-.9c.66-.59,1.3-1.22,1.9-1.87a17.6,17.6,0,0,1,1.5-1.94c.25-.29.5-.56.77-.82a74.54,74.54,0,0,0,6.18-10.06,46.18,46.18,0,0,0,3.39-8.57,20.76,20.76,0,0,0,.54-9.84,14,14,0,0,0-5.45-8.53,6.27,6.27,0,0,0-4.16-1.23,2.12,2.12,0,0,0-1.31.76,10.47,10.47,0,0,0-1.31,2.27A148.75,148.75,0,0,1,382.14,235Z" transform="translate(-40.48 -52.2)"/><path class="cls-12" d="M422.16,250.32l-2.8,11.76c-.42,1.83-1,3.78-1.22,5.36a5.32,5.32,0,0,0,.22,3.56,6,6,0,0,0,2.89,2.13,14.14,14.14,0,0,0,3.84,1,16.6,16.6,0,0,0,7-.85l.45-.19c.16-.05.19-.27.28-.41a17.94,17.94,0,0,1,4.09-4.25c.26-.19.53-.36.8-.56a56.66,56.66,0,0,0,4.21-13.9c.52-2.79.92-5.9,1.26-9.24s.35-6.78-1.14-9.23a6.06,6.06,0,0,0-3.17-2.66,9,9,0,0,0-4.72-.33c-3.24.57-6.24,3-8.16,6.4S423.18,246.19,422.16,250.32Z" transform="translate(-40.48 -52.2)"/><path class="cls-12" d="M807.92,480.31c.05-.07.16-.09.24-.13l-.1-.29A.91.91,0,0,1,807.92,480.31Z" transform="translate(-40.48 -52.2)"/><path class="cls-12" d="M805.64,479l0-.06a.35.35,0,0,0,.1-.28h0c0,.14-.07.25-.11.39S805.63,479,805.64,479Z" transform="translate(-40.48 -52.2)"/><path class="cls-12" d="M816.8,543.2l.05-.07-.29,0Z" transform="translate(-40.48 -52.2)"/><path class="cls-12" d="M817.69,543" transform="translate(-40.48 -52.2)"/><path class="cls-12" d="M240.28,290.06c6.95-4.3,13.46-8.64,19.41-12.59s11.24-7.52,15.43-10.76A71.3,71.3,0,0,0,286.2,256.1l0-.24h0c.11-1.2.21-2.27.36-3.2a21.14,21.14,0,0,1,.4-2.36c-.3-3.62-.62-7.83-.94-12.55L285.16,224c-.07-1.19-.11-2.42-.22-3.66-7.12,6-29.2,22.06-52.63,44.17-25.15,23.44-43.13,46-48.37,51,1.45-.16,2.82-.37,4.09-.6,2.14-1,7.69-2.69,15.2-5.69A242.06,242.06,0,0,0,240.28,290.06Z" transform="translate(-40.48 -52.2)"/><path class="cls-12" d="M615.58,366.49l-.8-.33c-3.17,3.55-11.64,10.86-21.29,19.61-5,4.51-9.58,8.8-13.43,12.21a207.51,207.51,0,0,0-16.42,20.16l-1.37,2c.6,1.61,1.59,4.14,2.93,7.5a41.79,41.79,0,0,0,5.62,10,24.29,24.29,0,0,0,11.87,8.16,17,17,0,0,0,8.09.43,18.56,18.56,0,0,0,8-3.74,31.07,31.07,0,0,0,6.62-7.25c1-1.43,1.77-2.91,2.87-4.66a13.14,13.14,0,0,1,4.84-4.81,15,15,0,0,1,6.71-1.49c2.16-.05,4.09.09,6.15.18,4.07.18,8.22.57,12.41,1,8.4,1,17,2.49,25.72,4.31,17.43,3.68,33.71,8.09,48.65,11.22a262.71,262.71,0,0,0,40,5.66c19.82,1,33-2,36.32-2.21a74.16,74.16,0,0,0-6.57-4.85,133.56,133.56,0,0,0-21-10.75L710.84,407.8l-50.63-21.41c-15.51-6.68-29.56-12.55-41.11-18.19Z" transform="translate(-40.48 -52.2)"/><path class="cls-12" d="M564.44,340.69c-.34,1-.69,1.95-1,2.83q-2.06,5.64-3.9,10.84c-1.29,3.43-2.5,6.7-3.64,9.77a22.39,22.39,0,0,0-1.32,4.06,5.75,5.75,0,0,0,.45,3.22,11.44,11.44,0,0,0,4.28,4.76,29.56,29.56,0,0,0,4.8,2.42l1.85.75a5,5,0,0,0,1.67-1.45c1-1.48,1.64-3.47,2.57-4.75h0c.89-2.37,1.93-5.21,3-8.47q1.31-3.94,2.86-8.6a48.72,48.72,0,0,0,2.52-9.59,13.72,13.72,0,0,0-.18-4.78,10.14,10.14,0,0,0-2-4.21,8.53,8.53,0,0,0-1.68-1.55,6.73,6.73,0,0,0-2-.92,7.64,7.64,0,0,0-4.54.09,4.52,4.52,0,0,0-2.81,2.85C565.16,338.77,564.77,339.77,564.44,340.69Z" transform="translate(-40.48 -52.2)"/><path class="cls-12" d="M787.47,445.66a65.15,65.15,0,0,1-7.26,2,122.69,122.69,0,0,1-27.63,2.62c-11.75-.07-25.66-1.69-40.82-4.63s-31.54-7.22-48.78-10.85c-8.63-1.8-17.08-3.32-25.26-4.35-4.07-.46-8.13-.89-12.06-1.15s-8-.68-10.35.62-3.87,4.62-6.17,7.8a35.28,35.28,0,0,1-7.79,8.11,22.68,22.68,0,0,1-9.9,4.24,20.67,20.67,0,0,1-9.9-.87,26.73,26.73,0,0,1-13.1-9.94,39.33,39.33,0,0,1-5.21-11,69,69,0,0,1-1.76-7.11A224.59,224.59,0,0,0,549,441.91c-.6,1.26-1.21,2.48-1.81,3.68-1.58,4.12-3.39,8.89-5.32,14-3.32,8.78-6.25,16.65-8.4,21.86,14.82,3.09,29.34,6.17,43.35,8.91,22.12,4.35,43.24,7.84,63.17,10.18a503.55,503.55,0,0,0,55.44,3.75c4.25,0,8.39.09,12.43-.09l11.81-.46c7.65-.59,14.83-1,21.52-2,6.72-.71,12.87-1.87,18.58-2.83,2.86-.41,5.51-1.09,8.15-1.65s5-1.1,7.34-1.62c4.61-1.18,8.64-2.39,12.21-3.31l2.56-.68.13-.05c1-.67,3.67-1.61,6.39-3.33a45.08,45.08,0,0,0,5.16-3.87,29.37,29.37,0,0,0,1.42-3.87,28.45,28.45,0,0,0,.47-12.35,36.75,36.75,0,0,0-6.27-15.12,44.34,44.34,0,0,0-7.69-8.27A18.15,18.15,0,0,1,787.47,445.66Z" transform="translate(-40.48 -52.2)"/><path class="cls-12" d="M179.5,315.88c1.09-.06,2.13-.15,3.17-.27,1-2.25,5-8.47,11.48-16.95,4-5.25,9-11.27,14.79-17.76s12.54-13.33,19.86-20.23a333.8,333.8,0,0,1,40.05-32.27,155.66,155.66,0,0,1,16-9.8c-.17-3.32-.41-6.74-.89-10.19-.73-5.32-2.22-10.68-5.4-15.19s-8.07-8.1-13.36-11.61-10.78-7.12-15.35-11.34c-.35-.31-.66-.64-1-.94a52.32,52.32,0,0,1-5.41,4.79A106,106,0,0,1,223,186.65q-5,2.49-9.61,4.52-2.81,1.46-5.68,3c-4.76,2.58-10,5-15.48,7.63-11.07,5-23.48,10-36.73,14.54a391.28,391.28,0,0,1-38,10.62c-5.93,1.25-11.58,2.48-16.91,3.34S90.28,232,85.75,232.59c-14.82,1.88-25.1,2.26-28.44,2-.38.79-.76,1.63-1.12,2.57a47.1,47.1,0,0,0-2.67,10.11,74.74,74.74,0,0,0-.62,12.95c0,1.32.11,2.58.18,3.87.52,6.07,1.47,11.54,2.11,15.86.43,2.92.76,5.34.89,7.05l.18.12h0c.68-1.43,30.73,14.37,71.19,23C147.57,314.19,166.21,316.81,179.5,315.88Z" transform="translate(-40.48 -52.2)"/><path class="cls-12" d="M334.86,193c-2.09.93-4.17,1.88-6.18,2.84-3.34,1.57-6.47,3.16-9.45,4.73-3.34,2.07-7.8,4.63-12.65,7.47-3.34,1.93-6.48,3.75-9.24,5.31-4.41,2.79-7.16,4.56-8,4.69.05,2,.08,3.92.14,5.78l.22,13c3.81-2.38,12.91-6.58,23.06-12.22,5.87-3.21,11.14-6.37,15.36-8.84l0-.07a109.06,109.06,0,0,0,10.56-8.62c1.72-1.59,3.42-3.37,5-5.07a15.63,15.63,0,0,0,3.27-5.54c.54-1.93.17-3.2-1-4.18a7.07,7.07,0,0,0-5.13-1.15A21.42,21.42,0,0,0,334.86,193Z" transform="translate(-40.48 -52.2)"/><path class="cls-12" d="M60.85,228.58c.35,2.47.29,4.15-.4,4.39-.1,0-.24,0-.38-.05a.76.76,0,0,1-.12.19c-.34.18-.92-.08-1.59-.74a8.24,8.24,0,0,0-.65,1.26c3.67-.87,13.53-2.25,27.43-4.74,4.47-.84,9.37-1.71,14.58-2.87s10.77-2.37,16.61-3.78c11.67-3,24.34-6.45,37.46-10.85s25.39-9.28,36.42-14q3.48-1.59,6.9-3.06c.76-.46,1.57-.92,2.47-1.44,5.31-3,12.83-6.81,21.07-10.89,8.39-3.86,15.5-8,20.8-10.94l1.28-.71a37.09,37.09,0,0,1,4.52-2.54,93.85,93.85,0,0,1-9.51-10.8c-.83-1.12-1.63-2.24-2.38-3.37-3.71,2.62-11.06,6.66-19.77,10.76-5.14,2.4-9.89,4.46-13.9,6-5.35,2.42-11.12,4.88-17.44,7.36-10.42,4.06-22,8.19-34.42,11.92s-24.28,6.79-35.18,9.27-20.81,4.33-29.17,5.61c-11.38,1.82-19.85,2.74-24.13,3-.15,2-1.51,6.12-1.8,11.11,0,.29,0,.55,0,.85C59.83,222.91,60.53,226.12,60.85,228.58Z" transform="translate(-40.48 -52.2)"/><path class="cls-12" d="M367.17,156.17c-.58-1.49-.85-2.53-1.26-3.76l-2-6.3c-4.06,2.43-12.2,6.36-21.57,10.84-10.24,4.84-19.08,9-23.14,10.23.81,2.07,1.53,4.08,2.1,6s1,3.41,1.37,5c3.11-2.72,11.11-7.65,21.09-12.18,11.31-5.15,21.34-8,24.39-8A8.29,8.29,0,0,1,367.17,156.17Z" transform="translate(-40.48 -52.2)"/><path class="cls-12" d="M416.78,134.34c-12.58,4.76-23.4,8.83-28.63,10.16a14.69,14.69,0,0,1,.59,2.69,10.63,10.63,0,0,1-.13,3.33c2.71-1.32,6.52-2.91,11-4.61,5.93-2.5,13.71-5.49,22.32-8.5,4.77-1.69,9.36-3.22,13.53-4.55s7.69-2.43,9.65-4.34a6.08,6.08,0,0,0,2-5c-9.19,3.21-17.62,6.18-25.06,8.7Z" transform="translate(-40.48 -52.2)"/><path class="cls-12" d="M418.22,120.41c-10.54,3.9-20.26,6.9-27.09,9.43-3.4,1.2-6.14,2.29-8.06,3,.49,1.21,1,2.45,1.61,3.81.78,1.84,1.76,3.6,2.72,5.87,4.57-3.06,14.92-8.25,27.52-13a197.93,197.93,0,0,1,22.31-7.08l14-5.3,19.85-7.4,10.52-3.88,2.68-1a6.26,6.26,0,0,0,1.69-.71c.07.12.31-.92-.47-2a7,7,0,0,0-3.32-2.44,11.2,11.2,0,0,0-4.62-.71c-3.27.09-6.66,1.21-10.14,2.35-5.06,1.66-9.92,3.31-14.68,5C447.12,109.23,433.89,114.72,418.22,120.41Z" transform="translate(-40.48 -52.2)"/><path class="cls-12" d="M489.78,99.24a9.23,9.23,0,0,1,1.08,2.29c1.42-.79,3.64-1.81,6.34-3s6-2.46,9.73-3.87l9.94-3.64h0a5.92,5.92,0,0,0-1.19,0c-1,.11-2.27.32-3.4.5-2.33.37-4.56.79-6.68,1.21-4.21.87-8.05,1.79-11.24,2.59-2.7.7-4.93,1.29-6.69,1.7A11,11,0,0,1,489.78,99.24Z" transform="translate(-40.48 -52.2)"/><path class="cls-12" d="M313,168.41c-1.57,1.2-3.91,2.76-6.83,4.59l-4.89,3a63.58,63.58,0,0,1-5.95,3.27c-.71.32-1.49.61-2.27.88a4.59,4.59,0,0,0-.51,3,4,4,0,0,0,2.8,3.2,10.52,10.52,0,0,0,6.42.37c4.77-1.15,9.41-4.5,12.86-6,1.23-.61,2.3-1.08,3.23-1.44-.52-1.33-1.09-2.71-1.71-4.15C315.26,173,314.21,170.75,313,168.41Z" transform="translate(-40.48 -52.2)"/><path class="cls-12" d="M327.65,126.67c-.81-2.13-1.69-4.47-2.65-6.91-.84-2.17-1.65-4.23-2.42-6.16-1.8,2.06-7.42,5.84-14.05,10a123.14,123.14,0,0,1-13.74,7.79,101.14,101.14,0,0,1,14.63,17.16c3.37-2,11.13-5.75,21.56-10.64a49.43,49.43,0,0,1-2.5-7.88C328.13,128.92,327.87,127.76,327.65,126.67Z" transform="translate(-40.48 -52.2)"/><path class="cls-12" d="M225.14,102c1.32-3.43,11-16.29,25.15-29.48A182.22,182.22,0,0,1,276,52.21c-.25,0-.5.11-.74.17-1.4.76-3,1.58-4.78,2.58-3.41,1.89-7.33,4.34-11.57,7.25a145.7,145.7,0,0,0-13.15,10.33c-8.94,7.85-16.4,15.77-21.8,21.47-3.36,3.53-6,6.2-7.64,7.62-.49.74-1,1.36-1.45,1.93A73.3,73.3,0,0,1,225.14,102Z" transform="translate(-40.48 -52.2)"/><path class="cls-12" d="M244.73,104.92a106,106,0,0,1,20.32,6.83c3.09-3.25,9.62-8.73,17.8-14.27-2.36-2-6.71-7.84-11.12-15.07a93,93,0,0,1-7.86-15.31c-3.14,2.85-6.51,5.93-10,9.21C241,88.29,230.7,99,226.74,102.06c.28,0,.45.14.48.25s-.08.29-.32.46A80.44,80.44,0,0,1,244.73,104.92Z" transform="translate(-40.48 -52.2)"/><path class="cls-12" d="M241.61,154.12a94.22,94.22,0,0,0,11,11.68c2.82-3.43,9.37-9.35,18.19-14.68,10.09-6.14,19.57-9.28,23.15-9.55-2.21-2.3-4.55-4.55-7-6.72-14.79-12.9-31.36-20.42-43.64-24.56-9.82-3.33-16.92-4.83-19.4-5.9l-1.23.52c.16,1.22.25,2.9.61,5a88.39,88.39,0,0,0,4.52,19,90.88,90.88,0,0,0,5.43,12.29A97.32,97.32,0,0,0,241.61,154.12Z" transform="translate(-40.48 -52.2)"/><path class="cls-12" d="M302.68,152.9a61.18,61.18,0,0,1-7.4,4c-3.1,1.52-6.73,3.28-9.69,6.11a11.2,11.2,0,0,0-3.13,4.89,7.35,7.35,0,0,0,.72,5.47,5.54,5.54,0,0,0,4.37,2.63,14,14,0,0,0,5.91-1.15c2-.77,3.9-1.75,5.78-2.66l5.17-2.44c3.16-1.43,5.74-2.5,7.62-3.17a120,120,0,0,0-6.87-11.26c-.65-.93-1.32-1.87-2-2.8A2.27,2.27,0,0,1,302.68,152.9Z" transform="translate(-40.48 -52.2)"/><path class="cls-12" d="M280.05,52.23c-2.76,2.8-7.9,7.38-14.24,13.1,2.78,1.88,8,7.07,12.83,14.12a66.82,66.82,0,0,1,8.24,15.38,139.69,139.69,0,0,1,12.63-7.24c.43-.31.87-.59,1.33-.86a14.18,14.18,0,0,1,1.85-1.42,13.51,13.51,0,0,1,3.05-1.56c-5.82-8.25-11.45-15.42-15.73-21l-1.5-2c-2.71-3.13-5.13-5.9-6.84-7.94A15.38,15.38,0,0,0,280.05,52.23Z" transform="translate(-40.48 -52.2)"/><path class="cls-12" d="M316.67,183.76c-1.53,1.25-3.33,2.72-5.48,4.19a25.27,25.27,0,0,1-8.23,3.83,13.66,13.66,0,0,1-9.79-1.18,9,9,0,0,1-3.43-3.32,7,7,0,0,1-.86-4.21,6.71,6.71,0,0,1,.52-2.06,12.79,12.79,0,0,1-2.23.07,10.8,10.8,0,0,1-4.77-1.39,10.49,10.49,0,0,1-3.72-3.65,12.17,12.17,0,0,1-1.19-9.58,15.46,15.46,0,0,1,4.79-7.06,33.11,33.11,0,0,1,11.56-6c3.34-1.13,6.07-1.82,7.91-2.38L302,151c-2-2.58-4.2-5.25-6.58-7.8-2.18,2-10.73,6.2-20.35,12-9.91,5.91-17.7,11.71-20.32,12.5a135.91,135.91,0,0,0,13.34,9.54c5.36,3.58,10.85,7.52,14.66,13s5.29,11.81,6,17.5c.26,2.21.4,4.36.46,6.45a77.45,77.45,0,0,1,14.73-10.77,87.64,87.64,0,0,1,10.45-5.2c2.62-1.6,5.45-3.21,8.44-4.82-.85-2.08-2-6.19-4-11.61A24.1,24.1,0,0,1,316.67,183.76Z" transform="translate(-40.48 -52.2)"/><path class="cls-12" d="M324.5,189a31.8,31.8,0,0,1,0,3.52c.68-.35,1.32-.71,2-1.06,2-1,4.11-2.05,6.24-3a25.65,25.65,0,0,1,7.52-2.42,17,17,0,0,1,2.47-.08,25.12,25.12,0,0,1-2.05-5c-.93-3-1.3-5.86-.94-7.4-7.53,3.35-13.66,5.89-16.53,6.57A58,58,0,0,1,324.5,189Z" transform="translate(-40.48 -52.2)"/><path class="cls-12" d="M311.24,151.35a99.07,99.07,0,0,1,7.22,13.86c3.32-2.93,11.48-8.18,21.69-13,9.69-4.61,18.5-7.56,23.12-8.49l-.68-2.34a28.44,28.44,0,0,1-2.9-6.07l-.44-1.13a17.44,17.44,0,0,1-1.44-3.39c-22.25,10.37-40.89,17.24-47.59,18.92C310.57,150.31,310.94,150.8,311.24,151.35Z" transform="translate(-40.48 -52.2)"/><path class="cls-12" d="M284.46,96.4h0l-.09-.06Z" transform="translate(-40.48 -52.2)"/><path class="cls-12" d="M169.58,348.18c34.54,9.12,65.57,18.28,87.85,25.44,5.59,1.81,10.63,3.49,15.05,5q2.38.67,4.93,1.33c7.23,1.94,13.8,3.31,18.07,4.43l1.38.16,2.14.24c1.31,0,2.66-.1,4.05-.24a57.79,57.79,0,0,0,17.47-4.08,41.36,41.36,0,0,0,16.29-11.69,33.64,33.64,0,0,0,8.44-21.83c-.1-7.22-3.22-13.51-6.1-18.89s-5.19-9.74-7.2-12.37c-.78-1.07-1.48-1.89-2-2.57a7.22,7.22,0,0,1-2-2.05c-.15-.1-.26-.17-.24-.28,0-.48,3.59-.85,10-.24a95.41,95.41,0,0,1,59.61,30.73,67.28,67.28,0,0,1,12.72,21.16,45.24,45.24,0,0,1,1.71,27A42.32,42.32,0,0,1,406,402.23a50.46,50.46,0,0,1-8.89,9.91,59.46,59.46,0,0,1-10.47,7.26,65.36,65.36,0,0,1-11.05,4.91,76.61,76.61,0,0,1-21.72,4.12,105.78,105.78,0,0,1-19-.87,134.06,134.06,0,0,1-22.21-5c-3.45-.51-7.14-1.12-11.14-1.89-23.49-4.28-54.94-13.54-89.59-23.53s-65.91-19.67-88.44-27c-6.71-2.13-12.58-4.14-17.58-5.87,4,1.84,8,3.89,12.13,6.09a145.18,145.18,0,0,1,17.75,11.82,113.78,113.78,0,0,1,15.33,14.92,109.64,109.64,0,0,1,11.29,16.39,146.32,146.32,0,0,1,12.83,30.84c2,6.84,3.38,12.83,4.3,17.51.44,1.58.88,3.35,1.27,5.26a53.8,53.8,0,0,1,1,9.12,517,517,0,0,0,102.76-6.65c22.24-3.5,45.76-8,70.69-9.27,24.84-1.45,50.61-.05,76.69,3,14.76,1.81,29.21,4.09,43.38,6.58.17-1.53.42-3.46.76-5.7.9-5.88,2.41-13.91,4.05-22.81,1.59-8.48,3.06-16.17,4.31-21.9.87-6.83,1.75-14.1,2.59-21.66,1.5-13.22,2.66-25.62,3.6-36.22a48.14,48.14,0,0,1-8.06-1.53,114.41,114.41,0,0,1-23-8.79,123.27,123.27,0,0,1-29.86-21.34c-5-4.71-10-9.85-15.46-14.76a154.43,154.43,0,0,0-17.9-13.73c-3.17-2.22-6.55-4.07-9.76-6-3.35-1.75-6.55-3.66-9.89-5.19l-4.9-2.37-4.92-2.12c-3.2-1.47-6.46-2.63-9.6-3.88-8.65-3.28-16.89-5.82-24.43-7.91-4.83-1.17-10.09-2.33-15.65-3.36-5.93-1.11-11.61-2-16.8-2.67-2.6-.35-5.07-.64-7.38-.91a14.51,14.51,0,0,1-3.9-.82,5.79,5.79,0,0,1-2-1.37,4.77,4.77,0,0,1-1.15-2.27,11.77,11.77,0,0,1-.07-3.08,45.25,45.25,0,0,1-8.37,10,164.24,164.24,0,0,1-15.08,11.87c-5.78,4.2-12.3,8.73-19.4,13.09-14.13,8.86-28.06,15.09-38.57,18.2-2.8.84-5.33,1.48-7.54,2l-1.19.59a55.48,55.48,0,0,1-15.9,4.32,108.17,108.17,0,0,1-24.33.08A255.57,255.57,0,0,1,126.27,315a244.32,244.32,0,0,1-50.86-16.9c-2.75-1.28-5.17-2.48-7.36-3.62-1.45-.44-3-1-4.68-1.68A49.35,49.35,0,0,1,56,289.14c-1.58,6-5.22,16.77-8.19,31.16l-.14.65c6,.69,17.46,2.76,32.88,6C103.53,331.69,135.05,339.05,169.58,348.18Z" transform="translate(-40.48 -52.2)"/><path class="cls-12" d="M59.71,206.7c.61-.46,1.07-.57,1.35-.39,4.08-1.1,12.46-2.84,23.78-5.31,8.23-1.76,18-4,28.7-6.7s22.54-5.9,34.79-9.59,23.79-7.67,34.2-11.44c6.19-2.26,11.9-4.49,17.2-6.6,3.74-2.11,8.44-4.55,13.62-7a160.21,160.21,0,0,1,20.55-8.3c-1.74-2.77-3.29-5.52-4.64-8.2a97.63,97.63,0,0,1-3.87-9.34c-2.88,2.33-14.06,7.55-27.74,12.86l-3.57,1.38c-13,5.67-28.81,12-46.29,17.79-11.78,3.87-23.19,7-33.66,9.41-5.28,1.07-10.28,2.21-15,2.91l-6.79,1.12-6.34.75c-13.5,1.48-22.74,1.34-25.43.89-.16.78-1.13,2-2,4a19.24,19.24,0,0,0-1.7,9.94c.37,4.05,1.7,7.85,2.48,10.72.11.39.21.76.32,1.1Z" transform="translate(-40.48 -52.2)"/><path class="cls-12" d="M60.33,180.3c2.33-.73,11.57-1.61,25.17-3.92l6.19-1.07,6.69-1.37c4.63-.86,9.52-2.15,14.69-3.33,10.29-2.61,21.48-5.87,33.14-9.69,10.31-3.39,20.1-6.92,29.11-10.31,5.18-2.53,12.4-5.63,20.45-8.77,9.18-3.56,17.5-6.4,23.13-8,1.58-.56,3-1.08,4.24-1.51.57-.21,1.13-.37,1.58-.56-.18-.6-.42-1.17-.56-1.77a69.47,69.47,0,0,1-3-20,30.5,30.5,0,0,1,.21-4.68c-4.1,1.6-10.17,3.72-17.7,6.51-7.3,2.66-15.94,6-25.55,9.66s-20.15,7.77-31.41,11.89-22.16,7.54-32.22,10.3c-5.06,1.29-9.84,2.55-14.39,3.41-2.27.45-4.46,1-6.6,1.31l-6.13.92c-13.22,1.85-22.25,1.61-24.8.95-1.08,3.05-3.18,8.12-3.72,14.31-.74,6.82.69,12.62,1.09,15.66A1.13,1.13,0,0,1,60.33,180.3Z" transform="translate(-40.48 -52.2)"/><path class="cls-12" d="M79.32,332.31C64.18,328.2,53,325,47.31,323c-1.3,6.29-2.45,13.19-3.37,20.53,5,.88,14.91,3.7,26.31,7,8.26,2.41,15.72,4.61,21,6.45,5.66.89,17.56,3.7,33.84,7.91,22.91,5.95,54.41,14.67,89.06,24.77s65.78,20.07,88.59,25.66c12.21,3.08,22,5.06,28.48,6.42,1.37.14,2.79.27,4.23.37,11,.75,24.38.52,37.69-4.52a63.11,63.11,0,0,0,9.8-4.63,53.62,53.62,0,0,0,9.09-6.52,38.17,38.17,0,0,0,12.19-19A38.71,38.71,0,0,0,402.87,365a62.78,62.78,0,0,0-11-19A85.84,85.84,0,0,0,377.07,332a102,102,0,0,0-15.23-9.45,120.82,120.82,0,0,0-24.58-9.05c-1.49-.4-2.79-.69-3.94-1a2.71,2.71,0,0,1,.61.51,10.21,10.21,0,0,1,1,1c2.78,2.37,5.79,6.34,9.05,11a64.28,64.28,0,0,1,5.41,9.11,33.53,33.53,0,0,1,3.18,12.44c.58,9.17-2.94,19.25-9.65,27.12a45.79,45.79,0,0,1-9.22,8.25,48.08,48.08,0,0,1-10.37,5.3,56.38,56.38,0,0,1-19.92,3.42,58.32,58.32,0,0,1-15.21-2c-.92-.12-1.84-.28-2.81-.47-.66-.14-1.3-.28-1.94-.45-2.59-.38-5.34-.9-8.17-1.56a92.94,92.94,0,0,1-17.18-5.74,59.17,59.17,0,0,1-6.18-1.78,69.61,69.61,0,0,1-7.16-2.76c-21.26-5.53-48-12.62-77.07-20.31C133.1,346.65,101.87,338.47,79.32,332.31Z" transform="translate(-40.48 -52.2)"/><path class="cls-12" d="M44.14,413.86c1.33,5.37,2.8,11.91,4.34,19,2.42,11.3,4.47,21.28,5.35,27.41l.05.22a2.53,2.53,0,0,1,.55.09l1.63.44c.92.26,2.07.52,3.29.86,3.3.47,8.94,1.47,16.79,2.81,1.84.22,3.74.43,5.75.65,6,.65,12.49,1.43,19.33,2.34,14.49,1.93,27.51,4,36.52,5.7q13,1.31,27.81,2.23,7,.36,14.46.66c-.52-2.18-1.11-5.2-1.74-8.55-.27-1.38-.49-2.74-.72-4-1.4-4.76-3.21-10.94-5.75-18.13A161.5,161.5,0,0,0,158.32,416a110.21,110.21,0,0,0-11-15.52,116.77,116.77,0,0,0-14.69-14.13,148.32,148.32,0,0,0-17-11.43,191.17,191.17,0,0,0-17.18-8.6c-8-3.54-15.56-6.4-22.47-8.83q-3.44-.87-7.13-1.95a175.12,175.12,0,0,1-19-6.68c-2.46-.78-4.51-1.49-6.16-2.07-.92,8.48-1.6,17.45-1.77,26.8A294.41,294.41,0,0,0,43.52,409C43.72,410.63,43.94,412.25,44.14,413.86Z" transform="translate(-40.48 -52.2)"/><path class="cls-12" d="M819.14,542a3.12,3.12,0,0,0,.64-1c.16-.56.34-1.16.52-1.77a29.45,29.45,0,0,0,.8-4.58,41.26,41.26,0,0,0-.87-12.14c-.67-3.33-1.66-6.92-2.76-10.7-1.15.61-2.71,1.41-4.77,2.39a213.09,213.09,0,0,1-21.09,8.3,277.49,277.49,0,0,1-34.71,9.17,386.14,386.14,0,0,1-47.18,6.15,539.92,539.92,0,0,1-57.6.61c-20.67-.84-42.7-2.6-65.77-4.94s-47.22-5.09-72.27-7.28-51-3.91-77.65-4.94c-53.28-2.09-104.13-1.17-150.25,1.53-23.07,1.29-44.9,3.21-65.47,5.09s-40.08,2.69-57.77.71-33.19-5.43-46.8-8.16-25.35-4.89-35-6a214.41,214.41,0,0,0-22.37-1.41c-2.09,0-3.75,0-5,0,.3,10,.83,17.61.49,20.52a14.78,14.78,0,0,0,2.61,3.28c2.66,2.48,6.5,4.4,11.08,6A286.09,286.09,0,0,0,103,551a360,360,0,0,0,47.52,4c17.69.21,37.07-.71,57.88-2.52s42.94-4.54,66.38-7.19,48.12-5.27,73.87-6.12,52.4-.55,79.61.65c54.43,2.44,106,7.36,152.93,9.41,46.91,2.33,89.23,1.27,124.74-.36S770.12,545,790,543.63c9.94-.68,17.7-1.17,22.9-1.4C815.7,542,817.8,542,819.14,542Z" transform="translate(-40.48 -52.2)"/><path class="cls-12" d="M58.72,511.47a152.21,152.21,0,0,1,22.7-.05A350.77,350.77,0,0,1,117,516.17c13.71,2.41,29.27,5.42,46.51,6.94s36.24.4,56.67-1.63,42.45-4.29,65.56-5.84a1429.76,1429.76,0,0,1,151-2.14c26.77,1,52.89,2.78,78.05,5.12s49.32,5.26,72.32,7.74,44.84,4.53,65.33,5.62a567.2,567.2,0,0,0,57,.4,411,411,0,0,0,46.69-4.93,317.32,317.32,0,0,0,34.6-7.78c13.59-3.88,22.51-7.3,26.5-8.62l-1-3.45c-2.93-9.94-5.62-18.91-7.6-25.79a12.71,12.71,0,0,1-3.37,5c-.17.17-.33.3-.5.45a21.23,21.23,0,0,1-4.76,3.44c-3.74,2.2-9.44,4.14-15.68,5.73-2,.53-3.94,1-5.82,1.47-.87.29-1.73.58-2.63.85l-7.37,2c-2.59.66-5.27,1.49-8.16,2-5.73,1.19-11.95,2.6-18.74,3.5-6.75,1.17-14,1.8-21.76,2.61L708,509.5c-4.08.29-8.28.23-12.59.37a479.1,479.1,0,0,1-56.18-2.79c-20.12-2.09-41.46-5.37-63.76-9.55-44.61-8.27-93-20-144.47-26.32-25.78-3-51.06-4.4-75.36-3.1-24.3,1.09-47.56,5.42-70,8.77-45,7.21-86.33,7-120.54,4.29-22-1.75-41.17-4.49-57.05-7.25q-3.72-.46-7.59-1c-6.85-.91-13.37-1.82-19.27-2.76A130.59,130.59,0,0,1,65.43,467a47.26,47.26,0,0,1-10.2-4l-.44-.3c.36,4.38-1.21,18.51-1.29,35.37-.06,5,0,9.74.12,14.07C55,511.92,56.62,511.68,58.72,511.47Z" transform="translate(-40.48 -52.2)"/></g><g id="Layer_38" data-name="Layer 38"><path class="cls-13" d="M-572.27,888.8" transform="translate(-40.48 -52.2)"/><path class="cls-14" d="M481.88,625.87" transform="translate(-40.48 -52.2)"/><path class="cls-14" d="M482.46,625.33" transform="translate(-40.48 -52.2)"/><line class="cls-14" x1="437.98" y1="577.99" x2="437.98" y2="577.99"/></g></svg>