<svg xmlns="http://www.w3.org/2000/svg" viewBox="0 0 1720.11 1121.54"><defs><style>.cls-1{opacity:0.8;}.cls-2{fill:none;stroke:#000;stroke-miterlimit:10;stroke-width:0.5px;}</style></defs><g id="Layer_2" data-name="Layer 2"><g class="cls-1"><path d="M395.35,1698.45c.33.34-1.4,2.52-4.81,6.21-.87.91-1.83,1.93-2.87,3s-2.3,2.2-3.6,3.42c-2.62,2.42-5.55,5.25-9.05,8.07l-5.43,4.5c-1.9,1.55-4,3-6.08,4.64-4.18,3.25-8.9,6.37-13.83,9.71A302.08,302.08,0,0,1,315.9,1757,301.89,301.89,0,0,1,279.83,1771c-5.71,1.68-11.11,3.34-16.28,4.5-2.57.61-5,1.27-7.44,1.75l-6.93,1.34c-4.4.91-8.45,1.38-12,1.86-1.77.23-3.41.46-4.93.6l-4.17.29c-5,.3-7.8.24-7.86-.23s2.62-1.29,7.47-2.39l4-.87,4.78-1.15c3.43-.84,7.35-1.62,11.62-2.82l6.71-1.74c2.33-.61,4.72-1.38,7.22-2.1,5-1.37,10.25-3.2,15.79-5,11-3.87,22.93-8.58,35.12-14.28s23.35-12,33.33-18c4.92-3.13,9.66-6,13.9-9,2.14-1.48,4.26-2.83,6.21-4.25l5.61-4.08c3.64-2.53,6.73-5.06,9.55-7.18l3.92-3,3.25-2.57C392.69,1699.64,395,1698.11,395.35,1698.45Z" transform="translate(-118.36 -940.57)"/></g><g class="cls-1"><path d="M477,1581.1c.39.31-1.18,2.89-3.8,7.6s-6.12,11.65-10.19,20.46c-2.08,4.39-4.28,9.26-7,14.38-1.35,2.55-2.7,5.22-4.2,7.91s-3.12,5.41-4.75,8.22a278.47,278.47,0,0,1-24.6,34.38,272.12,272.12,0,0,1-56.88,51.25c-16.41,10.8-27.59,15.62-28,14.9-.53-.93,9.76-7.21,25.18-18.82,7.64-5.91,16.57-13.12,25.92-21.77a323.14,323.14,0,0,0,28.52-29.94,328.46,328.46,0,0,0,24.49-33.32q2.52-4,4.9-7.9c1.56-2.58,3-5.14,4.41-7.59,2.85-4.89,5.29-9.61,7.65-13.88A154,154,0,0,1,471,1587.24C474.37,1582.87,476.67,1580.82,477,1581.1Z" transform="translate(-118.36 -940.57)"/></g><g class="cls-1"><path d="M492,1533.26c.9.29-.29,6.23-3,15.64-.66,2.36-1.42,4.93-2.26,7.68s-1.88,5.63-3,8.67c-2.2,6.08-4.8,12.69-7.77,19.53a309.65,309.65,0,0,1-17.18,34.06c-5,8.4-8.69,13.25-9.5,12.8-1.69-.94,8.75-22.52,20.43-49.57,2.89-6.78,5.65-13.23,8.17-19.11l3.53-8.36c1-2.64,2.06-5.09,3-7.32C488.35,1538.36,491.15,1533,492,1533.26Z" transform="translate(-118.36 -940.57)"/></g><g class="cls-1"><path d="M430.25,1315.35c.23.05.33.71.32,1.9s-.05,2.89,0,5.07c.07,1.09.09,2.3.27,3.61s.37,2.73.61,4.25a75.48,75.48,0,0,0,2.78,10.12c1.27,3.7,2.92,7.7,4.79,12q1.43,3.24,2.93,6.7c.91,2.29,2.1,4.51,3.27,6.82,4.81,9.41,10.3,19.61,16.7,29.9a269.43,269.43,0,0,0,19.7,27.77c.79,1,1.67,2,2.52,3s1.67,2,2.49,3c1.61,2,3.12,4,4.55,5.85l7.84,10.51A127.6,127.6,0,0,0,511.24,1460l3.69,3.56c.84.84,1.23,1.38,1.1,1.58s-.76,0-1.88-.45a29.29,29.29,0,0,1-4.6-2.64,80.53,80.53,0,0,1-14.25-13.14c-2.71-3-5.53-6.45-8.55-10.06-1.51-1.8-3.07-3.65-4.71-5.51-.83-.92-1.63-1.86-2.52-2.8s-1.77-1.88-2.65-2.94a219.67,219.67,0,0,1-20.74-28.28,300.1,300.1,0,0,1-16.55-30.73c-1.15-2.47-2.32-4.88-3.17-7.31s-1.78-4.65-2.63-6.86c-1.67-4.46-3.12-8.72-4.17-12.72a63.52,63.52,0,0,1-1.94-11,40.62,40.62,0,0,1,.25-8.49,27.82,27.82,0,0,1,.61-3,13.16,13.16,0,0,1,.69-2.16C429.67,1315.84,430,1315.29,430.25,1315.35Z" transform="translate(-118.36 -940.57)"/></g><g class="cls-1"><path d="M427.86,1244c.44.17.27,2.07-.41,5.33-.17.81-.38,1.71-.61,2.69s-.38,2.07-.61,3.21c-.41,2.31-1.06,4.89-1.43,7.81-.23,1.45-.48,3-.73,4.54s-.36,3.24-.57,5c-.47,3.41-.6,7.08-.85,10.93a156.13,156.13,0,0,0,5.81,49.59c1.13,3.69,2.11,7.23,3.36,10.44.59,1.61,1.09,3.2,1.69,4.68l1.76,4.25c1,2.75,2.26,5.11,3.2,7.26.49,1.07.91,2.08,1.33,3s.86,1.73,1.22,2.48c1.41,3,2,4.82,1.63,5.08s-1.74-1-3.89-3.68c-.54-.66-1.12-1.41-1.75-2.23s-1.21-1.78-1.87-2.78a78,78,0,0,1-4.22-7l-2.22-4.23c-.76-1.47-1.4-3.08-2.14-4.71-1.53-3.25-2.76-6.88-4.11-10.68a130.13,130.13,0,0,1-6.07-51.83c.43-4,.79-7.83,1.53-11.34.34-1.76.59-3.47,1-5.09l1.19-4.62a75.91,75.91,0,0,1,2.47-7.81c.42-1.14.78-2.19,1.18-3.15s.82-1.8,1.19-2.56C426.41,1245.46,427.42,1243.87,427.86,1244Z" transform="translate(-118.36 -940.57)"/></g><g class="cls-1"><path d="M463.35,1167.5c1.69.92-15.94,36.45-37.53,80.31s-39.07,79.46-40.83,78.68,13-37.72,34.71-81.7S461.74,1166.61,463.35,1167.5Z" transform="translate(-118.36 -940.57)"/></g><g class="cls-1"><path d="M436.59,1127.69c.13-.44,1.13-.61,2.84-.41a24.11,24.11,0,0,1,6.93,2.14,33.27,33.27,0,0,1,9,6.18,32.67,32.67,0,0,1,7.66,11.28,29.63,29.63,0,0,1,1.91,13.64,26.64,26.64,0,0,1-3.28,10.64,18,18,0,0,1-4.8,5.67c-1.43,1-2.41,1.32-2.72,1-.72-.75,1.53-3.57,3.12-8.63a30.54,30.54,0,0,0,1.41-9,29.52,29.52,0,0,0-2-10.77,33.67,33.67,0,0,0-5.87-9.45,44.21,44.21,0,0,0-6.92-6.38C439.52,1130.28,436.29,1128.66,436.59,1127.69Z" transform="translate(-118.36 -940.57)"/></g><g class="cls-1"><path d="M351.78,1116.15c-.06-.88,5.76-2.28,15.39-2.78l3.77-.14c1.32,0,2.68,0,4.1,0,2.84,0,5.86.19,9,.38a156.61,156.61,0,0,1,40.5,8.57c3,1.11,5.83,2.15,8.42,3.3,1.3.57,2.56,1.09,3.75,1.65l3.4,1.66c8.6,4.35,13.36,8,12.94,8.77s-6-1.22-14.83-4.33l-3.47-1.21c-1.21-.43-2.48-.81-3.78-1.25-2.6-.9-5.43-1.71-8.37-2.62-5.93-1.71-12.48-3.44-19.44-4.93s-13.65-2.53-19.76-3.36c-3.07-.36-6-.76-8.72-1-1.37-.13-2.69-.29-4-.39l-3.67-.3C357.74,1117.46,351.85,1117.15,351.78,1116.15Z" transform="translate(-118.36 -940.57)"/></g><g class="cls-1"><path d="M298.54,1120.15c-.1-.46,1.9-1.29,5.61-2.41.93-.27,2-.57,3.1-.88s2.38-.57,3.72-.87c2.69-.58,5.74-1.28,9.16-1.79l5.36-.86c1.87-.28,3.83-.47,5.85-.71,4-.53,8.38-.8,13-1.12a242.23,242.23,0,0,1,59.37,4c4.48.93,8.75,1.79,12.68,2.85,2,.52,3.88,1,5.7,1.5l5.2,1.57c3.32,1,6.25,2.09,8.83,3,1.28.48,2.48.92,3.57,1.36s2.07.9,2.95,1.3c3.53,1.61,5.39,2.7,5.23,3.14s-2.31.2-6.06-.62c-.93-.2-2-.44-3.1-.72l-3.69-.81c-2.65-.58-5.63-1.35-9-2l-5.21-1.12c-1.81-.39-3.71-.7-5.67-1.09-3.91-.81-8.12-1.44-12.54-2.18-8.86-1.33-18.64-2.51-28.94-3.24s-20.16-.82-29.12-.71c-4.47.14-8.73.2-12.71.47-2,.12-3.93.17-5.77.31l-5.32.41c-3.4.2-6.45.56-9.15.78l-3.77.3c-1.16.12-2.22.22-3.17.29C300.81,1120.66,298.64,1120.61,298.54,1120.15Z" transform="translate(-118.36 -940.57)"/></g><g class="cls-1"><path d="M255.13,1141.84c-.49-.74,3.28-4.39,10.34-9l2.8-1.75c1-.6,2-1.17,3.1-1.78,2.15-1.24,4.52-2.4,7-3.63a135.4,135.4,0,0,1,34.43-11c2.75-.45,5.36-.88,7.83-1.11,1.23-.13,2.41-.28,3.56-.36l3.29-.19c8.41-.37,13.59.42,13.62,1.31.07,2-20.25,3.54-43.81,11.18C273.69,1133,256.25,1143.53,255.13,1141.84Z" transform="translate(-118.36 -940.57)"/></g><g class="cls-1"><path d="M255.72,1254.61c-1,.07-2.16-7.51-4.56-19.54-1.22-6-2.78-13.13-4.84-20.94-1-3.91-2.19-8-3.48-12.18s-2.75-8.61-4-13.3a69,69,0,0,1-2.4-14.23,39.12,39.12,0,0,1,7.18-24.94,40.21,40.21,0,0,1,7.33-7.87,34.34,34.34,0,0,1,13.58-7c.88-.2,1.66-.35,2.34-.47s1.29-.1,1.76-.11c1,0,1.47.11,1.51.34s-.37.57-1.18,1c-.41.22-.92.45-1.51.71s-1.25.65-2,1a43.16,43.16,0,0,0-11.26,8.13,41.07,41.07,0,0,0-5.85,7.42,37.34,37.34,0,0,0-4.19,9.8,35.45,35.45,0,0,0-1,11.64,69.4,69.4,0,0,0,2.32,12.87c1.17,4.44,2.56,8.81,3.8,13.14s2.3,8.56,3.18,12.6a189.63,189.63,0,0,1,3.5,21.7C257.14,1246.81,256.6,1254.56,255.72,1254.61Z" transform="translate(-118.36 -940.57)"/></g><g class="cls-1"><path d="M268.38,1315.27c-1.94.16-5.33-23.44-11-52.18s-11.27-51.91-9.41-52.49c.88-.27,3.47,5.21,6.58,14.43a296.74,296.74,0,0,1,9.53,36.75,296.86,296.86,0,0,1,5,37.65C269.64,1309.14,269.3,1315.18,268.38,1315.27Z" transform="translate(-118.36 -940.57)"/></g><g class="cls-1"><path d="M1005.32,1165c-.11.21-2.05-.57-5.63-2.22s-8.82-4.17-15.63-7.18a169.51,169.51,0,0,0-25.37-9.18,97.71,97.71,0,0,0-16.4-2.92,75.65,75.65,0,0,0-18.45.76,97.35,97.35,0,0,0-19.61,5.81c-6.67,2.66-13.46,5.94-20.55,9.36l-45.31,21.78c-16,7.6-32.68,15.8-50.46,23.49s-36.64,14.87-56.77,19.81a209.79,209.79,0,0,1-30.29,5.22,159.61,159.61,0,0,1-30,0,137.28,137.28,0,0,1-28.41-5.75,164.8,164.8,0,0,1-25.57-10.63A233,233,0,0,1,594.34,1200c-7.05-4.71-13.66-9.54-20-14.16s-12.5-9-18.56-13a157.72,157.72,0,0,0-18-10.16,90.21,90.21,0,0,0-17.47-6.33,77.27,77.27,0,0,0-16.42-2.09,68.6,68.6,0,0,0-14.35,1.3l-3.18.71c-1,.28-2,.6-3,.89l-1.44.44c-.47.16-.91.35-1.36.53l-2.61,1c-.84.35-1.61.79-2.39,1.17s-1.54.72-2.22,1.15c-1.36.88-2.69,1.62-3.83,2.45l-3.1,2.37-2.37,2.22-1,.93-.79.89c-.5.55-.92,1-1.28,1.37-.7.73-1.11,1.07-1.21,1s.12-.55.65-1.42c.27-.44.61-1,1-1.61l.68-1c.29-.34.6-.69.92-1.08.66-.75,1.39-1.61,2.22-2.53l3-2.73c1.13-.95,2.46-1.82,3.83-2.84.69-.49,1.48-.88,2.26-1.35s1.58-1,2.44-1.37l2.69-1.24c.46-.21.92-.43,1.41-.63l1.48-.53c1-.36,2-.75,3.1-1.09l3.31-.89a69.29,69.29,0,0,1,15.05-1.94,78.72,78.72,0,0,1,17.38,1.67,91.83,91.83,0,0,1,18.53,6.18,157.77,157.77,0,0,1,18.8,10.1c6.28,3.9,12.57,8.26,19,12.8s13.06,9.23,20,13.75a233.6,233.6,0,0,0,22.11,12.72,160.24,160.24,0,0,0,24.66,10c4.33,1.34,8.76,2.43,13.28,3.35a136.59,136.59,0,0,0,13.83,2,154.8,154.8,0,0,0,28.71-.12,205.33,205.33,0,0,0,29.29-5.08c19.58-4.8,38.14-11.83,55.76-19.33s34.35-15.57,50.42-23l45.58-21.21c7.13-3.31,14.1-6.54,21.06-9.16a100.61,100.61,0,0,1,20.75-5.66,79.15,79.15,0,0,1,19.63-.32,98.67,98.67,0,0,1,17,3.57,153.58,153.58,0,0,1,25.47,10.45c6.71,3.41,11.76,6.33,15.15,8.36S1005.43,1164.74,1005.32,1165Z" transform="translate(-118.36 -940.57)"/></g><g class="cls-1"><path d="M511.19,1484c1.77.65-3.31,18.79-11.34,40.51s-16,38.79-17.74,38.14,3.31-18.79,11.34-40.51S509.42,1483.3,511.19,1484Z" transform="translate(-118.36 -940.57)"/></g><g class="cls-1"><path d="M649.93,1505.29c-.61,1.78-36.2-8.92-79.43-23.83-5.38-1.81-10.61-3.48-15.69-4.75a77.8,77.8,0,0,0-14.67-2.44,30.71,30.71,0,0,0-12.59,1.7,24.56,24.56,0,0,0-5,2.69,29.39,29.39,0,0,0-4,3.55,46.08,46.08,0,0,0-5.68,7.75c-1.49,2.48-2.65,4.73-3.63,6.57-1.93,3.7-3.11,5.75-3.56,5.58s-.1-2.5,1.1-6.58a62.4,62.4,0,0,1,2.71-7.33,42.31,42.31,0,0,1,5.41-9.13,32.45,32.45,0,0,1,4.46-4.58,28.71,28.71,0,0,1,6-3.73,31.18,31.18,0,0,1,7.2-2.19,42.63,42.63,0,0,1,7.78-.58c10.59.24,21.42,3.34,32.35,7C616,1489.94,650.53,1503.51,649.93,1505.29Z" transform="translate(-118.36 -940.57)"/></g><g class="cls-1"><path d="M533.53,1472.77c-.44.81-3.81,0-8.79-2.34A101.58,101.58,0,0,1,491.38,1444c-3.41-4.31-5-7.4-4.3-8,1.47-1.28,11.16,7.68,23.81,17.64S534.43,1471.05,533.53,1472.77Z" transform="translate(-118.36 -940.57)"/></g><g class="cls-1"><path d="M1001.23,1244c-1.92-.29-.64-18.11,0-40s.48-39.74,2.41-39.92c.92-.08,2.18,4.33,3.15,11.59a193.65,193.65,0,0,1-1.71,56.94C1003.66,1239.81,1002.14,1244.13,1001.23,1244Z" transform="translate(-118.36 -940.57)"/></g><g class="cls-1"><path d="M1128.57,1230c-.91.58-6.09-6.85-16-17.3a188.44,188.44,0,0,0-18.68-16.9,168.92,168.92,0,0,0-25.76-16.73,166.56,166.56,0,0,0-28.36-11.75c-2.27-.68-4.46-1.4-6.65-1.9l-3.21-.82c-1.06-.27-2.1-.55-3.08-.74a34.63,34.63,0,0,0-11-.71,12.5,12.5,0,0,0-7.54,3.32,12.35,12.35,0,0,0-3,5.72c-.49,1.87-.73,3.44-1,4.49s-.47,1.63-.7,1.63-.47-.57-.67-1.66a21,21,0,0,1-.27-4.88,16.33,16.33,0,0,1,.64-3.65,12.43,12.43,0,0,1,.82-2.06,7.66,7.66,0,0,1,.6-1,11,11,0,0,1,.69-1,16,16,0,0,1,9.6-5.59,37,37,0,0,1,12.79-.11c1.14.16,2.23.38,3.33.61l3.38.69c2.3.41,4.61,1.07,7,1.7a145.05,145.05,0,0,1,29.8,11.75,147.81,147.81,0,0,1,26.55,17.89,143.9,143.9,0,0,1,18.32,18.59C1125.49,1221.13,1129.26,1229.58,1128.57,1230Z" transform="translate(-118.36 -940.57)"/></g><g class="cls-1"><path d="M1044.26,1311c-1.15-1.49,20.9-20.38,49.25-42.18l10.39-7.9c3.38-2.55,6.65-4.91,9.49-7.28a42,42,0,0,0,7.12-7.3,24.52,24.52,0,0,0,2.31-3.81,17.56,17.56,0,0,0,1.3-3.77,18.33,18.33,0,0,0,.21-7,15.17,15.17,0,0,0-1.74-5c-1.46-2.61-3.06-3.61-2.78-4.1.11-.21.61-.18,1.51.12a11.27,11.27,0,0,1,1.55.81,11.41,11.41,0,0,1,1.82,1.55c2.54,2.56,5,7.83,4.19,14.39a21,21,0,0,1-1.21,5,28.7,28.7,0,0,1-2.46,4.93,43.82,43.82,0,0,1-7.69,8.88c-3,2.73-6.26,5.23-9.55,7.83l-10.3,8C1069.32,1296.06,1045.41,1312.52,1044.26,1311Z" transform="translate(-118.36 -940.57)"/></g><g class="cls-1"><path d="M1002.79,1244.57c.4.32-.12,1.45-.44,3.4a16.39,16.39,0,0,0,.66,8,20.85,20.85,0,0,0,2.52,5,44.45,44.45,0,0,0,4.24,5.26c1.66,1.81,3.56,3.75,5.46,5.79s3.88,4.17,5.87,6.36c8,8.78,14.9,17,19.66,23.14a17.78,17.78,0,0,0,3,3.39,4.58,4.58,0,0,0,.64.41,3.5,3.5,0,0,0,.56.23,3.2,3.2,0,0,0,1.19,0,2.94,2.94,0,0,0,1.66-.78c.36-.34.54-.61.77-.57s.5.4.47,1.15a2.71,2.71,0,0,1-.44,1.29,4.3,4.3,0,0,1-1.38,1.33,5.22,5.22,0,0,1-2.32.78,5.67,5.67,0,0,1-1.48-.08,7.42,7.42,0,0,1-1.42-.42,16.39,16.39,0,0,1-4.81-3.54c-5.68-5.33-13.17-13-21.14-21.79-2-2.2-3.92-4.36-5.76-6.46s-3.62-4.1-5.3-6.2c-3.36-4.15-6-8.76-6.67-13.21a15,15,0,0,1,1.56-10.09C1001.17,1244.88,1002.48,1244.29,1002.79,1244.57Z" transform="translate(-118.36 -940.57)"/></g><g class="cls-1"><path d="M999.36,1250.49c.31.36-4.62,5.16-13.8,13.52s-22.6,20.28-39.36,34.82c-8.38,7.27-17.59,15.2-27.56,23.62s-20.68,17.36-32,26.72c-22.71,18.6-48,38.73-75.1,59.07S757.82,1447,733.21,1463l-18.14,11.52-4.38,2.77c-1.45.92-2.92,1.77-4.37,2.64l-8.55,5.12-8.28,4.94c-2.72,1.59-5.34,3.24-8,4.69l-15.24,8.5c-9.65,5.51-18.68,10-26.52,14-3.94,2-7.58,3.89-11,5.54l-9.39,4.35c-11.3,5.18-17.63,7.83-17.84,7.41s5.74-3.89,16.65-9.78l9.09-4.87c3.3-1.81,6.84-3.87,10.68-6,7.64-4.36,16.47-9.08,25.92-14.84l14.95-8.85c2.62-1.5,5.2-3.19,7.87-4.84l8.14-5.07,8.42-5.25c1.42-.89,2.88-1.76,4.31-2.7l4.31-2.83,17.9-11.7c24.31-16.28,50.63-34.8,77.71-55s52.34-40.19,75.22-58.49c11.4-9.21,22.26-17.91,32.33-26.19l28.07-23c17.15-14.05,31-25.42,40.75-33.15S999.05,1250.14,999.36,1250.49Z" transform="translate(-118.36 -940.57)"/></g><g class="cls-1"><path class="cls-2" d="M1057.56,1356.17" transform="translate(-118.36 -940.57)"/></g><g class="cls-1"><path d="M853.72,1644.34c-.38-.32,2.88-4.94,8.76-13.26s14.32-20.4,24.33-35.61,21.61-33.55,34.54-53.93,27.24-42.72,42.33-66.12,29.6-45.63,42.76-65.82c6.54-10.1,12.62-19.76,18-29s10.06-18,14-26.11,7-15.74,9.42-22.49c.63-1.68,1.13-3.34,1.67-4.92s1.08-3.1,1.49-4.58c.82-3,1.67-5.65,2.29-8.11s1.15-4.64,1.61-6.54.75-3.53,1.06-4.84c.6-2.61,1-4,1.26-4s.26,1.45.1,4.16c-.1,1.35-.18,3-.42,5s-.64,4.22-1,6.76-1.1,5.32-1.75,8.39c-.32,1.54-.81,3.1-1.23,4.74s-.88,3.36-1.44,5.11a229.57,229.57,0,0,1-8.65,23.3c-3.71,8.43-8.21,17.45-13.45,26.9s-11.19,19.31-17.62,29.55c-12.9,20.43-27.23,42.73-42.32,66.14s-29.56,45.64-42.78,65.82-25.24,38.33-35.84,53.25-19.65,26.64-26.2,34.51S854.07,1644.62,853.72,1644.34Z" transform="translate(-118.36 -940.57)"/></g><g class="cls-1"><path d="M856.67,1642.4c-.31.86-15.18-3.55-38.8-11.9-11.81-4.17-25.78-9.38-41.21-15.4s-32.28-12.92-49.85-20.46-34.16-15.06-49.16-22.08-28.38-13.6-39.54-19.3c-22.31-11.39-35.74-19.15-35.33-20s14.61,5.36,37.42,15.61l40.06,17.94c15.11,6.69,31.73,14,49.24,21.53s34.26,14.54,49.51,20.9L819.6,1626C842.72,1635.48,857,1641.48,856.67,1642.4Z" transform="translate(-118.36 -940.57)"/></g><g class="cls-1"><path d="M909.05,1372.94c.67.64-7.66,10.67-21.9,26.21-3.56,3.88-7.49,8.11-11.78,12.58s-8.92,9.22-13.83,14.17c-9.9,9.84-21,20.45-33.16,31.07s-24.31,20.1-35.68,28.28c-5.77,4-11.19,7.83-16.52,11.08-2.64,1.65-5.15,3.3-7.65,4.77l-7.21,4.13c-4.56,2.69-8.89,4.77-12.64,6.66-1.89.94-3.63,1.83-5.27,2.58l-4.53,1.93c-5.47,2.28-8.58,3.32-8.78,2.9s2.52-2.29,7.58-5.27l4.22-2.44,5-3c3.53-2.2,7.64-4.53,12-7.46l6.89-4.44c2.38-1.57,4.79-3.31,7.33-5,5.11-3.41,10.35-7.38,15.93-11.44,11-8.35,22.85-17.88,34.91-28.35s23.17-20.9,33.25-30.43c5-4.8,9.79-9.34,14.21-13.65l12.34-12C898.79,1381.14,908.36,1372.28,909.05,1372.94Z" transform="translate(-118.36 -940.57)"/></g><g class="cls-1"><path d="M937.5,1397c.24,0,.43,1.32.57,3.84.07,1.25.13,2.81.18,4.65,0,.93,0,1.92.06,3,0,.53,0,1.08,0,1.64s0,1.15-.07,1.74c-.25,4.78-.33,10.66-1.23,17.41-.38,3.39-.72,7-1.44,10.82q-.5,2.87-1,5.88-.27,1.52-.54,3.06c-.23,1-.46,2-.7,3.1a250,250,0,0,1-37.5,87.91l-2.6,3.88c-.87,1.3-1.86,2.52-2.78,3.8-1.9,2.52-3.78,5.08-5.73,7.62-4.12,4.91-8.16,10-12.75,14.74-4.36,4.93-9.19,9.3-13.77,13.78a67.78,67.78,0,0,1-7.68,6.24,29,29,0,0,1-9.45,4.36,24.29,24.29,0,0,1-10.42.11,47.94,47.94,0,0,1-9.12-2.89c-2.83-1.17-5.44-2.4-8.09-3.58s-5.23-2.4-7.78-3.63a553,553,0,0,1-52.78-28.58c-3.64-2.24-7.07-4.42-10.3-6.51s-6.25-4-9.08-6.09a31.78,31.78,0,0,1-7.16-6.88,18,18,0,0,1-2.15-4,12,12,0,0,1-.81-4.14c0-5.35,2.76-9,5.15-10.26a7.18,7.18,0,0,1,1.65-.7,8.13,8.13,0,0,1,1.27-.17c.69,0,1,.1,1,.22s-.32.28-.9.47c-.29.09-.63.29-1,.45a8.16,8.16,0,0,0-1.25.87,8.89,8.89,0,0,0-2.45,3.37,11.4,11.4,0,0,0-.82,5.59,9.06,9.06,0,0,0,.89,3.15,15.16,15.16,0,0,0,2,3.17,29.36,29.36,0,0,0,6.75,5.72c2.74,1.77,5.91,3.58,9.18,5.53s6.78,4,10.47,6c14.75,8.36,32.6,17.78,53,27,2.54,1.17,5.13,2.31,7.75,3.47s5.3,2.34,7.92,3.4c5.24,2.11,10.63,3.6,15.51,2.32a22.32,22.32,0,0,0,7.24-3.45,61.49,61.49,0,0,0,6.88-5.66c4.44-4.37,9.13-8.63,13.37-13.42,4.47-4.6,8.4-9.56,12.43-14.32,1.91-2.46,3.75-4.95,5.61-7.4.91-1.23,1.87-2.42,2.73-3.68l2.56-3.76a260.3,260.3,0,0,0,17.76-30A272,272,0,0,0,928.66,1451c.27-1,.53-2,.8-3l.64-3q.61-2.94,1.22-5.73c.88-3.7,1.38-7.25,1.94-10.55,1.24-6.61,1.7-12.38,2.36-17.07.07-.59.15-1.16.22-1.71s.09-1.1.13-1.62c.09-1,.18-2,.25-2.94.17-1.82.33-3.36.48-4.6C937,1398.29,937.27,1397,937.5,1397Z" transform="translate(-118.36 -940.57)"/></g><g class="cls-1"><path d="M900.68,1378.2c-.12-.21,0-.53.38-1a8.54,8.54,0,0,1,.74-.74,12.5,12.5,0,0,1,1.13-.81,20.22,20.22,0,0,1,8.47-2.82,25.58,25.58,0,0,1,13.33,2.12,23.87,23.87,0,0,1,6.82,4.59c.51.5,1,1,1.54,1.52l1.37,1.71c.23.29.47.57.68.88l.59.94c.39.64.81,1.26,1.16,1.93a34.19,34.19,0,0,1,3.68,15.94,46.58,46.58,0,0,1-1.84,12.76c-2.06,7-4.71,10.7-5.51,10.37s0-4.61.78-11.31a66.58,66.58,0,0,0,.29-11.6,33.2,33.2,0,0,0-3.42-13c-.27-.51-.6-1-.89-1.47l-.43-.73c-.16-.24-.35-.45-.51-.67l-1-1.33-1.14-1.18a19.6,19.6,0,0,0-4.93-3.74,25.32,25.32,0,0,0-10.41-2.95C905.18,1377.31,901.17,1379.13,900.68,1378.2Z" transform="translate(-118.36 -940.57)"/></g><g class="cls-1"><path d="M1398.77,1572.88c0,.23-2,.42-5.62.57-.91.07-1.93.23-3.05.35s-2.34.22-3.65.47l-4.22.82a20.75,20.75,0,0,0-2.3.56l-2.43.66a96.93,96.93,0,0,0-22.89,10.18,168.73,168.73,0,0,0-26.48,20.31c-9.18,8.34-18.4,18.49-28.85,29-5.22,5.26-10.74,10.64-16.78,15.85a146.52,146.52,0,0,1-19.89,14.67,98.52,98.52,0,0,1-24,10.61c-2.15.68-4.37,1.11-6.59,1.62-1.1.28-2.23.42-3.35.62s-2.25.39-3.38.55a121.08,121.08,0,0,1-13.77,1,169.42,169.42,0,0,1-28-2.09c-9.35-1.37-18.69-3.33-28.07-5.39-74.87-16.55-141.84-34.93-189.88-49.58-24-7.31-43.36-13.6-56.63-18.18s-20.53-7.38-20.39-7.82,7.67,1.49,21.18,5.29,33,9.37,57.18,16.08c48.31,13.44,115.32,31,190,47.55,9.32,2.05,18.51,4,27.61,5.35a165.8,165.8,0,0,0,26.87,2.11,113.49,113.49,0,0,0,13-.86c1.06-.14,2.11-.33,3.16-.49s2.11-.3,3.14-.56c2.06-.47,4.14-.84,6.13-1.46a93,93,0,0,0,22.54-9.73,144.05,144.05,0,0,0,19.24-13.84c5.93-5,11.43-10.18,16.68-15.3,10.52-10.24,20-20.28,29.61-28.6a164.31,164.31,0,0,1,27.79-20,92.56,92.56,0,0,1,24.14-9.45l2.55-.53c.83-.16,1.62-.36,2.41-.43l4.4-.52c1.36-.16,2.64-.11,3.79-.16s2.2-.07,3.13,0C1396.86,1572.37,1398.78,1572.64,1398.77,1572.88Z" transform="translate(-118.36 -940.57)"/></g><g class="cls-1"><path d="M1487.23,1621.73c-1.3,1.55-19.64-12.72-44.85-25.77-25.11-13.22-47.3-20.12-46.78-22.07.23-.86,6.14-.25,15.35,2.25,2.3.63,4.81,1.35,7.46,2.26s5.48,1.91,8.43,3a188.14,188.14,0,0,1,36.35,19c2.61,1.79,5.08,3.48,7.3,5.19s4.29,3.31,6.12,4.83C1483.93,1616.56,1487.8,1621.05,1487.23,1621.73Z" transform="translate(-118.36 -940.57)"/></g><g class="cls-1"><path d="M1494.48,1539.35c.92-.08,2.23,4.53,3.15,12.15a171.06,171.06,0,0,1-4.16,59.46c-.25.92-.49,1.8-.72,2.63a12.33,12.33,0,0,1-1.06,2.64,8.8,8.8,0,0,1-3.08,3.45,3.93,3.93,0,0,1-1.8.59,2.2,2.2,0,0,1-.74-.06,1.73,1.73,0,0,1-.58-.2,1.52,1.52,0,0,1-.65-.54.51.51,0,0,1-.12-.42c.07-.23.38-.26.82-.39a2.28,2.28,0,0,0,.36-.13,1.74,1.74,0,0,0,.37-.21,2.88,2.88,0,0,0,.67-.71,8.52,8.52,0,0,0,1.23-2.85,9.87,9.87,0,0,0,.32-2c.07-.85.15-1.74.24-2.68.74-7.49,1.83-17.78,2.63-29.16C1493,1558.18,1492.54,1539.54,1494.48,1539.35Z" transform="translate(-118.36 -940.57)"/></g><g class="cls-1"><path d="M1383.57,1499.71c.72-.51,4.17,2.71,8.31,9.06a84.91,84.91,0,0,1,6.24,11.75,93.91,93.91,0,0,1,5.1,15.5,90.61,90.61,0,0,1,2.31,16.15c.09,1.26.12,2.48.12,3.67s0,2.34,0,3.45-.09,2.17-.16,3.24a19.08,19.08,0,0,1-.54,3.27,16.28,16.28,0,0,1-2.31,5.19,8,8,0,0,1-3.55,2.94,6.28,6.28,0,0,1-.91.25l-.82.06a4,4,0,0,1-1.22-.24c-.61-.29-.84-.55-.79-.78.08-.53,1.37-.51,2.45-1.61a6.87,6.87,0,0,0,1.51-2.49,16.44,16.44,0,0,0,.9-4.18,18.6,18.6,0,0,0,0-2.48c-.07-1-.15-2-.23-3s-.19-2.14-.3-3.26-.22-2.27-.38-3.44a142.62,142.62,0,0,0-2.7-15.14,146.14,146.14,0,0,0-4.31-14.77c-1.58-4.47-3.23-8.43-4.64-11.76C1384.75,1504.42,1382.75,1500.28,1383.57,1499.71Z" transform="translate(-118.36 -940.57)"/></g><g class="cls-1"><path class="cls-2" d="M1461.12,1498.39" transform="translate(-118.36 -940.57)"/></g><g class="cls-1"><path d="M1497.63,1539.75c-.6.82-6.55-2.72-16.29-8l-3.82-2c-1.33-.71-2.75-1.38-4.2-2.12-2.87-1.5-6-2.93-9.3-4.51-6.63-3-14-6.1-21.9-9s-15.57-5.08-22.6-7c-3.54-.87-6.88-1.76-10.06-2.42-1.58-.34-3.1-.73-4.58-1l-4.25-.85c-10.85-2.13-17.71-3.17-17.65-4.18,0-.47,1.77-.8,4.94-1,.79,0,1.67-.08,2.64-.11s2,0,3.12,0c2.25.08,4.81.13,7.62.44l4.42.43c1.54.16,3.13.42,4.78.65,3.3.43,6.79,1.14,10.47,1.87a182,182,0,0,1,45.81,16.4c3.3,1.77,6.45,3.44,9.27,5.2,1.43.87,2.82,1.67,4.11,2.52l3.69,2.48c2.36,1.55,4.38,3.14,6.16,4.5.89.69,1.71,1.33,2.45,1.94s1.39,1.22,2,1.76C1496.77,1538,1497.91,1539.37,1497.63,1539.75Z" transform="translate(-118.36 -940.57)"/></g><g class="cls-1"><path d="M1098,1263.69c.29-.37,4.77,2.47,12.63,7.94s19.1,13.55,32.89,23.66c27.6,20.22,65.44,48.53,107,80.13l30.28,23.12c9.76,7.49,19.18,14.75,28,21.85s17.13,14,24.69,20.76,14.32,13.29,20.34,19.45a249.92,249.92,0,0,1,26,31.35c1.34,2,2.57,3.74,3.54,5.33s1.75,2.93,2.37,4c1.25,2.21,1.8,3.42,1.61,3.55-1,.69-12.42-17.27-37-40.86-6.16-5.85-13-12.12-20.66-18.6s-16-13.17-24.86-20.09-18.36-14-28.18-21.46l-30.36-23c-41.54-31.6-78.92-60.52-105.76-81.72-13.43-10.6-24.22-19.27-31.59-25.39S1097.72,1264.07,1098,1263.69Z" transform="translate(-118.36 -940.57)"/></g><g class="cls-1"><path d="M1794.55,1845.05c-.51,0-.79-6.23-1.83-17.37-.55-5.58-1.34-12.37-2.6-20.2a248.69,248.69,0,0,0-5.67-26.27,202.94,202.94,0,0,0-10.9-30.53,158.77,158.77,0,0,0-18.93-31.72A124.78,124.78,0,0,0,1725,1691.4c-11.73-7.77-25.34-13.54-39.76-18.09s-29-7.89-43.07-11.45-27.61-7.5-40.23-12c-25.28-8.93-47-20.07-63.58-31.94a170.67,170.67,0,0,1-21-17.61,133.3,133.3,0,0,1-13.6-15.59c-.88-1.12-1.62-2.23-2.34-3.26s-1.41-2-2-2.92c-1.15-1.86-2.15-3.4-2.86-4.72-1.42-2.63-2.06-4.06-1.86-4.18.48-.31,3.83,5,11.11,13.42a171.29,171.29,0,0,0,35.32,30.89c16.49,11.08,37.94,21.51,62.9,30,12.48,4.27,25.8,8,39.79,11.45s28.69,6.74,43.51,11.43,29,10.72,41.4,19a128.84,128.84,0,0,1,30.89,29.3,159.61,159.61,0,0,1,19.13,33.27,196.34,196.34,0,0,1,10.39,31.61,222.3,222.3,0,0,1,4.77,26.94c.92,8,1.33,14.91,1.47,20.56C1795.6,1838.82,1795,1845.05,1794.55,1845.05Z" transform="translate(-118.36 -940.57)"/></g><g class="cls-1"><path d="M1669,2020.49c-.06-.46,4.48-1.48,12.75-2.92s20.24-3.3,35.07-5.46,32.54-4.59,52.1-7.24c9.65-1.41,19.68-3.28,28.43-8.39a62.31,62.31,0,0,0,22.09-22.17,79.13,79.13,0,0,0,6.92-14.64,91.81,91.81,0,0,0,3.94-15.33,138.78,138.78,0,0,0,1.46-30.25,242.84,242.84,0,0,0-3.09-27.56,143.79,143.79,0,0,0-6-23.25c-4.89-13.84-11.78-23.76-17.67-29.42-.73-.71-1.4-1.42-2.07-2l-2-1.65-1.66-1.44-1.46-1.09c-1.75-1.31-2.63-2.12-2.52-2.32s1.22.19,3.24,1.16c.51.24,1.08.51,1.69.84l1.92,1.22,2.22,1.46c.76.57,1.53,1.22,2.37,1.9,6.74,5.3,14.71,15.42,20.39,29.66a138.4,138.4,0,0,1,7,23.92,227.52,227.52,0,0,1,3.8,28.23,140,140,0,0,1-1.14,31.72,95.2,95.2,0,0,1-4.13,16.49,84.52,84.52,0,0,1-7.49,15.93,67.94,67.94,0,0,1-24.63,24.44c-.63.35-1.25.71-1.88,1l-1.92.91c-1.28.62-2.57,1.17-3.88,1.66a69.58,69.58,0,0,1-7.85,2.46,127.91,127.91,0,0,1-15.35,2.73c-19.74,2.33-37.42,4.25-52.34,5.81s-27,2.67-35.35,3.3S1669.1,2021,1669,2020.49Z" transform="translate(-118.36 -940.57)"/></g><g class="cls-1"><path d="M1644.22,1898.67c0-1,10.18-1.79,26.37-4.52,8.09-1.38,17.67-3.27,28.18-5.91s22-6,33.8-10c5.93-2,11.67-4.11,17.2-6.19s10.76-4.18,15.5-6.53a68.52,68.52,0,0,0,12.59-7.83,44.94,44.94,0,0,0,4.85-4.5,40.72,40.72,0,0,0,3.79-4.76,38.81,38.81,0,0,0,4.61-9.42,31.08,31.08,0,0,0,1.45-7.84c.23-4.42-.43-6.94.1-7.1.23-.07.62.47,1.17,1.63a17.05,17.05,0,0,1,.78,2.21c.15.45.21.94.33,1.47a16.36,16.36,0,0,1,.27,1.7,27.84,27.84,0,0,1-.41,8.87,38.21,38.21,0,0,1-4.2,11,43.71,43.71,0,0,1-3.91,5.68,49,49,0,0,1-5.17,5.36,68.6,68.6,0,0,1-13.37,9.11,155.34,155.34,0,0,1-16,7.17c-5.58,2.19-11.4,4.37-17.43,6.41a319.47,319.47,0,0,1-34.57,9.7,247.39,247.39,0,0,1-29,4.57,164.51,164.51,0,0,1-19.75.77C1646.8,1899.5,1644.23,1899.14,1644.22,1898.67Z" transform="translate(-118.36 -940.57)"/></g><g class="cls-1"><path d="M1827.38,1886.18c-.17-.33.8-1.25,2.74-2.67l1.19,1.74a135.21,135.21,0,0,1-20.5,17.66,198.33,198.33,0,0,1-39.32,21.69,214.35,214.35,0,0,1-28,9.29c-2.22.49-4.37,1-6.47,1.46-1,.22-2.08.47-3.11.66l-3,.53-5.75,1-5.34.64c-3.4.45-6.5.61-9.21.76-1.36.07-2.62.13-3.78.17s-2.24,0-3.19,0c-3.84-.11-5.95-.39-6-.86s2-1.08,5.75-1.78c.93-.18,2-.36,3.1-.55l3.66-.72c2.62-.5,5.62-1,8.89-1.73l5.15-1.06,5.54-1.33,2.92-.69c1-.23,2-.54,3-.81l6.23-1.69a286.22,286.22,0,0,0,27.07-9.52,270.94,270.94,0,0,0,38.88-20c10.47-6.42,18-12.14,22.16-14.69l1.19,1.73C1828.86,1886.21,1827.56,1886.51,1827.38,1886.18Z" transform="translate(-118.36 -940.57)"/></g><g class="cls-1"><path d="M1833,1927.17c.17.16,0,.68-.59,1.53a27.68,27.68,0,0,1-2.73,3.48,71.36,71.36,0,0,1-12.43,10.3c-5.63,3.83-12.68,7.73-20.27,12.08-3.76,2.21-7.73,4.49-11.53,7.15a71.06,71.06,0,0,0-10.93,9c-.42.43-.87.83-1.26,1.28l-1.14,1.35c-.74.92-1.57,1.75-2.24,2.71-1.39,1.86-2.67,3.83-3.9,5.83-2.46,4-4.76,8.11-7.43,11.89a46.22,46.22,0,0,1-9,9.77,43.19,43.19,0,0,1-9.91,6,41.34,41.34,0,0,1-9.06,2.75l-2,.29-1.85.18a15.55,15.55,0,0,0-2.75.31,3.42,3.42,0,0,0-.86.35,1.49,1.49,0,0,0-.52.45,2.24,2.24,0,0,0-.41,1.2c-.06.7.36,1.06.26,1.29s-.21.18-.53.09a1.86,1.86,0,0,1-1.06-1,3.5,3.5,0,0,1,.71-3.78,5.41,5.41,0,0,1,1.37-1,14.15,14.15,0,0,1,3.3-1.08l1.66-.43,1.76-.54a45,45,0,0,0,7.86-3.38,42.78,42.78,0,0,0,15.87-14.91c2.3-3.53,4.42-7.58,6.91-11.81,1.25-2.12,2.61-4.28,4.17-6.41.75-1.09,1.67-2.06,2.51-3.1l1.3-1.54c.44-.51.94-1,1.41-1.44a70.72,70.72,0,0,1,12.07-9.78,140.78,140.78,0,0,1,12.23-7.13c7.91-4.12,15-7.5,20.78-10.68a143.22,143.22,0,0,0,13.2-8.18C1830.9,1928,1832.64,1926.83,1833,1927.17Z" transform="translate(-118.36 -940.57)"/></g><g class="cls-1"><path d="M1557,1897.9c.18-2,30-.34,66.71-2.48,36.66-2,66.15-7,66.56-5,.18.89-7,3.29-18.94,5.8-3,.62-6.26,1.26-9.8,1.84s-7.32,1.17-11.32,1.73c-8,1-16.83,1.92-26.12,2.46s-18.17.62-26.24.48c-4-.1-7.86-.21-11.44-.44s-6.9-.45-9.94-.73C1564.34,1900.38,1556.93,1898.8,1557,1897.9Z" transform="translate(-118.36 -940.57)"/></g><g class="cls-1"><path d="M226.61,1843.61c-.81.37-3.18-2.55-5.64-8-.61-1.36-1.24-2.88-1.8-4.54s-1.11-3.47-1.64-5.38a80,80,0,0,1-2.14-12.7,78.83,78.83,0,0,1,.06-12.89c.21-2,.41-3.84.75-5.57s.66-3.33,1-4.77c1.55-5.79,3.41-9,4.27-8.82,1.93.53-.82,14.46.67,31.49C223.46,1829.47,228.42,1842.77,226.61,1843.61Z" transform="translate(-118.36 -940.57)"/></g><g class="cls-1"><path d="M163,1748.65c1.09-.08,1.62,4.58,5.51,10.28a37.36,37.36,0,0,0,8.33,8.63,47,47,0,0,0,6,3.84,50.19,50.19,0,0,0,7,3,80.35,80.35,0,0,0,14.9,3.2c4.74.61,9.11,1,12.8,1.3,7.4.66,12,1.52,12,2.47s-4.59,1.78-12.08,2.35a102.77,102.77,0,0,1-13.33.14,65.21,65.21,0,0,1-16.46-3,47,47,0,0,1-8.14-3.65,44,44,0,0,1-6.76-4.82,33.92,33.92,0,0,1-8.55-11.14,21.78,21.78,0,0,1-2.21-9.18,6.23,6.23,0,0,1,.09-1.48,7,7,0,0,1,.22-1.08C162.55,1749,162.75,1748.66,163,1748.65Z" transform="translate(-118.36 -940.57)"/></g><g class="cls-1"><path d="M171.5,1712.85c.74.67-.67,3.29-2.48,7.4l-.71,1.61c-.24.56-.44,1.17-.68,1.77-.51,1.2-.9,2.54-1.38,3.92a57.56,57.56,0,0,0-2.61,18.62c.08,1.45.08,2.85.24,4.14.07.65.09,1.29.17,1.89l.23,1.74c.61,4.45,1.25,7.36.35,7.8-.42.21-1.12-.26-2-1.35-.24-.28-.48-.59-.74-.93s-.47-.76-.72-1.19a21.56,21.56,0,0,1-1.49-3l-.72-1.85c-.23-.65-.4-1.34-.6-2.06a36.71,36.71,0,0,1-.94-4.65,42.58,42.58,0,0,1,.05-10.87,43.19,43.19,0,0,1,2.94-10.47,38.46,38.46,0,0,1,2.19-4.21c.39-.63.74-1.25,1.15-1.81l1.19-1.57a20.7,20.7,0,0,1,2.28-2.52c.36-.34.68-.67,1-.94s.66-.49,1-.69C170.35,1712.8,171.15,1712.53,171.5,1712.85Z" transform="translate(-118.36 -940.57)"/></g><g class="cls-1"><path d="M146.32,1827.19c-.86.12-2.63-6-3.6-16.2-.11-1.28-.22-2.62-.33-4s-.12-2.84-.18-4.35c-.14-3-.06-6.23,0-9.62a172.9,172.9,0,0,1,2.27-21.94,171.14,171.14,0,0,1,5.24-21.43c1.07-3.22,2.08-6.28,3.22-9.07.56-1.4,1.07-2.76,1.63-4s1.13-2.49,1.65-3.66c4.35-9.28,8.07-14.45,8.85-14s-1.26,6.33-4.36,15.81c-.38,1.19-.79,2.43-1.2,3.73s-.79,2.66-1.22,4.05c-.89,2.79-1.66,5.82-2.54,9-1.63,6.36-3.24,13.39-4.55,20.84s-2.12,14.62-2.72,21.15c-.23,3.28-.52,6.39-.62,9.31-.07,1.46-.18,2.87-.22,4.23s-.08,2.67-.12,3.91C147.26,1820.81,147.32,1827.07,146.32,1827.19Z" transform="translate(-118.36 -940.57)"/></g><g class="cls-1"><path d="M123.35,1978.3c-.47,0-1.12-2.26-1.9-6.49-.18-1.07-.38-2.25-.6-3.53s-.36-2.71-.55-4.22c-.35-3-.79-6.49-1-10.32-.13-1.92-.28-3.93-.42-6s-.19-4.27-.28-6.53c-.22-4.52-.19-9.36-.2-14.45.15-10.17.72-21.36,2-33s3.11-22.74,5.15-32.71c1.09-5,2.1-9.7,3.27-14.07.57-2.19,1.09-4.31,1.67-6.33l1.7-5.79c1.06-3.7,2.23-7,3.22-9.86.51-1.44,1-2.79,1.44-4l1.34-3.32c1.67-4,2.8-6.09,3.24-5.94,1,.32-1.33,9.5-4.57,24.34l-1.26,5.83c-.44,2-.82,4.14-1.26,6.33-.92,4.36-1.72,9.06-2.62,14-1.67,9.88-3.28,20.78-4.55,32.27s-2,22.48-2.45,32.49c-.16,5-.4,9.77-.43,14.23,0,2.23-.11,4.39-.11,6.46s0,4.06,0,6C124.08,1968.74,124.36,1978.2,123.35,1978.3Z" transform="translate(-118.36 -940.57)"/></g><g class="cls-1"><path d="M380.46,2056.74c0,.47-4.16.5-11.59.17s-18.16-1.26-31.37-2.79-28.88-3.94-46.16-7.24-36.18-7.57-55.77-12.93-38-11.27-54.6-17.22c-4.12-1.52-8.18-2.93-12.06-4.45l-11.3-4.39c-7.28-2.89-14.14-6-19.87-9.85a48.61,48.61,0,0,1-7.63-6.31,34.67,34.67,0,0,1-5.37-7.12,30.21,30.21,0,0,1-4.11-13.51,20.33,20.33,0,0,1,1.41-8.77,9.07,9.07,0,0,1,1.07-2c.3-.43.5-.62.61-.57s.11.33,0,.83-.28,1.21-.41,2.15a24.55,24.55,0,0,0-.07,8.13,29.49,29.49,0,0,0,4.71,11.78,31.86,31.86,0,0,0,5.15,6,45.67,45.67,0,0,0,7.21,5.37c5.43,3.32,12,6,19.28,8.62l11.34,4c3.89,1.41,7.94,2.72,12.07,4.14,16.55,5.58,34.89,11.27,54.33,16.58s38.12,9.75,55.2,13.35,32.58,6.4,45.62,8.62C364.28,2053.65,380.56,2055.72,380.46,2056.74Z" transform="translate(-118.36 -940.57)"/></g><g class="cls-1"><path d="M506.38,2035.29c.25.91-9.49,4.47-25.44,9.5-8,2.51-17.47,5.42-28.13,8.49s-22.59,6.15-35.53,7.78a128.74,128.74,0,0,1-19,1,163.88,163.88,0,0,1-17.59-1.53c-5.54-.75-10.73-1.62-15.57-2.42s-9.37-1.58-13.48-2.32c-16.46-2.94-26.58-5.23-26.45-6.16s10.49-.33,27.12,1.39c4.16.43,8.71.93,13.59,1.5s10.09,1.21,15.53,1.78,11.12,1,17,1.08a134,134,0,0,0,18.08-1.12c12.38-1.55,24.08-4.41,34.75-7.08s20.35-5.15,28.48-7.06C495.94,2036.3,506.13,2034.38,506.38,2035.29Z" transform="translate(-118.36 -940.57)"/></g><g class="cls-1"><path class="cls-2" d="M469.12,2044.17" transform="translate(-118.36 -940.57)"/></g><g class="cls-1"><path d="M1327.89,2018.91c0,.23-3,.42-8.83.56s-14.31.24-25.3.29c-22,.1-53.75,0-93-.18-78.55-.38-187-1.35-306.89-1.69l-87.46-.09c-28.25,0-55.48.07-81.41.56s-50.53,1.39-73.53,2.86-44.36,3.46-63.83,5.71c-38.94,4.5-70.24,9.92-91.82,13.87L471,2045.48c-5.68,1.07-8.69,1.52-8.75,1.29s2.86-1.13,8.45-2.63,13.88-3.53,24.61-5.94c21.47-4.76,52.73-10.92,91.76-16,19.51-2.57,41-4.84,64-6.57s47.79-2.85,73.78-3.5,53.28-.86,81.54-1,57.52-.13,87.49,0c119.88.34,228.4,2.07,306.93,3.69,39.27.82,71,1.63,93,2.34,11,.36,19.5.69,25.28,1S1327.89,2018.67,1327.89,2018.91Z" transform="translate(-118.36 -940.57)"/></g><g class="cls-1"><path d="M1745.81,2011.11c0,.47-7,1.57-19.89,3.15l-10.69,1.28-12.75,1.32c-9.14.9-19.56,2-31.1,2.89l-18.1,1.48c-6.3.5-12.86.9-19.65,1.38-13.58,1-28.1,1.72-43.38,2.54-30.58,1.46-64.22,2.56-99.55,2.93s-69-.14-99.58-1c-15.3-.53-29.83-1-43.43-1.72-6.79-.34-13.36-.62-19.66-1l-18.14-1.13c-11.55-.68-22-1.56-31.15-2.28l-12.76-1.08-10.72-1.07c-12.88-1.33-20-2.29-19.94-2.76s7.2-.41,20.12.11l10.75.48,12.79.51c9.18.36,19.61.91,31.16,1.28l18.13.69c6.3.24,12.86.39,19.64.6,13.58.48,28.09.73,43.36,1.09,30.54.52,64.12.77,99.37.47s68.81-1.28,99.33-2.39c15.26-.65,29.77-1.18,43.33-1.92,6.78-.35,13.34-.62,19.63-1l18.11-1c11.54-.6,22-1.34,31.13-1.88l12.78-.76,10.74-.68C1738.6,2010.85,1745.76,2010.64,1745.81,2011.11Z" transform="translate(-118.36 -940.57)"/></g><g class="cls-1"><path d="M369.6,1867c0,.47-3.41.78-9.56.94l-5.12.09c-1.87,0-3.9,0-6.09-.09-4.36-.12-9.34-.19-14.82-.56l-8.62-.52c-3-.2-6.1-.51-9.32-.79-6.45-.51-13.31-1.36-20.54-2.23-14.42-1.9-30.23-4.49-46.67-7.95S217,1848.27,203,1844.13c-6.95-2.16-13.56-4.17-19.66-6.33-3.05-1.06-6-2-8.83-3.08l-8.09-3c-5.16-1.9-9.73-3.86-13.76-5.54-2-.85-3.89-1.63-5.6-2.39l-4.63-2.17c-5.56-2.65-8.53-4.32-8.35-4.76s3.49.41,9.32,2.29l4.84,1.6,5.76,1.86c4.13,1.33,8.79,3,14,4.56l8.16,2.59c2.84.91,5.82,1.75,8.89,2.69,6.12,1.9,12.74,3.7,19.67,5.67,13.91,3.77,29.28,7.62,45.54,11.12s31.88,6.18,46.13,8.4c7.13,1,13.9,2.08,20.27,2.83,3.18.4,6.25.84,9.21,1.17l8.51,1c5.42.67,10.35,1.08,14.66,1.55l6,.65,5.07.51C366.24,1865.93,369.61,1866.52,369.6,1867Z" transform="translate(-118.36 -940.57)"/></g><g class="cls-1"><path d="M545.57,1827.4c0,1-12.16,1.39-31.7,2.14-9.77.38-21.4.87-34.29,1.6-6.44.37-13.14.81-19.92,1.83a79.79,79.79,0,0,0-20.12,5.45c-6.48,2.81-12.37,6.82-18.15,10.8a153.87,153.87,0,0,1-17.54,11,74.54,74.54,0,0,1-18,6.28,102.23,102.23,0,0,1-16.3,2,159.94,159.94,0,0,1-23.42-.8c-5.48-.59-8.48-1.19-8.46-1.66s3.07-.77,8.55-1,13.38-.34,23-1.35a111.43,111.43,0,0,0,15.38-2.71,72.54,72.54,0,0,0,16.42-6.34,164.11,164.11,0,0,0,16.62-10.94c5.77-4.07,12-8.4,19.25-11.57a82.85,82.85,0,0,1,21.9-5.81,195.08,195.08,0,0,1,20.59-1.49c13-.4,24.71-.39,34.53-.15C533.49,1825.2,545.59,1826.49,545.57,1827.4Z" transform="translate(-118.36 -940.57)"/></g><g class="cls-1"><path d="M758.92,1844.88c-.13,1-18.3-.72-47.66-3.16l-11.52-1-12.49-.94c-8.63-.7-17.87-1.26-27.58-1.93-19.42-1.2-40.79-2.32-63.24-3.11s-43.84-1.09-63.3-1.22c-9.73,0-19-.07-27.64,0l-12.53.08-11.56.16c-29.45.43-47.7.91-47.76-.1,0-.47,4.49-1.18,12.71-2.06l6.84-.69c2.51-.22,5.23-.43,8.15-.65,5.85-.43,12.52-1,19.89-1.32l11.58-.6c4-.19,8.22-.31,12.56-.47,8.69-.35,18-.5,27.73-.67,19.54-.21,41,0,63.57.7s44,2.11,63.46,3.66c9.73.83,19,1.61,27.62,2.56,4.32.45,8.49.86,12.5,1.33l11.51,1.39c7.33.86,13.94,1.84,19.75,2.67,2.9.43,5.61.82,8.09,1.22l6.78,1.15C754.52,1843.4,759,1844.42,758.92,1844.88Z" transform="translate(-118.36 -940.57)"/></g><g class="cls-1"><path d="M1023.17,1798.17c-.11.21-1.2-.07-3.17-.79l-3.6-1.37q-2.16-.75-4.94-1.77a157.42,157.42,0,0,0-32.29-7.48,181.49,181.49,0,0,0-49,1c-18.29,2.73-38,8.53-57.82,16.65-9.93,4.07-19.46,8.49-28.54,13s-17.68,9.2-26,13.67-16.63,8.38-24.92,10.86a84.61,84.61,0,0,1-12.2,2.69,98.27,98.27,0,0,1-11.41.87,128.66,128.66,0,0,1-19.43-1.22c-5.65-.76-10.46-1.67-14.37-2.48-7.8-1.68-12-2.92-12-3.38s4.49-.11,12.38.75c3.94.41,8.75.93,14.33,1.32a145.49,145.49,0,0,0,18.86.19,100.72,100.72,0,0,0,10.78-1.24,84.66,84.66,0,0,0,11.31-2.89c7.67-2.54,15.49-6.49,23.65-11s16.83-9.44,26-14.1,18.84-9.21,29-13.37c20.27-8.29,40.57-14.09,59.52-16.56a172.2,172.2,0,0,1,50.53.5,129.05,129.05,0,0,1,32.6,9.79c1.8.89,3.4,1.68,4.77,2.39s2.47,1.43,3.38,2C1022.4,1797.27,1023.28,1798,1023.17,1798.17Z" transform="translate(-118.36 -940.57)"/></g><g class="cls-1"><path d="M1254.64,2008.66c0-.23,1.41-.27,3.95-.14,1.28.07,2.85.17,4.7.32s4,.16,6.39.28a194.92,194.92,0,0,0,67.63-8.82,193.62,193.62,0,0,0,29.53-12.21,180.61,180.61,0,0,0,29.61-19.09c9.6-7.62,18.82-16.53,28.46-25.6s19.35-17.9,29.85-25.15a111.26,111.26,0,0,1,16.18-9.58l4.14-2c1.39-.6,2.81-1.14,4.2-1.71l4.17-1.67,4.21-1.37a152.66,152.66,0,0,1,32.45-6.47l3.83-.32,1.89-.16,1.87-.08,7.32-.29h7c2.29,0,4.52.12,6.71.18l3.23.11,3.15.19,6,.39c3.91.37,7.6.64,11,1,6.87.75,12.76,1.58,17.55,2.31,9.6,1.48,14.85,2.63,14.8,3.07s-5.43.23-15.09-.43c-4.83-.33-10.73-.76-17.58-1.15-3.42-.23-7.08-.32-11-.52l-6-.14-3.11-.07h-3.18c-2.15,0-4.35,0-6.59,0l-6.88.22-7.12.48-1.83.13-1.83.2-3.7.41a151.69,151.69,0,0,0-31.08,6.81l-4,1.35-3.93,1.64c-1.31.56-2.65,1.08-4,1.68l-3.89,2a107.14,107.14,0,0,0-15.27,9.23c-10,7-19.4,15.63-29,24.65s-19,18.05-29,25.87a180.3,180.3,0,0,1-30.91,19.46,189.61,189.61,0,0,1-30.73,12,196,196,0,0,1-28.11,5.83,171.8,171.8,0,0,1-41.37.23c-2.42-.33-4.57-.56-6.42-.91s-3.4-.69-4.65-1C1255.89,2009.31,1254.6,2008.89,1254.64,2008.66Z" transform="translate(-118.36 -940.57)"/></g><g class="cls-1"><path d="M1502,1903.69c-.08.46-7.36-.41-20.45-2.39s-32-5-55.34-9c-46.67-7.92-111-19.2-182.1-32.28-35.52-6.65-69.31-13.5-99.77-21s-57.64-15.31-80.1-23-40.24-15-52.37-20.37c-12-5.54-18.56-8.93-18.37-9.34s7.07,2.12,19.39,6.89c12.39,4.59,30.31,11.22,52.84,18.24s49.65,14.41,80.06,21.45,64.1,13.75,99.57,20.39c71,13.07,135.28,25.11,181.72,34.23,23.22,4.55,42,8.35,54.94,11.13S1502.1,1903.22,1502,1903.69Z" transform="translate(-118.36 -940.57)"/></g><g class="cls-1"><path d="M236.37,1398.89c.44.14-.63,4.86-3,13.26s-5.9,20.5-10.42,35.41c-9,29.81-21.91,70.86-35.84,116.28-6.9,22.73-13.7,44.31-18.84,64.12s-8.75,37.9-10.44,53.24a244.18,244.18,0,0,0-1.57,36.51c0,4.34.33,7.69.38,10s0,3.52-.24,3.56-.61-1.13-1.12-3.38a85.92,85.92,0,0,1-1.67-10,187.19,187.19,0,0,1-.58-37.17c1.11-15.69,4.21-34.21,9.14-54.32s11.52-41.84,18.42-64.59c14-45.48,27.56-86.33,37.77-115.77,5.12-14.72,9.39-26.59,12.49-34.74S235.92,1398.74,236.37,1398.89Z" transform="translate(-118.36 -940.57)"/></g><g class="cls-1"><ellipse cx="243.33" cy="1381.06" rx="62.42" ry="3.41" transform="translate(-1257.1 202.92) rotate(-70.25)"/></g><g class="cls-1"><ellipse cx="324.28" cy="1329.72" rx="3.41" ry="65.04" transform="translate(-1143.39 618.71) rotate(-85.95)"/></g><g class="cls-1"><path d="M389.23,1360.76c-.29,1.9-31-1.2-68.68-5.33s-68.33-7.81-68.2-9.72,31.06-1.24,68.94,3S389.51,1358.93,389.23,1360.76Z" transform="translate(-118.36 -940.57)"/></g><g class="cls-1"><path d="M502.83,1488.87c.12,0,.27.14.46.14a1.13,1.13,0,0,0,.75-.38c.14-.14.23-.34.18-.43s0,0,0,0a.73.73,0,0,0-.06-.14,1.2,1.2,0,0,0-.19-.29,7.09,7.09,0,0,0-2.19-1.33c-2.12-1.08-4.69-2.44-7.66-4.07-1.5-.79-3-1.74-4.67-2.75l-5.16-3.22c-1.83-1.1-3.63-2.42-5.55-3.73s-3.9-2.7-5.93-4.19c-3.95-3.08-8.29-6.25-12.53-10-4.37-3.58-8.66-7.67-13.14-11.88l-6.58-6.69c-1.13-1.11-2.18-2.32-3.26-3.51l-3.25-3.62a261.58,261.58,0,0,1-22.3-29.17c-1.55-2.36-3-4.73-4.37-7l-2.06-3.36-1.86-3.35c-1.21-2.19-2.38-4.32-3.51-6.35s-2-4.09-3-6-1.86-3.71-2.6-5.49l-2.12-5-1.78-4.36c-.48-1.36-.91-2.61-1.3-3.74-1.51-4.53-2.13-7.09-1.69-7.27s1.89,2,4.12,6.2l1.82,3.46,2.27,4.07c.8,1.46,1.65,3,2.55,4.69s1.95,3.36,3,5.18,2.15,3.7,3.29,5.68l3.77,6c.65,1,1.31,2.1,2,3.18l2.16,3.21c1.48,2.17,2.93,4.43,4.51,6.69a329,329,0,0,0,22.21,28.18l3.16,3.53c1,1.17,2.08,2.36,3.17,3.45l6.35,6.6c4.31,4.17,8.41,8.27,12.57,11.9s8.15,7,11.87,10.25c1.91,1.55,3.8,3,5.58,4.41s3.49,2.82,5.2,4l4.8,3.56c1.51,1.14,2.93,2.21,4.31,3.14,2.73,1.91,5.07,3.59,7,5a7.55,7.55,0,0,1,2.6,2.61,3.16,3.16,0,0,1,.26.93,3.81,3.81,0,0,1,0,.48,1.79,1.79,0,0,1-.12.53,2,2,0,0,1-1.12,1.14,1.58,1.58,0,0,1-1.9-.27C502.56,1489.11,502.74,1488.88,502.83,1488.87Z" transform="translate(-118.36 -940.57)"/></g><g class="cls-1"><path d="M1761.37,1731.13c.07.1-.42.58-1.46,1.45a31,31,0,0,1-5.05,3.28,42.08,42.08,0,0,1-9.23,3.39,61.79,61.79,0,0,1-13.29,1.63,153.55,153.55,0,0,1-16.63-.65c-6-.48-12.54-1.17-19.49-1.48s-14.38-.22-21.86,1.55a64.34,64.34,0,0,0-22,10.23c-7.11,4.9-13.81,11.16-20.58,18s-13.57,14.27-21.22,21.55a145,145,0,0,1-12.3,10.56,81.62,81.62,0,0,1-14.48,8.87,60.06,60.06,0,0,1-35.15,5.07c-12.17-1.91-23.75-7-34.48-13.41-5.37-3.24-10.57-6.82-15.66-10.61s-10-7.82-15-11.79c-9.93-7.94-20-15.89-31.24-22.15a90.13,90.13,0,0,0-17.55-7.62c-.76-.22-1.51-.51-2.29-.68l-2.33-.55c-.78-.17-1.54-.41-2.33-.53l-2.36-.38a59.94,59.94,0,0,0-9.58-.83c-13-.16-25.81,3.06-38.39,6.56-6.3,1.8-12.65,3.54-18.92,5.24l-9.37,2.56-9.34,2.38c-24.78,6.29-48.88,11.65-72,16s-45.16,7.77-65.87,10.51l-15.29,1.85-7.44.88-7.3.74-14.18,1.41-13.59,1.11c-35.42,2.82-64.17,3.4-84,3.32-9.93,0-17.63-.26-22.85-.46s-8-.45-8-.68,2.74-.47,8-.69,12.91-.37,22.8-.83c19.79-.73,48.43-2,83.65-5.46l13.51-1.33,14.1-1.62,7.26-.84,7.39-1,15.19-2c20.59-3,42.51-6.61,65.46-11.08s46.88-9.92,71.5-16.26l9.28-2.39,9.31-2.58c6.25-1.71,12.5-3.44,18.87-5.27s12.88-3.51,19.59-4.81a103.56,103.56,0,0,1,20.72-2,66.69,66.69,0,0,1,10.55.91l2.6.43c.87.14,1.72.39,2.57.58l2.56.62c.85.19,1.67.5,2.51.74a96.44,96.44,0,0,1,18.87,8.21c11.82,6.64,22.17,14.86,32.11,22.86,5,4,9.84,8,14.76,11.71s9.94,7.19,15.06,10.32c10.24,6.22,21.06,11,32.09,12.79a54,54,0,0,0,31.66-4.31c9.65-4.42,17.91-11.15,25.43-18.11s14.42-14.34,21.38-21.16,14-13.18,21.58-18.23a68.25,68.25,0,0,1,23.78-10.47c8.14-1.74,15.93-1.6,23-1.13s13.62,1.39,19.59,2.06,11.42,1.17,16.3,1.22a64,64,0,0,0,12.88-1,46.5,46.5,0,0,0,9.07-2.65C1759,1732.56,1761.19,1730.88,1761.37,1731.13Z" transform="translate(-118.36 -940.57)"/></g><g class="cls-1"><path d="M783.52,945.6c.74-.5,9.12,10,21.36,28,6.13,9,13.15,19.87,20.64,32.15s15.41,26,23.27,40.61,15,28.76,21.14,41.76,11.32,24.88,15.53,34.91c2,5.06,3.88,9.55,5.45,13.69a24.5,24.5,0,0,1,1.32,11.65,10.34,10.34,0,0,1-1.56,4.2,6.71,6.71,0,0,1-1.21,1.4,8.78,8.78,0,0,1-1.27.85c-.43.15-.8.28-1.12.37a3.23,3.23,0,0,1-.83.07c-.44,0-.67,0-.69-.17s.17-.29.51-.5c.17-.11.39-.2.63-.36s.48-.37.76-.57a7.41,7.41,0,0,0,2.14-5.56,24,24,0,0,0-2.22-10c-1.86-3.87-4-8.27-6.31-13.13-4.75-9.73-10.32-21.36-16.78-34.13s-13.66-26.74-21.49-41.28-15.52-28.25-22.68-40.63-13.71-23.49-19.3-32.77C789.67,957.65,782.7,946.16,783.52,945.6Z" transform="translate(-118.36 -940.57)"/></g><g class="cls-1"><path d="M604.08,1009.25c-.26-.39,1.94-2.39,6.19-5.68a217.84,217.84,0,0,1,19-12.49c8.25-4.89,18.33-10.28,29.78-15.71s24.24-10.9,37.77-16.31c6.76-2.7,13.38-5.28,19.78-7.74s12.64-4.85,18.81-6.72a92.05,92.05,0,0,1,18-3.75,63.79,63.79,0,0,1,8.47-.22,55.21,55.21,0,0,1,7.79,1,45.77,45.77,0,0,1,12.63,4.59,32.87,32.87,0,0,1,8.06,6.13,15.67,15.67,0,0,1,1.31,1.46c.38.49.78.9,1.06,1.35a21.82,21.82,0,0,1,1.43,2.28c.65,1.31.88,2,.68,2.16-.48.32-2.18-2.15-6.25-5.28a36.23,36.23,0,0,0-8-4.68,46.17,46.17,0,0,0-11.76-3.26,53.61,53.61,0,0,0-7.09-.48,65.47,65.47,0,0,0-7.7.57,94.62,94.62,0,0,0-16.78,4.13c-5.85,1.94-11.91,4.41-18.28,6.95l-19.69,7.85c-13.47,5.39-26.22,10.64-37.69,15.69S640,991,631.56,995.3s-15.13,8-19.86,10.51S604.35,1009.64,604.08,1009.25Z" transform="translate(-118.36 -940.57)"/></g><g class="cls-1"><path d="M535.72,1117.78c-.23,0-.59-.57-1.05-1.82a16.63,16.63,0,0,1-.71-2.36,31.45,31.45,0,0,1-.66-3.3,37.1,37.1,0,0,1-.43-4.2c-.13-1.55-.09-3.23-.06-5a62.83,62.83,0,0,1,1.79-12.16,80.5,80.5,0,0,1,13.92-28.63,124.61,124.61,0,0,1,12.31-14.12c4.6-4.56,9.6-9,14.84-13.3,10.49-8.57,20.67-16.42,30.41-23.09,4.88-3.31,9.64-6.29,14.2-8.92,2.31-1.26,4.51-2.53,6.71-3.6,1.09-.55,2.15-1.1,3.21-1.61l3.13-1.44a98.85,98.85,0,0,1,20.07-6.8,39.7,39.7,0,0,1,5.7-.89c1.31-.1,2,0,2.08.19s-.56.62-1.76,1.15-3,1.14-5.26,2.09a164.7,164.7,0,0,0-18.71,8.59l-2.93,1.59-3,1.74c-2.06,1.16-4.14,2.51-6.32,3.84-4.3,2.76-8.82,5.83-13.5,9.21-9.31,6.78-19.33,14.76-29.68,23.21-5.14,4.24-10,8.49-14.5,12.81a131.6,131.6,0,0,0-12,13.17,83.33,83.33,0,0,0-14.27,26.12,71.46,71.46,0,0,0-2.64,11.19c-.19,1.69-.42,3.26-.48,4.71s-.14,2.79-.17,4,0,2.28,0,3.22,0,1.73,0,2.38C536,1117,536,1117.73,535.72,1117.78Z" transform="translate(-118.36 -940.57)"/></g><g class="cls-1"><path d="M555,1167c-.19.41-1.54.3-3.79-.52a30.57,30.57,0,0,1-8.64-5.26,43.6,43.6,0,0,1-9.64-11.63,51,51,0,0,1-6.17-17.47,59.35,59.35,0,0,1,.11-18.38,64.87,64.87,0,0,1,4-14.27c3.21-7.78,6.47-11.85,7.24-11.46s-.77,5.23-2.65,12.94-3.73,18.53-2,30.11a54.88,54.88,0,0,0,5,15.55,51.05,51.05,0,0,0,7.47,11.15C551,1163.5,555.46,1166,555,1167Z" transform="translate(-118.36 -940.57)"/></g><g class="cls-1"><path d="M768.46,941.23c.17-.16,1,.35,2.35,1.5.68.57,1.53,1.29,2.49,2.19s2,2,3.17,3.22a114.8,114.8,0,0,1,7.93,9.53,134.85,134.85,0,0,1,8.93,13.84,173.2,173.2,0,0,1,16,39.68c4.25,15.58,6.88,33.15,8.21,51.59s1.35,36,1.37,51.89c0,7.95-.09,15.57-.51,22.71a166,166,0,0,1-2.22,19.82,86.39,86.39,0,0,1-9.35,27.38,46.49,46.49,0,0,1-4.44,6.5c-1.16,1.38-1.85,2-2.05,1.9s.13-1,.89-2.64,1.88-3.92,3.22-6.94a102.29,102.29,0,0,0,7-26.94,184.34,184.34,0,0,0,1.34-19.31c.17-7,0-14.48-.13-22.42-.35-15.88-.6-33.31-1.88-51.46s-3.7-35.3-7.49-50.5a190,190,0,0,0-14.15-39c-2.59-5.33-5.36-9.92-7.81-13.94s-4.86-7.31-6.83-10q-1.51-2-2.64-3.56c-.79-1-1.46-1.88-2-2.6C768.76,942.24,768.29,941.4,768.46,941.23Z" transform="translate(-118.36 -940.57)"/></g><g class="cls-1"><path d="M1457.42,1940.54a13.61,13.61,0,0,1-3.47-.13c-2.28-.2-5.66-.55-10.1-1.05-8.86-1-21.91-2.59-38.71-4.71l-28-3.11-16-1.79c-5.55-.62-11.31-1.32-17.3-1.85l-38.34-3.72-10.32-1-10.62-.86-22.08-1.79c-60.33-4.79-132.31-8.89-212.32-10.15l-15.09-.26-7.62-.13-7.66,0-31.07,0H972.91l-15.94.25-32.36.5c-5.44,0-10.9.26-16.39.43l-16.52.53-16.66.54c-5.58.18-11.18.33-16.79.64l-33.92,1.65c-5.69.3-11.41.5-17.13.89L790,1916.5l-34.34,2.26-33.85,2.76-16.74,1.37c-5.56.48-11.09,1.07-16.59,1.6l-32.78,3.22c-5.42.5-10.8,1.13-16.16,1.75l-16,1.84c-10.61,1.24-21.13,2.4-31.53,3.66-20.78,2.58-41.13,5.28-61,7.61s-39.4,4.3-58.4,5.59c-4.75.31-9.46.6-14.15.82s-9.34.32-14,.48c-9.23.4-18.32.31-27.26.36h-3.34l-3.33-.08-6.61-.15c-4.39-.13-8.74-.14-13-.36l-12.8-.62c-2.11-.1-4.21-.18-6.3-.31l-6.23-.45-12.28-.88c-4-.3-8-.73-12-1.08s-7.87-.72-11.73-1.13l-11.44-1.3c-30.15-3.51-57.25-7.93-80.95-12.26s-44-8.59-60.54-12.28l-11.71-2.61-10.25-2.39c-6.35-1.48-11.72-2.78-16-3.87s-7.62-1.94-9.83-2.55-3.32-1-3.3-1.1a13.51,13.51,0,0,1,3.45.42c2.26.39,5.6,1,10,1.89l16.17,3.23,10.32,2.08,11.75,2.3c16.61,3.29,37,7.15,60.66,11.13s50.77,8,80.82,11.21l11.4,1.19c3.85.37,7.75.67,11.69,1s7.92.7,11.95,1l12.21.77,6.2.39c2.08.11,4.17.18,6.27.27l12.72.51c4.27.18,8.6.17,13,.26l6.56.11,3.31,0,3.32,0c8.87-.11,17.9-.07,27.05-.52,4.58-.2,9.2-.3,13.84-.57s9.33-.56,14.05-.89c18.85-1.39,38.22-3.42,58.07-5.85s40.17-5.18,61-7.83c10.41-1.3,20.95-2.49,31.58-3.76l16-1.88c5.37-.64,10.76-1.28,16.19-1.79l32.84-3.29c5.52-.54,11-1.14,16.62-1.63l16.78-1.38,33.92-2.8,34.41-2.27,17.26-1.12c5.73-.4,11.46-.59,17.16-.89l34-1.62c5.62-.31,11.23-.46,16.82-.63l16.7-.51,16.56-.51c5.5-.16,11-.36,16.42-.39l32.42-.44,16-.2,15.82.06,31.14.13,7.67,0,7.63.16,15.12.32c80.16,1.62,152.25,6.22,212.62,11.63l22.09,2,10.62,1,10.33,1.12,38.33,4.24c6,.62,11.74,1.41,17.29,2.12l16,2.08c10.23,1.35,19.57,2.54,28,3.71,16.76,2.52,29.76,4.53,38.57,6,4.4.73,7.75,1.3,10,1.73S1457.44,1940.42,1457.42,1940.54Z" transform="translate(-118.36 -940.57)"/></g><g class="cls-1"><path d="M1299.39,1999.4a10.79,10.79,0,0,1-3.09.18c-2,0-5-.06-9-.17-7.92-.2-19.59-.67-34.62-1.26-30.07-.94-73.55-2.58-127.32-3.31s-117.8-1-188.89,0-149.26,2.89-231.29,5.46l-119.75,3.87c-19.35.63-38.33,1.23-56.88,2.16s-36.67,2.19-54.31,4-34.91,3.75-51.77,5.12a426.91,426.91,0,0,1-49.28,1.59c-2-.06-4,0-5.94-.15l-5.89-.35c-3.9-.26-7.78-.4-11.6-.75-7.64-.82-15.16-1.38-22.45-2.54-3.66-.52-7.28-1-10.85-1.54l-10.57-1.87-5.19-.92-5.11-1.06-10-2.11c-3.31-.67-6.53-1.54-9.74-2.29l-9.48-2.31c-6.19-1.7-12.24-3.26-18.08-4.95s-11.5-3.36-16.95-5.09-10.73-3.41-15.81-5.11c-20.32-6.76-37.54-13.33-51.59-18.74-7-2.73-13.23-5.18-18.59-7.37s-9.91-4-13.56-5.58-6.42-2.74-8.27-3.59a10.52,10.52,0,0,1-2.74-1.44,10.86,10.86,0,0,1,3,.79c1.93.63,4.79,1.62,8.52,3l32.58,11.74c14.17,5,31.49,11.21,51.84,17.6,5.08,1.61,10.37,3.17,15.82,4.84s11.12,3.15,16.93,4.81,11.86,3.07,18,4.68l9.43,2.18c3.19.7,6.4,1.53,9.69,2.16l10,2,5.07,1,5.15.85,10.48,1.74c3.54.52,7.12.94,10.74,1.43,7.23,1.07,14.66,1.56,22.2,2.3,3.78.32,7.61.43,11.46.65l5.8.3c1.95.11,3.9.06,5.86.1a425.44,425.44,0,0,0,48.65-1.92c16.72-1.46,33.92-3.54,51.64-5.39s36-3.26,54.61-4.25,37.65-1.65,57-2.33c38.68-1.35,78.73-2.73,119.77-4,82.06-2.58,160.27-4.32,231.43-4.93s135.26.08,189.06,1.49,97.31,3.73,127.35,5.48c15,1,26.67,1.89,34.57,2.54,3.94.33,7,.61,9,.84A10.6,10.6,0,0,1,1299.39,1999.4Z" transform="translate(-118.36 -940.57)"/></g><g class="cls-1"><path d="M1002.49,1184.58c-.09.08-.52-.23-1.27-.88-.38-.32-.81-.75-1.36-1.21l-2-1.52a33.82,33.82,0,0,0-15.32-5.65c-7.1-1-16-.45-26.14,1.69s-21.65,5.24-34.17,9.17-26.08,8.75-40.51,14.32-29.76,11.83-46,18.31c-8.12,3.22-16.44,6.53-25,9.73-4.27,1.65-8.65,3.18-13,4.79l-6.67,2.3c-2.24.78-4.49,1.55-6.77,2.26l-6.85,2.2-7,2.07-3.5,1-3.55,1-7.13,1.91c-4.82,1.12-9.63,2.39-14.57,3.35-2.46.49-4.91,1.07-7.4,1.49l-7.5,1.3c-2.5.45-5,.73-7.53,1.09l-3.76.52c-1.24.18-2.5.26-3.76.4l-7.49.73-7.46.42c-1.25.06-2.48.17-3.72.18l-3.71,0c-2.47,0-4.93.11-7.38,0l-7.32-.27-1.82-.07-1.81-.15-3.62-.32a180.25,180.25,0,0,1-53.88-13.15c-16.36-6.73-31-14.68-44.78-21.73s-26.68-13.33-38.92-17.76c-6.13-2.21-12.08-3.94-17.76-5.37-2.86-.63-5.63-1.31-8.35-1.74-1.36-.22-2.69-.52-4-.68l-3.9-.51a102.36,102.36,0,0,0-26.39.09c-1.78.3-3.49.52-5.07.83l-4.41,1a15.55,15.55,0,0,0-2,.52l-1.78.53c-1.14.35-2.18.63-3.1.92-3.6,1.35-5.56,2-5.67,1.76s1.66-1.25,5.17-3c.89-.41,1.92-.8,3-1.26l1.77-.7a17.32,17.32,0,0,1,2-.69l4.45-1.34c1.6-.43,3.34-.75,5.17-1.16a98.47,98.47,0,0,1,27.19-1.28l4,.4c1.37.11,2.74.38,4.15.57,2.82.36,5.69,1,8.65,1.53a181.08,181.08,0,0,1,18.38,5c12.69,4.25,26,10.36,39.89,17.27s28.58,14.55,44.57,20.94a178.76,178.76,0,0,0,25.06,8c2.15.62,4.38,1,6.6,1.42l3.34.66c1.11.23,2.23.46,3.37.59l6.83,1,1.71.24c.58.07,1.16.1,1.74.15l3.47.3,3.5.29,1.75.14,1.76.06,7.09.24c2.38.08,4.77,0,7.16-.05l3.6,0c1.2,0,2.4-.12,3.61-.18l7.26-.43,7.3-.72c1.22-.14,2.44-.22,3.66-.39l3.67-.51c2.44-.36,4.91-.63,7.36-1.07l7.33-1.27c2.44-.41,4.85-1,7.26-1.46,4.83-.93,9.57-2.16,14.3-3.26l7-1.86,3.49-.93,3.45-1,6.87-2,6.77-2.14c2.25-.7,4.48-1.45,6.69-2.2l6.61-2.24c4.37-1.57,8.71-3.06,13-4.66,8.54-3.12,16.86-6.35,25-9.48,16.24-6.31,31.67-12.4,46.28-17.75s28.37-10,41.11-13.65,24.45-6.35,34.84-8.29,19.84-2,27.3-.56,12.81,4.5,15.73,7.19l1.88,1.84c.49.57.85,1.09,1.16,1.5C1002.33,1184.06,1002.58,1184.51,1002.49,1184.58Z" transform="translate(-118.36 -940.57)"/></g><g class="cls-1"><path d="M170.4,1692.17c-1.91-.08-2.81-14.77-3.39-32.8s-.56-32.74,1.34-32.94,4.92,14.42,5.47,32.73S172.25,1692.26,170.4,1692.17Z" transform="translate(-118.36 -940.57)"/></g><g class="cls-1"><path d="M220.61,1698.82c-1.8-.6,1-13.84,5.71-29.75s9.54-28.54,11.38-28.07-.1,14-4.85,30S222.38,1699.42,220.61,1698.82Z" transform="translate(-118.36 -940.57)"/></g><g class="cls-1"><ellipse cx="281.97" cy="1680.7" rx="29.99" ry="3.41" transform="translate(-1538.83 662.65) rotate(-77.87)"/></g><g class="cls-1"><path d="M316.25,1709.93c-.63.41-3.32-2.85-8.17-8-2.44-2.58-5.43-5.63-9-8.85-1.8-1.61-3.75-3.27-5.86-4.93-.52-.42-1.05-.83-1.6-1.24l-.82-.63c-.52-.42-1.09-.81-1.65-1.22l-7-5,5.35-2.53c.94-.42,1.8-.89,2.69-1.35l1.34-.7.65-.39c1.69-1,3.38-2.09,5-3.28a62.41,62.41,0,0,0,9.39-8.39c.37-.4.74-.8,1.08-1.21s.74-.83,1-1.19.58-.75.84-1.15.51-.81.75-1.22a18,18,0,0,0,2-5.13,8.34,8.34,0,0,0-.07-4.4,3.33,3.33,0,0,0-.37-.73c-.08-.1-.14-.22-.22-.32l-.28-.28a4.09,4.09,0,0,0-1.43-.88,8.24,8.24,0,0,0-4.17-.07,47.94,47.94,0,0,0-5,1.33c-3.35,1-6.39,2-9.08,3.08a46.89,46.89,0,0,0-6.94,3.38,32.87,32.87,0,0,0-4.65,3.43c-2.36,2.15-3.47,3.69-3.94,3.45s-.07-2.18,1.93-5.18a24.33,24.33,0,0,1,4.43-4.79,39.13,39.13,0,0,1,7.15-4.66,84.76,84.76,0,0,1,9.27-4.06,48.35,48.35,0,0,1,5.53-1.84,14,14,0,0,1,7.33-.07,10.37,10.37,0,0,1,3.78,2.09l.84.78c.25.28.47.6.7.9a9.81,9.81,0,0,1,1.13,2,14.43,14.43,0,0,1,.58,8.16,23.72,23.72,0,0,1-2.67,7.15c-.32.56-.63,1.12-1,1.66a18.63,18.63,0,0,1-1.14,1.59c-.42.56-.8,1-1.19,1.44s-.8.9-1.21,1.35a62.92,62.92,0,0,1-10.56,9.24,60.77,60.77,0,0,1-5.68,3.5l-.69.38h-.05l-.11,0-.27.06a.8.8,0,0,0,.17.27l.08.1.83.71c.55.46,1.09.93,1.61,1.41,2.11,1.88,4,3.78,5.77,5.62a86.92,86.92,0,0,1,8.32,10.22C315.21,1705.57,316.82,1709.58,316.25,1709.93Z" transform="translate(-118.36 -940.57)"/></g><g class="cls-1"><path d="M234.75,1457.65c1.74.88-6.66,20.68-15.85,45.44s-15.88,45.21-17.77,44.73c-.89-.23-.39-5.68,1.49-14.27a266.58,266.58,0,0,1,23.91-64.13C230.73,1461.7,233.93,1457.24,234.75,1457.65Z" transform="translate(-118.36 -940.57)"/></g><g class="cls-1"><path d="M236.71,1461.44c1.48,1.2-6.86,13.94-17.59,29.24s-19.91,27.44-21.54,26.45,5.06-14.89,16-30.37S235.27,1460.27,236.71,1461.44Z" transform="translate(-118.36 -940.57)"/></g><g class="cls-1"><path d="M261.64,1464.06c1.72.76-5.62,21.07-16.39,45.35s-20.9,43.36-22.62,42.59,5.61-21.07,16.39-45.35S259.92,1463.3,261.64,1464.06Z" transform="translate(-118.36 -940.57)"/></g><g class="cls-1"><path d="M281.27,1470.23c1.7.81-5.69,20-16.52,42.8s-21,40.68-22.67,39.88,5.69-20,16.51-42.8S279.57,1469.43,281.27,1470.23Z" transform="translate(-118.36 -940.57)"/></g><g class="cls-1"><path d="M309,1476.85c1,1.65-8.63,9.12-20.37,18.23s-21.44,16.48-22.79,15.11,6.47-11.15,18.62-20.51S308.06,1475.26,309,1476.85Z" transform="translate(-118.36 -940.57)"/></g><g class="cls-1"><path d="M279.19,1560.56c-1.89.33-5.26-10.34-9.17-23.42s-6.87-23.86-5.11-24.62,7.65,9.16,11.65,22.68S281,1560.26,279.19,1560.56Z" transform="translate(-118.36 -940.57)"/></g><g class="cls-1"><path d="M296.34,1558.67c-1.75-.87,5-17.49,11.92-38.37s11.5-38.23,13.42-37.88c.9.17.94,4.78-.12,12.08a177.54,177.54,0,0,1-18.08,54.42C300,1555.4,297.16,1559.08,296.34,1558.67Z" transform="translate(-118.36 -940.57)"/></g><g class="cls-1"><path d="M374.79,1507.54c-.79,1.73-13.26-2.23-28.31-7.71s-27.14-10.53-26.61-12.37,13.64.35,28.95,6S375.56,1505.84,374.79,1507.54Z" transform="translate(-118.36 -940.57)"/></g><g class="cls-1"><path d="M351.83,1530c-.11.92-2.84,1.46-7.2,1.29a69.34,69.34,0,0,1-32-10.25c-3.65-2.38-5.56-4.41-5.12-5.23.94-1.68,10.6,2,22.56,5.82S352.05,1528.11,351.83,1530Z" transform="translate(-118.36 -940.57)"/></g><g class="cls-1"><path d="M344.82,1570.69c-.45,1.83-12.81.4-27.62-3.21s-26.45-8-26-9.83,12.81-.39,27.62,3.21S345.26,1568.86,344.82,1570.69Z" transform="translate(-118.36 -940.57)"/></g><g class="cls-1"><path d="M1550.89,1978.39c.89,0,1.86,3,1.83,7.9a32.16,32.16,0,0,1-.25,4,43.93,43.93,0,0,1-.76,4.57,49.37,49.37,0,0,1-8.87,19.17,42.36,42.36,0,0,1-3,3.54,33.73,33.73,0,0,1-2.9,2.79c-3.75,3.22-6.64,4.4-7.21,3.71s1.06-3.18,3.62-6.93c.64-.94,1.35-2,2.05-3.08s1.45-2.31,2.23-3.55c1.49-2.55,3-5.38,4.48-8.45s2.56-6.09,3.54-8.88c.44-1.4.92-2.73,1.27-4s.71-2.46,1-3.55C1549.15,1981.26,1549.9,1978.39,1550.89,1978.39Z" transform="translate(-118.36 -940.57)"/></g><g class="cls-1"><path d="M1626.64,1978.39c.91-.05,1.95,2.39,2.33,6.53a38.06,38.06,0,0,1-.09,7.27,48.6,48.6,0,0,1-1.79,8.73,49.29,49.29,0,0,1-3.42,8.24,38.7,38.7,0,0,1-4,6.07c-2.64,3.21-4.87,4.65-5.6,4.1s0-3,1.45-6.56c.72-1.78,1.54-3.89,2.43-6.22s1.77-4.9,2.62-7.63,1.51-5.36,2.11-7.78,1.07-4.63,1.48-6.51C1625,1980.88,1625.67,1978.43,1626.64,1978.39Z" transform="translate(-118.36 -940.57)"/></g><g class="cls-1"><path class="cls-2" d="M149.12,1653.06" transform="translate(-118.36 -940.57)"/></g><g class="cls-1"><path d="M170.46,1656.61c-.48.82-1.6,1.13-3,1.17a21.51,21.51,0,0,1-9.21-2.29c-1.18-.67-2-1.47-2.06-2.42s.79-1.84,2.29-2.39a11.11,11.11,0,0,1,11,2.74C170.63,1654.61,170.93,1655.8,170.46,1656.61Z" transform="translate(-118.36 -940.57)"/></g></g></svg>